Fira Sans-Bold.ufo
<glyph name="numbersign" format="1">
  <advance width="580"/>
  <unicode hex="0023"/>
  <outline>
    <contour>
      <point x="369" y="680" type="line"/>
      <point x="279" y="0" type="line"/>
      <point x="442" y="0" type="line"/>
      <point x="532" y="680" type="line"/>
    </contour>
    <contour>
      <point x="15" y="257" type="line"/>
      <point x="15" y="131" type="line"/>
      <point x="528" y="131" type="line"/>
      <point x="528" y="257" type="line"/>
    </contour>
    <contour>
      <point x="138" y="680" type="line"/>
      <point x="48" y="0" type="line"/>
      <point x="211" y="0" type="line"/>
      <point x="301" y="680" type="line"/>
    </contour>
    <contour>
      <point x="52" y="562" type="line"/>
      <point x="52" y="436" type="line"/>
      <point x="565" y="436" type="line"/>
      <point x="565" y="562" type="line"/>
    </contour>
  </outline>
</glyph>
<glyph name="dollar" format="1">
  <advance width="560"/>
  <unicode hex="0024"/>
  <outline>
    <contour>
      <point x="223" y="-1" type="line"/>
      <point x="223" y="-165" type="line"/>
      <point x="358" y="-165" type="line"/>
      <point x="358" y="5" type="line"/>
    </contour>
    <contour>
      <point x="223" y="834" type="line"/>
      <point x="223" y="673" type="line"/>
      <point x="358" y="678" type="line"/>
      <point x="358" y="834" type="line"/>
    </contour>
    <contour>
      <point x="138" y="690"/>
      <point x="28" y="613"/>
      <point x="28" y="488" type="curve" smooth="yes"/>
      <point x="28" y="392"/>
      <point x="74" y="324"/>
      <point x="234" y="274" type="curve" smooth="yes"/>
      <point x="320" y="247"/>
      <point x="341" y="230"/>
      <point x="341" y="191" type="curve" smooth="yes"/>
      <point x="341" y="157"/>
      <point x="316" y="132"/>
      <point x="259" y="132" type="curve" smooth="yes"/>
      <point x="197" y="132"/>
      <point x="144" y="155"/>
      <point x="96" y="196" type="curve"/>
      <point x="0" y="91" type="line"/>
      <point x="54" y="38"/>
      <point x="140" y="-9"/>
      <point x="266" y="-9" type="curve" smooth="yes"/>
      <point x="440" y="-9"/>
      <point x="545" y="80"/>
      <point x="545" y="208" type="curve" smooth="yes"/>
      <point x="545" y="326"/>
      <point x="484" y="385"/>
      <point x="348" y="429" type="curve" smooth="yes"/>
      <point x="254" y="459"/>
      <point x="229" y="470"/>
      <point x="229" y="504" type="curve" smooth="yes"/>
      <point x="229" y="533"/>
      <point x="253" y="551"/>
      <point x="300" y="551" type="curve" smooth="yes"/>
      <point x="353" y="551"/>
      <point x="398" y="533"/>
      <point x="442" y="498" type="curve"/>
      <point x="528" y="600" type="line"/>
      <point x="469" y="658"/>
      <point x="391" y="690"/>
      <point x="284" y="690" type="curve" smooth="yes"/>
    </contour>
  </outline>
</glyph>
<glyph name="ampersand" format="1">
  <advance width="807"/>
  <unicode hex="0026"/>
  <outline>
    <contour>
      <point x="157" y="716"/>
      <point x="85" y="628"/>
      <point x="85" y="542" type="curve" smooth="yes"/>
      <point x="85" y="482.667"/>
      <point x="104.769" y="445.68"/>
      <point x="180.161" y="372.076" type="curve"/>
      <point x="87" y="311"/>
      <point x="47" y="259"/>
      <point x="47" y="179" type="curve" smooth="yes"/>
      <point x="47" y="59"/>
      <point x="151" y="-19.9999"/>
      <point x="309" y="-19.9999" type="curve" smooth="yes"/>
      <point x="385.609" y="-19.9999"/>
      <point x="458.726" y="-1.67019"/>
      <point x="525.906" y="43.9586" type="curve"/>
      <point x="593" y="-19.9999" type="line"/>
      <point x="769" y="49" type="line"/>
      <point x="642.618" y="156.628" type="line"/>
      <point x="678.623" y="205.303"/>
      <point x="710.267" y="264.317"/>
      <point x="736" y="336" type="curve"/>
      <point x="576" y="383" type="line"/>
      <point x="565.241" y="332.789"/>
      <point x="552.069" y="289.814"/>
      <point x="535.765" y="254.795" type="curve"/>
      <point x="425.281" y="358.41" type="line"/>
      <point x="503.502" y="412.934"/>
      <point x="553" y="468.267"/>
      <point x="553" y="551" type="curve" smooth="yes"/>
      <point x="553" y="644"/>
      <point x="470" y="716"/>
      <point x="319" y="716" type="curve" smooth="yes"/>
    </contour>
    <contour>
      <point x="430.736" y="133.766" type="line"/>
      <point x="405.975" y="121.721"/>
      <point x="378.133" y="116"/>
      <point x="346" y="116" type="curve" smooth="yes"/>
      <point x="289" y="116"/>
      <point x="256" y="147"/>
      <point x="256" y="191" type="curve" smooth="yes"/>
      <point x="256" y="220"/>
      <point x="266" y="244"/>
      <point x="292.279" y="265.502" type="curve"/>
    </contour>
    <contour>
      <point x="350" y="593"/>
      <point x="365" y="574"/>
      <point x="365" y="547" type="curve" smooth="yes"/>
      <point x="365" y="511.558"/>
      <point x="353.044" y="487.325"/>
      <point x="318.15" y="460.735" type="curve"/>
      <point x="279.177" y="500.996"/>
      <point x="274" y="517.061"/>
      <point x="274" y="542" type="curve" smooth="yes"/>
      <point x="274" y="574"/>
      <point x="293" y="593"/>
      <point x="322" y="593" type="curve" smooth="yes"/>
    </contour>
  </outline>
</glyph>
<glyph name="three" format="1">
  <advance width="532"/>
  <unicode hex="0033"/>
  <outline>
    <contour>
      <point x="147" y="696"/>
      <point x="63" y="662"/>
      <point x="-3" y="598" type="curve"/>
      <point x="94" y="496" type="line"/>
      <point x="131" y="532"/>
      <point x="174" y="553"/>
      <point x="222" y="553" type="curve" smooth="yes"/>
      <point x="269" y="553"/>
      <point x="299" y="531"/>
      <point x="299" y="490" type="curve" smooth="yes"/>
      <point x="299" y="448"/>
      <point x="272" y="421"/>
      <point x="216" y="421" type="curve" smooth="yes"/>
      <point x="175" y="421" type="line"/>
      <point x="153" y="289" type="line"/>
      <point x="213" y="289" type="line" smooth="yes"/>
      <point x="279" y="289"/>
      <point x="310" y="263"/>
      <point x="310" y="206" type="curve" smooth="yes"/>
      <point x="310" y="154"/>
      <point x="271" y="128"/>
      <point x="222" y="128" type="curve" smooth="yes"/>
      <point x="171" y="128"/>
      <point x="132" y="147"/>
      <point x="91" y="193" type="curve"/>
      <point x="-15" y="90" type="line"/>
      <point x="39" y="24"/>
      <point x="120" y="-20"/>
      <point x="236" y="-20" type="curve" smooth="yes"/>
      <point x="420" y="-20"/>
      <point x="512" y="79"/>
      <point x="512" y="189" type="curve" smooth="yes"/>
      <point x="512" y="301"/>
      <point x="439" y="349"/>
      <point x="355" y="359" type="curve"/>
      <point x="443" y="386"/>
      <point x="489" y="443"/>
      <point x="489" y="524" type="curve" smooth="yes"/>
      <point x="489" y="622"/>
      <point x="405" y="696"/>
      <point x="247" y="696" type="curve" smooth="yes"/>
    </contour>
  </outline>
</glyph>
<glyph name="greater" format="1">
  <advance width="530"/>
  <unicode hex="003E"/>
  <outline>
    <contour>
      <point x="25" y="459" type="line"/>
      <point x="334" y="333" type="line"/>
      <point x="25" y="215" type="line"/>
      <point x="85" y="75" type="line"/>
      <point x="505" y="249" type="line"/>
      <point x="505" y="416" type="line"/>
      <point x="85" y="591" type="line"/>
    </contour>
  </outline>
</glyph>
<glyph name="at" format="1">
  <advance width="1020"/>
  <unicode hex="0040"/>
  <outline>
    <contour>
      <point x="245" y="716"/>
      <point x="35" y="522"/>
      <point x="35" y="243" type="curve" smooth="yes"/>
      <point x="35" y="-44"/>
      <point x="224" y="-227"/>
      <point x="527" y="-227" type="curve" smooth="yes"/>
      <point x="607" y="-227"/>
      <point x="711" y="-208"/>
      <point x="772" y="-183" type="curve"/>
      <point x="727" y="-51" type="line"/>
      <point x="677" y="-70"/>
      <point x="593" y="-86"/>
      <point x="528" y="-86" type="curve" smooth="yes"/>
      <point x="316" y="-86"/>
      <point x="208" y="35"/>
      <point x="208" y="244" type="curve" smooth="yes"/>
      <point x="208" y="444"/>
      <point x="317" y="577"/>
      <point x="526" y="577" type="curve" smooth="yes"/>
      <point x="729" y="577"/>
      <point x="814" y="482"/>
      <point x="814" y="319" type="curve" smooth="yes"/>
      <point x="814" y="154"/>
      <point x="781" y="116"/>
      <point x="745" y="116" type="curve" smooth="yes"/>
      <point x="716" y="116"/>
      <point x="711" y="140"/>
      <point x="711" y="222" type="curve"/>
      <point x="616" y="128" type="line"/>
      <point x="612" y="71"/>
      <point x="663" y="1"/>
      <point x="754" y="1" type="curve" smooth="yes"/>
      <point x="885" y="1"/>
      <point x="985" y="129"/>
      <point x="985" y="321" type="curve" smooth="yes"/>
      <point x="985" y="524"/>
      <point x="815" y="716"/>
      <point x="527" y="716" type="curve" smooth="yes"/>
    </contour>
    <contour>
      <point x="366" y="509"/>
      <point x="286" y="393"/>
      <point x="286" y="234" type="curve" smooth="yes"/>
      <point x="286" y="107"/>
      <point x="335" y="6"/>
      <point x="475" y="6" type="curve" smooth="yes"/>
      <point x="549" y="6"/>
      <point x="600" y="49"/>
      <point x="624" y="118" type="curve"/>
      <point x="553" y="170" type="line"/>
      <point x="545" y="142"/>
      <point x="525" y="125"/>
      <point x="501" y="125" type="curve" smooth="yes"/>
      <point x="471" y="125"/>
      <point x="460" y="146"/>
      <point x="460" y="233" type="curve" smooth="yes"/>
      <point x="460" y="361"/>
      <point x="487" y="389"/>
      <point x="517" y="389" type="curve" smooth="yes"/>
      <point x="527" y="389"/>
      <point x="534" y="388"/>
      <point x="546" y="383" type="curve"/>
      <point x="546" y="147" type="line"/>
      <point x="631" y="108" type="line"/>
      <point x="711" y="173" type="line"/>
      <point x="711" y="461" type="line"/>
      <point x="657" y="491"/>
      <point x="584" y="509"/>
      <point x="528" y="509" type="curve" smooth="yes"/>
    </contour>
  </outline>
</glyph>
<glyph name="A" format="1">
  <advance width="601"/>
  <unicode hex="0041"/>
  <outline>
    <contour>
      <point x="178" y="696" type="line"/>
      <point x="-25" y="0" type="line"/>
      <point x="190" y="0" type="line"/>
      <point x="298" y="552" type="line"/>
      <point x="408" y="0" type="line"/>
      <point x="626" y="0" type="line"/>
      <point x="424" y="696" type="line"/>
    </contour>
    <contour>
      <point x="229" y="279" type="line"/>
      <point x="200" y="135" type="line"/>
      <point x="397" y="135" type="line"/>
      <point x="368" y="279" type="line"/>
    </contour>
    <contour>
      <point x="526" y="0" type="move" name="ogonek"/>
    </contour>
    <contour>
      <point x="301" y="696" type="move" name="top"/>
    </contour>
    <contour>
      <point x="150" y="696" type="move" name="topleft"/>
    </contour>
  </outline>
</glyph>
<glyph name="B" format="1">
  <advance width="622"/>
  <unicode hex="0042"/>
  <outline>
    <contour>
      <point x="43" y="696" type="line"/>
      <point x="43" y="0" type="line"/>
      <point x="287" y="0" type="line" smooth="yes"/>
      <point x="470" y="0"/>
      <point x="607" y="41"/>
      <point x="607" y="206" type="curve" smooth="yes"/>
      <point x="607" y="315"/>
      <point x="528" y="353"/>
      <point x="452" y="369" type="curve"/>
      <point x="514" y="385"/>
      <point x="578" y="426"/>
      <point x="578" y="516" type="curve" smooth="yes"/>
      <point x="578" y="652"/>
      <point x="455" y="696"/>
      <point x="260" y="696" type="curve" smooth="yes"/>
    </contour>
    <contour>
      <point x="345" y="555"/>
      <point x="369" y="536"/>
      <point x="369" y="495" type="curve"/>
      <point x="369" y="446"/>
      <point x="347" y="427"/>
      <point x="284" y="427" type="curve" smooth="yes"/>
      <point x="233" y="427" type="line"/>
      <point x="233" y="297" type="line"/>
      <point x="297" y="297" type="line" smooth="yes"/>
      <point x="361" y="297"/>
      <point x="395" y="274"/>
      <point x="395" y="220" type="curve" smooth="yes"/>
      <point x="395" y="158"/>
      <point x="352" y="145"/>
      <point x="289" y="145" type="curve" smooth="yes"/>
      <point x="249" y="145" type="line"/>
      <point x="249" y="555" type="line"/>
      <point x="279" y="555" type="line" smooth="yes"/>
    </contour>
  </outline>
</glyph>
<glyph name="C" format="1">
  <advance width="584"/>
  <unicode hex="0043"/>
  <outline>
    <contour>
      <point x="156" y="716"/>
      <point x="20" y="582"/>
      <point x="20" y="350" type="curve" smooth="yes"/>
      <point x="20" y="109"/>
      <point x="151" y="-20"/>
      <point x="354" y="-20" type="curve" smooth="yes"/>
      <point x="452" y="-20"/>
      <point x="533" y="26"/>
      <point x="584" y="77" type="curve"/>
      <point x="494" y="193" type="line"/>
      <point x="453" y="161"/>
      <point x="415" y="135"/>
      <point x="366" y="135" type="curve" smooth="yes"/>
      <point x="283" y="135"/>
      <point x="234" y="203"/>
      <point x="234" y="350" type="curve" smooth="yes"/>
      <point x="234" y="497"/>
      <point x="282" y="568"/>
      <point x="360" y="568" type="curve" smooth="yes"/>
      <point x="408" y="568"/>
      <point x="445" y="549"/>
      <point x="478" y="519" type="curve"/>
      <point x="576" y="634" type="line"/>
      <point x="517" y="685"/>
      <point x="445" y="716"/>
      <point x="348" y="716" type="curve" smooth="yes"/>
    </contour>
    <contour>
      <point x="358" y="696" type="move" name="top"/>
    </contour>
    <contour>
      <point x="339" y="0" type="move" name="bottom"/>
    </contour>
  </outline>
</glyph>
<glyph name="D" format="1">
  <advance width="656"/>
  <unicode hex="0044"/>
  <outline>
    <contour>
      <point x="43" y="696" type="line"/>
      <point x="43" y="0" type="line"/>
      <point x="278" y="0" type="line" smooth="yes"/>
      <point x="472" y="0"/>
      <point x="636" y="73"/>
      <point x="636" y="351" type="curve" smooth="yes"/>
      <point x="636" y="637"/>
      <point x="457" y="696"/>
      <point x="266" y="696" type="curve" smooth="yes"/>
    </contour>
    <contour>
      <point x="379" y="551"/>
      <point x="424" y="509"/>
      <point x="424" y="351" type="curve" smooth="yes"/>
      <point x="424" y="193"/>
      <point x="383" y="145"/>
      <point x="290" y="145" type="curve" smooth="yes"/>
      <point x="249" y="145" type="line"/>
      <point x="249" y="551" type="line"/>
      <point x="291" y="551" type="line" smooth="yes"/>
    </contour>
    <contour>
      <point x="328" y="348" type="move" name="center"/>
    </contour>
    <contour>
      <point x="291" y="696" type="move" name="top"/>
    </contour>
  </outline>
</glyph>
<glyph name="F" format="1">
  <advance width="485"/>
  <unicode hex="0046"/>
  <outline>
    <contour>
      <point x="43" y="696" type="line" smooth="yes"/>
      <point x="43" y="0" type="line" smooth="yes"/>
      <point x="249" y="0" type="line" smooth="yes"/>
      <point x="249" y="258" type="line" smooth="yes"/>
      <point x="438" y="258" type="line" smooth="yes"/>
      <point x="438" y="401" type="line" smooth="yes"/>
      <point x="249" y="401" type="line" smooth="yes"/>
      <point x="249" y="553" type="line" smooth="yes"/>
      <point x="464" y="553" type="line" smooth="yes"/>
      <point x="485" y="696" type="line" smooth="yes"/>
    </contour>
  </outline>
</glyph>
<glyph name="J" format="1">
  <advance width="325"/>
  <unicode hex="004A"/>
  <outline>
    <contour>
      <point x="78" y="696" type="line"/>
      <point x="78" y="118" type="line" smooth="yes"/>
      <point x="78" y="41"/>
      <point x="69" y="-10"/>
      <point x="-20" y="-44" type="curve"/>
      <point x="35" y="-189" type="line"/>
      <point x="156" y="-149"/>
      <point x="284" y="-83"/>
      <point x="284" y="111" type="curve" smooth="yes"/>
      <point x="284" y="696" type="line"/>
    </contour>
    <contour>
      <point x="181" y="696" type="move" name="top"/>
    </contour>
  </outline>
</glyph>
<glyph name="K" format="1">
  <advance width="659"/>
  <unicode hex="004B"/>
  <outline>
    <contour>
      <point x="449" y="696" type="line"/>
      <point x="255" y="371" type="line"/>
      <point x="445" y="0" type="line"/>
      <point x="679" y="0" type="line"/>
      <point x="464" y="387" type="line"/>
      <point x="661" y="696" type="line"/>
    </contour>
    <contour>
      <point x="43" y="696" type="line"/>
      <point x="43" y="0" type="line"/>
      <point x="249" y="0" type="line"/>
      <point x="249" y="696" type="line"/>
    </contour>
    <contour>
      <point x="330" y="696" type="move" name="top"/>
    </contour>
    <contour>
      <point x="330" y="0" type="move" name="bottom"/>
    </contour>
  </outline>
</glyph>
<glyph name="M" format="1">
  <advance width="791"/>
  <unicode hex="004D"/>
  <outline>
    <contour>
      <point x="471" y="696" type="line"/>
      <point x="399" y="245" type="line"/>
      <point x="319" y="696" type="line"/>
      <point x="65" y="696" type="line"/>
      <point x="15" y="0" type="line"/>
      <point x="218" y="0" type="line"/>
      <point x="223" y="248" type="line" smooth="yes"/>
      <point x="225" y="342"/>
      <point x="221" y="416"/>
      <point x="210" y="531" type="curve"/>
      <point x="298" y="70" type="line"/>
      <point x="493" y="70" type="line"/>
      <point x="575" y="531" type="line"/>
      <point x="566" y="427"/>
      <point x="566" y="337"/>
      <point x="568" y="247" type="curve" smooth="yes"/>
      <point x="573" y="0" type="line"/>
      <point x="776" y="0" type="line"/>
      <point x="726" y="696" type="line"/>
    </contour>
  </outline>
</glyph>
<glyph name="N" format="1">
  <advance width="651"/>
  <unicode hex="004E"/>
  <outline>
    <contour>
      <point x="426" y="696" type="line"/>
      <point x="426" y="473" type="line" smooth="yes"/>
      <point x="426" y="347"/>
      <point x="441" y="267"/>
      <point x="454" y="186" type="curve"/>
      <point x="296" y="696" type="line"/>
      <point x="43" y="696" type="line"/>
      <point x="43" y="0" type="line"/>
      <point x="225" y="0" type="line"/>
      <point x="225" y="216" type="line" smooth="yes"/>
      <point x="225" y="345"/>
      <point x="208" y="441"/>
      <point x="198" y="508" type="curve"/>
      <point x="350" y="0" type="line"/>
      <point x="608" y="0" type="line"/>
      <point x="608" y="696" type="line"/>
    </contour>
    <contour>
      <point x="326" y="696" type="move" name="top"/>
    </contour>
    <contour>
      <point x="326" y="0" type="move" name="bottom"/>
    </contour>
  </outline>
</glyph>
<glyph name="O" format="1">
  <advance width="690"/>
  <unicode hex="004F"/>
  <outline>
    <contour>
      <point x="136" y="716"/>
      <point x="20" y="575"/>
      <point x="20" y="349" type="curve" smooth="yes"/>
      <point x="20" y="118"/>
      <point x="136" y="-20"/>
      <point x="345" y="-20" type="curve" smooth="yes"/>
      <point x="554" y="-20"/>
      <point x="670" y="123"/>
      <point x="670" y="349" type="curve" smooth="yes"/>
      <point x="670" y="580"/>
      <point x="554" y="716"/>
      <point x="345" y="716" type="curve" smooth="yes"/>
    </contour>
    <contour>
      <point x="423" y="570"/>
      <point x="456" y="510"/>
      <point x="456" y="349" type="curve" smooth="yes"/>
      <point x="456" y="188"/>
      <point x="425" y="126"/>
      <point x="345" y="126" type="curve" smooth="yes"/>
      <point x="267" y="126"/>
      <point x="234" y="188"/>
      <point x="234" y="349" type="curve" smooth="yes"/>
      <point x="234" y="510"/>
      <point x="267" y="570"/>
      <point x="345" y="570" type="curve" smooth="yes"/>
    </contour>
    <contour>
      <point x="345" y="696" type="move" name="top"/>
    </contour>
    <contour>
      <point x="103" y="696" type="move" name="topleft"/>
    </contour>
  </outline>
</glyph>
<glyph name="P" format="1">
  <advance width="611"/>
  <unicode hex="0050"/>
  <outline>
    <contour>
      <point x="249" y="553" type="line"/>
      <point x="291" y="553" type="line" smooth="yes"/>
      <point x="359" y="553"/>
      <point x="386" y="519"/>
      <point x="386" y="462" type="curve" smooth="yes"/>
      <point x="386" y="394"/>
      <point x="355" y="362"/>
      <point x="297" y="362" type="curve" smooth="yes"/>
      <point x="233" y="362" type="line"/>
      <point x="233" y="217" type="line"/>
      <point x="317" y="217" type="line" smooth="yes"/>
      <point x="482" y="217"/>
      <point x="596" y="299"/>
      <point x="596" y="462" type="curve" smooth="yes"/>
      <point x="596" y="618"/>
      <point x="481" y="696"/>
      <point x="294" y="696" type="curve" smooth="yes"/>
      <point x="43" y="696" type="line"/>
      <point x="43" y="0" type="line"/>
      <point x="249" y="0" type="line"/>
    </contour>
  </outline>
</glyph>
<glyph name="Q" format="1">
  <advance width="690"/>
  <unicode hex="0051"/>
  <outline>
    <contour>
      <point x="136" y="716"/>
      <point x="20" y="575"/>
      <point x="20" y="349" type="curve" smooth="yes"/>
      <point x="20" y="118"/>
      <point x="136" y="-16"/>
      <point x="330" y="-16" type="curve" smooth="yes"/>
      <point x="356" y="-16"/>
      <point x="381" y="-14"/>
      <point x="404" y="-10" type="curve"/>
      <point x="504" y="48" type="line"/>
      <point x="582" y="94"/>
      <point x="670" y="182"/>
      <point x="670" y="349" type="curve" smooth="yes"/>
      <point x="670" y="580"/>
      <point x="554" y="716"/>
      <point x="345" y="716" type="curve" smooth="yes"/>
    </contour>
    <contour>
      <point x="330" y="-16" type="line"/>
      <point x="462" y="-16"/>
      <point x="543" y="-100"/>
      <point x="599" y="-173" type="curve"/>
      <point x="720" y="-15" type="line"/>
      <point x="661" y="29"/>
      <point x="601" y="48"/>
      <point x="504" y="48" type="curve"/>
    </contour>
    <contour>
      <point x="423" y="570"/>
      <point x="456" y="510"/>
      <point x="456" y="349" type="curve" smooth="yes"/>
      <point x="456" y="188"/>
      <point x="425" y="126"/>
      <point x="345" y="126" type="curve" smooth="yes"/>
      <point x="267" y="126"/>
      <point x="234" y="188"/>
      <point x="234" y="349" type="curve" smooth="yes"/>
      <point x="234" y="510"/>
      <point x="267" y="570"/>
      <point x="345" y="570" type="curve" smooth="yes"/>
    </contour>
  </outline>
</glyph>
<glyph name="S" format="1">
  <advance width="588"/>
  <unicode hex="0053"/>
  <outline>
    <contour>
      <point x="145" y="716"/>
      <point x="29" y="635"/>
      <point x="29" y="503" type="curve" smooth="yes"/>
      <point x="29" y="402"/>
      <point x="78" y="331"/>
      <point x="246" y="278" type="curve" smooth="yes"/>
      <point x="337" y="250"/>
      <point x="359" y="232"/>
      <point x="359" y="191" type="curve" smooth="yes"/>
      <point x="359" y="155"/>
      <point x="332" y="128"/>
      <point x="272" y="128" type="curve" smooth="yes"/>
      <point x="207" y="128"/>
      <point x="151" y="153"/>
      <point x="101" y="196" type="curve"/>
      <point x="0" y="85" type="line"/>
      <point x="57" y="30"/>
      <point x="147" y="-20"/>
      <point x="280" y="-20" type="curve" smooth="yes"/>
      <point x="463" y="-20"/>
      <point x="573" y="74"/>
      <point x="573" y="208" type="curve" smooth="yes"/>
      <point x="573" y="333"/>
      <point x="509" y="395"/>
      <point x="366" y="441" type="curve" smooth="yes"/>
      <point x="267" y="473"/>
      <point x="241" y="484"/>
      <point x="241" y="520" type="curve" smooth="yes"/>
      <point x="241" y="551"/>
      <point x="266" y="570"/>
      <point x="316" y="570" type="curve" smooth="yes"/>
      <point x="371" y="570"/>
      <point x="419" y="551"/>
      <point x="465" y="514" type="curve"/>
      <point x="556" y="621" type="line"/>
      <point x="493" y="682"/>
      <point x="411" y="716"/>
      <point x="299" y="716" type="curve" smooth="yes"/>
    </contour>
    <contour>
      <point x="307" y="696" type="move" name="top"/>
    </contour>
    <contour>
      <point x="293" y="0" type="move" name="bottom"/>
    </contour>
  </outline>
</glyph>
<glyph name="U" format="1">
  <advance width="644"/>
  <unicode hex="0055"/>
  <outline>
    <contour>
      <point x="405" y="696" type="line"/>
      <point x="405" y="242" type="line" smooth="yes"/>
      <point x="405" y="165"/>
      <point x="382" y="128"/>
      <point x="322" y="128" type="curve" smooth="yes"/>
      <point x="262" y="128"/>
      <point x="239" y="165"/>
      <point x="239" y="242" type="curve" smooth="yes"/>
      <point x="239" y="696" type="line"/>
      <point x="33" y="696" type="line"/>
      <point x="33" y="236" type="line" smooth="yes"/>
      <point x="33" y="84"/>
      <point x="126" y="-20"/>
      <point x="322" y="-20" type="curve" smooth="yes"/>
      <point x="518" y="-20"/>
      <point x="611" y="94"/>
      <point x="611" y="236" type="curve" smooth="yes"/>
      <point x="611" y="696" type="line"/>
    </contour>
    <contour>
      <point x="460" y="0" type="move" name="ogonek"/>
    </contour>
    <contour>
      <point x="322" y="696" type="move" name="top"/>
    </contour>
  </outline>
</glyph>
<glyph name="V" format="1">
  <advance width="579"/>
  <unicode hex="0056"/>
  <outline>
    <contour>
      <point x="393" y="696" type="line"/>
      <point x="298" y="143" type="line"/>
      <point x="192" y="696" type="line"/>
      <point x="-25" y="696" type="line"/>
      <point x="162" y="0" type="line"/>
      <point x="428" y="0" type="line"/>
      <point x="604" y="696" type="line"/>
    </contour>
  </outline>
</glyph>
<glyph name="Y" format="1">
  <advance width="620"/>
  <unicode hex="0059"/>
  <outline>
    <contour>
      <point x="417" y="696" type="line"/>
      <point x="313" y="412" type="line"/>
      <point x="210" y="696" type="line"/>
      <point x="-15" y="696" type="line"/>
      <point x="207" y="256" type="line"/>
      <point x="207" y="0" type="line"/>
      <point x="413" y="0" type="line"/>
      <point x="413" y="257" type="line"/>
      <point x="635" y="696" type="line"/>
    </contour>
    <contour>
      <point x="310" y="696" type="move" name="top"/>
    </contour>
    <contour>
      <point x="-10" y="696" type="move" name="topleft"/>
    </contour>
  </outline>
</glyph>
<glyph name="bracketright" format="1">
  <advance width="325"/>
  <unicode hex="005D"/>
  <outline>
    <contour>
      <point x="10" y="827" type="line"/>
      <point x="10" y="685" type="line"/>
      <point x="122" y="685" type="line"/>
      <point x="122" y="16" type="line"/>
      <point x="10" y="16" type="line"/>
      <point x="10" y="-127" type="line"/>
      <point x="310" y="-127" type="line"/>
      <point x="310" y="827" type="line"/>
    </contour>
  </outline>
</glyph>
<glyph name="underscore" format="1">
  <advance width="520"/>
  <unicode hex="005F"/>
  <outline>
    <contour>
      <point x="515" y="-188" type="line"/>
      <point x="515" y="-38" type="line"/>
      <point x="5" y="-38" type="line"/>
      <point x="5" y="-188" type="line"/>
    </contour>
  </outline>
</glyph>
<glyph name="a" format="1">
  <advance width="551"/>
  <unicode hex="0061"/>
  <outline>
    <contour>
      <point x="203" y="554"/>
      <point x="120" y="539"/>
      <point x="53" y="512" type="curve"/>
      <point x="96" y="386" type="line"/>
      <point x="149" y="404"/>
      <point x="203" y="414"/>
      <point x="234" y="414" type="curve" smooth="yes"/>
      <point x="293" y="414"/>
      <point x="311" y="400"/>
      <point x="311" y="346" type="curve"/>
      <point x="311" y="138" type="line"/>
      <point x="345" y="71" type="line"/>
      <point x="375" y="10"/>
      <point x="422" y="-11"/>
      <point x="496" y="-16" type="curve"/>
      <point x="536" y="111" type="line"/>
      <point x="512" y="120"/>
      <point x="504" y="135"/>
      <point x="504" y="173" type="curve" smooth="yes"/>
      <point x="504" y="357" type="line" smooth="yes"/>
      <point x="504" y="489"/>
      <point x="434" y="554"/>
      <point x="264" y="554" type="curve" smooth="yes"/>
    </contour>
    <contour>
      <point x="273" y="333" type="line" smooth="yes"/>
      <point x="105" y="333"/>
      <point x="15" y="268"/>
      <point x="15" y="150" type="curve" smooth="yes"/>
      <point x="15" y="51"/>
      <point x="84" y="-20"/>
      <point x="191" y="-20" type="curve" smooth="yes"/>
      <point x="258" y="-20"/>
      <point x="324" y="3"/>
      <point x="362" y="75" type="curve"/>
      <point x="318" y="164" type="line"/>
      <point x="307" y="139"/>
      <point x="282" y="119"/>
      <point x="252" y="119" type="curve" smooth="yes"/>
      <point x="225" y="119"/>
      <point x="208" y="139"/>
      <point x="208" y="169" type="curve" smooth="yes"/>
      <point x="208" y="211"/>
      <point x="234" y="230"/>
      <point x="290" y="230" type="curve" smooth="yes"/>
      <point x="337" y="230" type="line"/>
      <point x="337" y="333" type="line"/>
    </contour>
    <contour>
      <point x="506" y="-16" type="move" name="ogonek"/>
    </contour>
    <contour>
      <point x="277" y="0" type="move" name="bottom"/>
    </contour>
    <contour>
      <point x="277" y="534" type="move" name="top"/>
    </contour>
  </outline>
</glyph>
<glyph name="c" format="1">
  <advance width="479"/>
  <unicode hex="0063"/>
  <outline>
    <contour>
      <point x="126" y="554"/>
      <point x="17" y="432"/>
      <point x="17" y="263" type="curve" smooth="yes"/>
      <point x="17" y="96"/>
      <point x="124" y="-20"/>
      <point x="300" y="-20" type="curve" smooth="yes"/>
      <point x="380" y="-20"/>
      <point x="440" y="6"/>
      <point x="489" y="46" type="curve"/>
      <point x="401" y="170" type="line"/>
      <point x="367" y="144"/>
      <point x="344" y="133"/>
      <point x="311" y="133" type="curve" smooth="yes"/>
      <point x="260" y="133"/>
      <point x="223" y="156"/>
      <point x="223" y="263" type="curve" smooth="yes"/>
      <point x="223" y="371"/>
      <point x="255" y="405"/>
      <point x="313" y="405" type="curve" smooth="yes"/>
      <point x="345" y="405"/>
      <point x="375" y="394"/>
      <point x="407" y="368" type="curve"/>
      <point x="489" y="483" type="line"/>
      <point x="438" y="528"/>
      <point x="377" y="554"/>
      <point x="295" y="554" type="curve" smooth="yes"/>
    </contour>
    <contour>
      <point x="292" y="534" type="move" name="top"/>
    </contour>
    <contour>
      <point x="277" y="0" type="move" name="bottom"/>
    </contour>
  </outline>
</glyph>
<glyph name="e" format="1">
  <advance width="557"/>
  <unicode hex="0065"/>
  <outline>
    <contour>
      <point x="106" y="554"/>
      <point x="17" y="422"/>
      <point x="17" y="266" type="curve" smooth="yes"/>
      <point x="17" y="101"/>
      <point x="109" y="-20"/>
      <point x="305" y="-20" type="curve" smooth="yes"/>
      <point x="398" y="-20"/>
      <point x="472" y="16"/>
      <point x="525" y="59" type="curve"/>
      <point x="445" y="167" type="line"/>
      <point x="399" y="135"/>
      <point x="362" y="120"/>
      <point x="324" y="120" type="curve" smooth="yes"/>
      <point x="255" y="120"/>
      <point x="214" y="140"/>
      <point x="214" y="263" type="curve" smooth="yes"/>
      <point x="214" y="393"/>
      <point x="236" y="429"/>
      <point x="287" y="429" type="curve" smooth="yes"/>
      <point x="338" y="429"/>
      <point x="349" y="384"/>
      <point x="350" y="330" type="curve" smooth="yes"/>
      <point x="350" y="328"/>
      <point x="350" y="325"/>
      <point x="350" y="323" type="curve"/>
      <point x="199" y="323" type="line"/>
      <point x="201" y="211" type="line"/>
      <point x="541" y="211" type="line"/>
      <point x="543" y="230"/>
      <point x="545" y="257"/>
      <point x="545" y="274" type="curve" smooth="yes"/>
      <point x="545" y="453"/>
      <point x="441" y="554"/>
      <point x="283" y="554" type="curve" smooth="yes"/>
    </contour>
    <contour>
      <point x="455" y="11" type="move" name="ogonek"/>
    </contour>
    <contour>
      <point x="294" y="0" type="move" name="bottom"/>
    </contour>
    <contour>
      <point x="285" y="534" type="move" name="top"/>
    </contour>
  </outline>
</glyph>
<glyph name="g" format="1">
  <advance width="570"/>
  <unicode hex="0067"/>
  <outline>
    <contour>
      <point x="461" y="591"/>
      <point x="382" y="550"/>
      <point x="271" y="554" type="curve"/>
      <point x="119" y="554"/>
      <point x="20" y="481"/>
      <point x="20" y="353" type="curve" smooth="yes"/>
      <point x="20" y="284"/>
      <point x="47" y="236"/>
      <point x="120" y="197" type="curve"/>
      <point x="81" y="174"/>
      <point x="52" y="132"/>
      <point x="52" y="90" type="curve" smooth="yes"/>
      <point x="52" y="31"/>
      <point x="102" y="-17"/>
      <point x="232" y="-17" type="curve" smooth="yes"/>
      <point x="306" y="-17" type="line" smooth="yes"/>
      <point x="350" y="-17"/>
      <point x="363" y="-37"/>
      <point x="363" y="-56" type="curve" smooth="yes"/>
      <point x="363" y="-78"/>
      <point x="352" y="-102"/>
      <point x="272" y="-102" type="curve" smooth="yes"/>
      <point x="188" y="-102"/>
      <point x="172" y="-88"/>
      <point x="172" y="-49" type="curve"/>
      <point x="-5" y="-49" type="line"/>
      <point x="-5" y="-153"/>
      <point x="47" y="-227"/>
      <point x="266" y="-227" type="curve" smooth="yes"/>
      <point x="459" y="-227"/>
      <point x="562" y="-155"/>
      <point x="562" y="-42" type="curve" smooth="yes"/>
      <point x="562" y="51"/>
      <point x="479" y="117"/>
      <point x="345" y="117" type="curve" smooth="yes"/>
      <point x="268" y="117" type="line" smooth="yes"/>
      <point x="219" y="117"/>
      <point x="216" y="132"/>
      <point x="216" y="142" type="curve" smooth="yes"/>
      <point x="216" y="150"/>
      <point x="220" y="157"/>
      <point x="228" y="161" type="curve"/>
      <point x="246" y="158"/>
      <point x="264" y="158"/>
      <point x="285" y="158" type="curve" smooth="yes"/>
      <point x="431" y="158"/>
      <point x="522" y="233"/>
      <point x="522" y="334" type="curve" smooth="yes"/>
      <point x="522" y="408"/>
      <point x="488" y="445"/>
      <point x="418" y="474" type="curve"/>
      <point x="488" y="474"/>
      <point x="537" y="483"/>
      <point x="570" y="498" type="curve"/>
      <point x="527" y="636" type="line"/>
    </contour>
    <contour>
      <point x="318" y="426"/>
      <point x="338" y="407"/>
      <point x="338" y="360" type="curve" smooth="yes"/>
      <point x="338" y="308"/>
      <point x="317" y="284"/>
      <point x="277" y="284" type="curve" smooth="yes"/>
      <point x="243" y="284"/>
      <point x="216" y="306"/>
      <point x="216" y="357" type="curve" smooth="yes"/>
      <point x="216" y="403"/>
      <point x="242" y="426"/>
      <point x="277" y="426" type="curve" smooth="yes"/>
    </contour>
    <contour>
      <point x="286" y="534" type="move" name="top"/>
    </contour>
  </outline>
</glyph>
<glyph name="h" format="1">
  <advance width="572"/>
  <unicode hex="0068"/>
  <outline>
    <contour>
      <point x="321" y="554"/>
      <point x="270" y="526"/>
      <point x="216" y="459" type="curve"/>
      <point x="240" y="357" type="line"/>
      <point x="263" y="393"/>
      <point x="286" y="410"/>
      <point x="307" y="410" type="curve" smooth="yes"/>
      <point x="325" y="410"/>
      <point x="337" y="400"/>
      <point x="337" y="358" type="curve"/>
      <point x="337" y="0" type="line"/>
      <point x="535" y="0" type="line"/>
      <point x="535" y="394" type="line" smooth="yes"/>
      <point x="535" y="496"/>
      <point x="480" y="554"/>
      <point x="391" y="554" type="curve" smooth="yes"/>
    </contour>
    <contour>
      <point x="42" y="744" type="line"/>
      <point x="42" y="0" type="line"/>
      <point x="240" y="0" type="line"/>
      <point x="240" y="764" type="line"/>
    </contour>
    <contour>
      <point x="286" y="267" type="move" name="center"/>
    </contour>
    <contour>
      <point x="286" y="744" type="move" name="top"/>
    </contour>
  </outline>
</glyph>
<glyph name="k" format="1">
  <advance width="576"/>
  <unicode hex="006B"/>
  <outline>
    <contour>
      <point x="387" y="534" type="line"/>
      <point x="244" y="292" type="line"/>
      <point x="372" y="0" type="line"/>
      <point x="591" y="0" type="line"/>
      <point x="442" y="300" type="line"/>
      <point x="583" y="534" type="line"/>
    </contour>
    <contour>
      <point x="42" y="744" type="line"/>
      <point x="42" y="0" type="line"/>
      <point x="240" y="0" type="line"/>
      <point x="240" y="764" type="line"/>
    </contour>
    <contour>
      <point x="288" y="0" type="move" name="bottom"/>
    </contour>
  </outline>
</glyph>
<glyph name="l" format="1">
  <advance width="300"/>
  <unicode hex="006C"/>
  <outline>
    <contour>
      <point x="37" y="744" type="line"/>
      <point x="37" y="151" type="line" smooth="yes"/>
      <point x="37" y="40"/>
      <point x="97" y="-20"/>
      <point x="199" y="-20" type="curve" smooth="yes"/>
      <point x="242" y="-20"/>
      <point x="287" y="-12"/>
      <point x="315" y="-2" type="curve"/>
      <point x="280" y="139" type="line"/>
      <point x="274" y="137"/>
      <point x="264" y="135"/>
      <point x="258" y="135" type="curve" smooth="yes"/>
      <point x="245" y="135"/>
      <point x="235" y="144"/>
      <point x="235" y="175" type="curve" smooth="yes"/>
      <point x="235" y="764" type="line"/>
    </contour>
    <contour>
      <point x="186" y="0" type="move" name="bottom"/>
    </contour>
    <contour>
      <point x="136" y="744" type="move" name="top"/>
    </contour>
    <contour>
      <point x="255" y="744" type="move" name="topright"/>
    </contour>
    <contour>
      <point x="392" y="373" type="move" name="center"/>
    </contour>
  </outline>
</glyph>
<glyph name="m" format="1">
  <advance width="837"/>
  <unicode hex="006D"/>
  <outline>
    <contour>
      <point x="314" y="554"/>
      <point x="263" y="527"/>
      <point x="216" y="464" type="curve"/>
      <point x="240" y="357" type="line"/>
      <point x="256" y="393"/>
      <point x="276" y="410"/>
      <point x="295" y="410" type="curve" smooth="yes"/>
      <point x="310" y="410"/>
      <point x="322" y="400"/>
      <point x="322" y="358" type="curve"/>
      <point x="322" y="0" type="line"/>
      <point x="520" y="0" type="line"/>
      <point x="520" y="394" type="line"/>
      <point x="514" y="447" type="line"/>
      <point x="498" y="516"/>
      <point x="449" y="554"/>
      <point x="384" y="554" type="curve" smooth="yes"/>
    </contour>
    <contour>
      <point x="42" y="534" type="line"/>
      <point x="42" y="0" type="line"/>
      <point x="240" y="0" type="line"/>
      <point x="240" y="435" type="line"/>
      <point x="215" y="534" type="line"/>
    </contour>
    <contour>
      <point x="594" y="554"/>
      <point x="543" y="528"/>
      <point x="496" y="466" type="curve"/>
      <point x="520" y="357" type="line"/>
      <point x="536" y="393"/>
      <point x="556" y="410"/>
      <point x="575" y="410" type="curve" smooth="yes"/>
      <point x="590" y="410"/>
      <point x="602" y="400"/>
      <point x="602" y="358" type="curve"/>
      <point x="602" y="0" type="line"/>
      <point x="800" y="0" type="line"/>
      <point x="800" y="394" type="line" smooth="yes"/>
      <point x="800" y="496"/>
      <point x="744" y="554"/>
      <point x="664" y="554" type="curve" smooth="yes"/>
    </contour>
  </outline>
</glyph>
<glyph name="o" format="1">
  <advance width="584"/>
  <unicode hex="006F"/>
  <outline>
    <contour>
      <point x="122" y="554"/>
      <point x="17" y="442"/>
      <point x="17" y="268" type="curve" smooth="yes"/>
      <point x="17" y="82"/>
      <point x="124" y="-20"/>
      <point x="292" y="-20" type="curve"/>
      <point x="462" y="-20"/>
      <point x="567" y="92"/>
      <point x="567" y="266" type="curve" smooth="yes"/>
      <point x="567" y="452"/>
      <point x="460" y="554"/>
      <point x="292" y="554" type="curve"/>
    </contour>
    <contour>
      <point x="342" y="412"/>
      <point x="364" y="372"/>
      <point x="364" y="266" type="curve" smooth="yes"/>
      <point x="364" y="165"/>
      <point x="342" y="122"/>
      <point x="292" y="122" type="curve"/>
      <point x="242" y="122"/>
      <point x="220" y="162"/>
      <point x="220" y="268" type="curve" smooth="yes"/>
      <point x="220" y="369"/>
      <point x="242" y="412"/>
      <point x="292" y="412" type="curve"/>
    </contour>
    <contour>
      <point x="292" y="534" type="move" name="top"/>
    </contour>
  </outline>
</glyph>
<glyph name="q" format="1">
  <advance width="596"/>
  <unicode hex="0071"/>
  <outline>
    <contour>
      <point x="356" y="-207" type="line"/>
      <point x="554" y="-227" type="line"/>
      <point x="554" y="534" type="line"/>
      <point x="381" y="534" type="line"/>
      <point x="372" y="496" type="line"/>
      <point x="356" y="458" type="line"/>
    </contour>
    <contour>
      <point x="103" y="554"/>
      <point x="17" y="436"/>
      <point x="17" y="270" type="curve" smooth="yes"/>
      <point x="17" y="94"/>
      <point x="81" y="-20"/>
      <point x="220" y="-20" type="curve" smooth="yes"/>
      <point x="304" y="-20"/>
      <point x="351" y="25"/>
      <point x="378" y="72" type="curve"/>
      <point x="366" y="188" type="line"/>
      <point x="345" y="142"/>
      <point x="318" y="122"/>
      <point x="289" y="122" type="curve" smooth="yes"/>
      <point x="251" y="122"/>
      <point x="220" y="140"/>
      <point x="220" y="268" type="curve" smooth="yes"/>
      <point x="220" y="376"/>
      <point x="254" y="413"/>
      <point x="298" y="413" type="curve" smooth="yes"/>
      <point x="328" y="413"/>
      <point x="345" y="396"/>
      <point x="369" y="368" type="curve"/>
      <point x="381" y="487" type="line"/>
      <point x="340" y="536"/>
      <point x="290" y="554"/>
      <point x="245" y="554" type="curve" smooth="yes"/>
    </contour>
  </outline>
</glyph>
<glyph name="u" format="1">
  <advance width="566"/>
  <unicode hex="0075"/>
  <outline>
    <contour>
      <point x="326" y="534" type="line"/>
      <point x="326" y="168" type="line"/>
      <point x="308" y="137"/>
      <point x="286" y="124"/>
      <point x="268" y="124" type="curve" smooth="yes"/>
      <point x="249" y="124"/>
      <point x="235" y="134"/>
      <point x="235" y="176" type="curve" smooth="yes"/>
      <point x="235" y="534" type="line"/>
      <point x="37" y="534" type="line"/>
      <point x="37" y="150" type="line" smooth="yes"/>
      <point x="37" y="48"/>
      <point x="82" y="-20"/>
      <point x="186" y="-20" type="curve" smooth="yes"/>
      <point x="253" y="-20"/>
      <point x="307" y="6"/>
      <point x="344" y="58" type="curve"/>
      <point x="351" y="0" type="line"/>
      <point x="524" y="0" type="line"/>
      <point x="524" y="534" type="line"/>
    </contour>
    <contour>
      <point x="534" y="0" type="move" name="ogonek"/>
    </contour>
    <contour>
      <point x="281" y="534" type="move" name="top"/>
    </contour>
  </outline>
</glyph>
<glyph name="z" format="1">
  <advance width="472"/>
  <unicode hex="007A"/>
  <outline>
    <contour>
      <point x="25" y="534" type="line"/>
      <point x="25" y="390" type="line"/>
      <point x="227" y="390" type="line"/>
      <point x="5" y="138" type="line"/>
      <point x="5" y="0" type="line"/>
      <point x="445" y="0" type="line"/>
      <point x="462" y="146" type="line"/>
      <point x="236" y="146" type="line"/>
      <point x="455" y="397" type="line"/>
      <point x="455" y="534" type="line"/>
    </contour>
    <contour>
      <point x="241" y="534" type="move" name="top"/>
    </contour>
    <contour>
      <point x="227" y="0" type="move" name="bottom"/>
    </contour>
  </outline>
</glyph>
<glyph name="asciitilde" format="1">
  <advance width="530"/>
  <unicode hex="007E"/>
  <outline>
    <contour>
      <point x="90" y="426"/>
      <point x="41" y="355"/>
      <point x="5" y="281" type="curve"/>
      <point x="108" y="226" type="line"/>
      <point x="124" y="257"/>
      <point x="136" y="281"/>
      <point x="173" y="281" type="curve" smooth="yes"/>
      <point x="226" y="281"/>
      <point x="253" y="221"/>
      <point x="350" y="221" type="curve" smooth="yes"/>
      <point x="440" y="221"/>
      <point x="489" y="292"/>
      <point x="525" y="366" type="curve"/>
      <point x="422" y="421" type="line"/>
      <point x="406" y="390"/>
      <point x="394" y="366"/>
      <point x="357" y="366" type="curve" smooth="yes"/>
      <point x="304" y="366"/>
      <point x="277" y="426"/>
      <point x="180" y="426" type="curve" smooth="yes"/>
    </contour>
  </outline>
</glyph>
<glyph name="dieresis" format="1">
  <advance width="499"/>
  <unicode hex="00A8"/>
  <outline>
    <contour>
      <point x="320" y="818"/>
      <point x="277" y="777"/>
      <point x="277" y="726" type="curve" smooth="yes"/>
      <point x="277" y="674"/>
      <point x="320" y="633"/>
      <point x="372" y="633" type="curve" smooth="yes"/>
      <point x="426" y="633"/>
      <point x="467" y="674"/>
      <point x="467" y="726" type="curve" smooth="yes"/>
      <point x="467" y="777"/>
      <point x="426" y="818"/>
      <point x="372" y="818" type="curve" smooth="yes"/>
    </contour>
    <contour>
      <point x="75" y="818"/>
      <point x="32" y="777"/>
      <point x="32" y="726" type="curve" smooth="yes"/>
      <point x="32" y="674"/>
      <point x="75" y="633"/>
      <point x="127" y="633" type="curve" smooth="yes"/>
      <point x="181" y="633"/>
      <point x="222" y="674"/>
      <point x="222" y="726" type="curve" smooth="yes"/>
      <point x="222" y="777"/>
      <point x="181" y="818"/>
      <point x="127" y="818" type="curve" smooth="yes"/>
    </contour>
    <contour>
      <point x="246" y="742" type="move" name="top"/>
    </contour>
    <contour>
      <point x="250" y="534" type="move" name="_top"/>
    </contour>
  </outline>
</glyph>
<glyph name="macron" format="1">
  <advance width="385"/>
  <unicode hex="00AF"/>
  <outline>
    <contour>
      <point x="355" y="782" type="line"/>
      <point x="30" y="782" type="line"/>
      <point x="30" y="648" type="line"/>
      <point x="355" y="648" type="line"/>
    </contour>
    <contour>
      <point x="193" y="534" type="move" name="_top"/>
    </contour>
  </outline>
</glyph>
<glyph name="ordmasculine" format="1">
  <advance width="500"/>
  <unicode hex="00BA"/>
  <outline>
    <contour>
      <point x="112" y="696"/>
      <point x="25" y="612"/>
      <point x="25" y="479" type="curve" smooth="yes"/>
      <point x="25" y="335"/>
      <point x="114" y="260"/>
      <point x="251" y="260" type="curve"/>
      <point x="390" y="260"/>
      <point x="476" y="344"/>
      <point x="476" y="477" type="curve" smooth="yes"/>
      <point x="476" y="621"/>
      <point x="387" y="696"/>
      <point x="250" y="696" type="curve"/>
    </contour>
    <contour>
      <point x="285" y="574"/>
      <point x="299" y="549"/>
      <point x="299" y="477" type="curve" smooth="yes"/>
      <point x="299" y="410"/>
      <point x="285" y="382"/>
      <point x="251" y="382" type="curve"/>
      <point x="216" y="382"/>
      <point x="202" y="407"/>
      <point x="202" y="479" type="curve" smooth="yes"/>
      <point x="202" y="546"/>
      <point x="216" y="574"/>
      <point x="250" y="574" type="curve"/>
    </contour>
    <component base="minus" xOffset="-15" yOffset="-257"/>
  </outline>
</glyph>
<glyph name="questiondown" format="1">
  <advance width="495"/>
  <unicode hex="00BF"/>
  <outline>
    <contour>
      <point x="356" y="-227"/>
      <point x="434" y="-181"/>
      <point x="490" y="-115" type="curve"/>
      <point x="367" y="-19" type="line"/>
      <point x="334" y="-54"/>
      <point x="298" y="-73"/>
      <point x="263" y="-73" type="curve" smooth="yes"/>
      <point x="230" y="-73"/>
      <point x="212" y="-59"/>
      <point x="212" y="-34" type="curve" smooth="yes"/>
      <point x="212" y="32"/>
      <point x="360" y="24"/>
      <point x="360" y="200" type="curve" smooth="yes"/>
      <point x="360" y="229" type="line"/>
      <point x="184" y="229" type="line"/>
      <point x="184" y="206" type="line" smooth="yes"/>
      <point x="184" y="105"/>
      <point x="5" y="111"/>
      <point x="5" y="-53" type="curve" smooth="yes"/>
      <point x="5" y="-147"/>
      <point x="83" y="-227"/>
      <point x="241" y="-227" type="curve" smooth="yes"/>
    </contour>
    <contour>
      <point x="328" y="312"/>
      <point x="374" y="359"/>
      <point x="374" y="415" type="curve" smooth="yes"/>
      <point x="374" y="471"/>
      <point x="328" y="518"/>
      <point x="271" y="518" type="curve" smooth="yes"/>
      <point x="214" y="518"/>
      <point x="168" y="471"/>
      <point x="168" y="415" type="curve" smooth="yes"/>
      <point x="168" y="359"/>
      <point x="214" y="312"/>
      <point x="271" y="312" type="curve" smooth="yes"/>
    </contour>
  </outline>
</glyph>
<glyph name="Eth" format="1">
  <advance width="671"/>
  <unicode hex="00D0"/>
  <outline>
    <contour>
      <point x="59" y="411" type="line"/>
      <point x="10" y="411" type="line"/>
      <point x="10" y="295" type="line"/>
      <point x="385" y="295" type="line"/>
      <point x="385" y="411" type="line"/>
    </contour>
    <component base="D" xOffset="15"/>
  </outline>
</glyph>
<glyph name="Oslash" format="1">
  <advance width="690"/>
  <unicode hex="00D8"/>
  <outline>
    <contour>
      <point x="136" y="716"/>
      <point x="20" y="575"/>
      <point x="20" y="349" type="curve" smooth="yes"/>
      <point x="20" y="118"/>
      <point x="136" y="-20"/>
      <point x="345" y="-20" type="curve" smooth="yes"/>
      <point x="554" y="-20"/>
      <point x="670" y="123"/>
      <point x="670" y="349" type="curve" smooth="yes"/>
      <point x="670" y="580"/>
      <point x="554" y="716"/>
      <point x="345" y="716" type="curve" smooth="yes"/>
    </contour>
    <contour>
      <point x="423" y="570"/>
      <point x="456" y="540"/>
      <point x="456" y="349" type="curve" smooth="yes"/>
      <point x="456" y="188"/>
      <point x="425" y="126"/>
      <point x="345" y="126" type="curve" smooth="yes"/>
      <point x="267" y="126"/>
      <point x="234" y="158"/>
      <point x="234" y="349" type="curve" smooth="yes"/>
      <point x="234" y="510"/>
      <point x="267" y="570"/>
      <point x="345" y="570" type="curve" smooth="yes"/>
    </contour>
    <contour>
      <point x="382" y="709" type="line"/>
      <point x="363" y="570" type="line"/>
      <point x="246" y="180" type="line"/>
      <point x="160" y="33" type="line"/>
      <point x="119" y="-99" type="line"/>
      <point x="269" y="-139" type="line"/>
      <point x="308" y="-12" type="line"/>
      <point x="327" y="124" type="line"/>
      <point x="444" y="514" type="line"/>
      <point x="530" y="664" type="line"/>
      <point x="571" y="793" type="line"/>
      <point x="421" y="833" type="line"/>
    </contour>
    <contour>
      <point x="345" y="741" type="move" name="top"/>
    </contour>
  </outline>
</glyph>
<glyph name="Thorn" format="1">
  <advance width="611"/>
  <unicode hex="00DE"/>
  <outline>
    <contour>
      <point x="243" y="593" type="line"/>
      <point x="249" y="450" type="line"/>
      <point x="291" y="450" type="line" smooth="yes"/>
      <point x="359" y="450"/>
      <point x="386" y="416"/>
      <point x="386" y="358" type="curve" smooth="yes"/>
      <point x="386" y="283"/>
      <point x="355" y="251"/>
      <point x="297" y="251" type="curve" smooth="yes"/>
      <point x="233" y="251" type="line"/>
      <point x="233" y="106" type="line"/>
      <point x="317" y="106" type="line" smooth="yes"/>
      <point x="482" y="106"/>
      <point x="596" y="188"/>
      <point x="596" y="358" type="curve" smooth="yes"/>
      <point x="596" y="515"/>
      <point x="481" y="593"/>
      <point x="294" y="593" type="curve" smooth="yes"/>
    </contour>
    <contour>
      <point x="43" y="696" type="line"/>
      <point x="43" y="0" type="line"/>
      <point x="249" y="0" type="line"/>
      <point x="249" y="696" type="line"/>
    </contour>
    <contour>
      <point x="146" y="696" type="move" name="top"/>
    </contour>
  </outline>
</glyph>
<glyph name="ae" format="1">
  <advance width="859"/>
  <unicode hex="00E6"/>
  <outline>
    <contour>
      <point x="428" y="554"/>
      <point x="361" y="412"/>
      <point x="321" y="266" type="curve"/>
      <point x="323" y="220" type="line" smooth="yes"/>
      <point x="329" y="93"/>
      <point x="424" y="-20"/>
      <point x="607" y="-20" type="curve" smooth="yes"/>
      <point x="700" y="-20"/>
      <point x="774" y="16"/>
      <point x="827" y="59" type="curve"/>
      <point x="747" y="167" type="line"/>
      <point x="701" y="135"/>
      <point x="664" y="120"/>
      <point x="626" y="120" type="curve" smooth="yes"/>
      <point x="557" y="120"/>
      <point x="516" y="140"/>
      <point x="516" y="263" type="curve" smooth="yes"/>
      <point x="516" y="393"/>
      <point x="538" y="429"/>
      <point x="589" y="429" type="curve" smooth="yes"/>
      <point x="640" y="429"/>
      <point x="651" y="384"/>
      <point x="652" y="330" type="curve" smooth="yes"/>
      <point x="652" y="328"/>
      <point x="652" y="325"/>
      <point x="652" y="323" type="curve"/>
      <point x="501" y="323" type="line"/>
      <point x="503" y="211" type="line"/>
      <point x="843" y="211" type="line"/>
      <point x="845" y="230"/>
      <point x="847" y="257"/>
      <point x="847" y="274" type="curve" smooth="yes"/>
      <point x="847" y="453"/>
      <point x="742" y="554"/>
      <point x="591" y="554" type="curve" smooth="yes"/>
    </contour>
    <contour>
      <point x="281" y="333" type="line" smooth="yes"/>
      <point x="105" y="333"/>
      <point x="15" y="268"/>
      <point x="15" y="150" type="curve" smooth="yes"/>
      <point x="15" y="51"/>
      <point x="83" y="-20"/>
      <point x="195" y="-20" type="curve" smooth="yes"/>
      <point x="269" y="-20"/>
      <point x="343" y="3"/>
      <point x="390" y="77" type="curve"/>
      <point x="336" y="173" type="line"/>
      <point x="315" y="143"/>
      <point x="295" y="119"/>
      <point x="263" y="119" type="curve" smooth="yes"/>
      <point x="236" y="119"/>
      <point x="221" y="138"/>
      <point x="221" y="165" type="curve" smooth="yes"/>
      <point x="221" y="209"/>
      <point x="247" y="225"/>
      <point x="300" y="225" type="curve" smooth="yes"/>
      <point x="345" y="225" type="line"/>
      <point x="345" y="333" type="line"/>
    </contour>
    <contour>
      <point x="211" y="554"/>
      <point x="128" y="539"/>
      <point x="61" y="512" type="curve"/>
      <point x="104" y="384" type="line"/>
      <point x="157" y="402"/>
      <point x="211" y="412"/>
      <point x="242" y="412" type="curve" smooth="yes"/>
      <point x="301" y="412"/>
      <point x="319" y="398"/>
      <point x="319" y="344" type="curve"/>
      <point x="321" y="266" type="line"/>
      <point x="516" y="263" type="line"/>
      <point x="497" y="357" type="line" smooth="yes"/>
      <point x="475" y="466"/>
      <point x="427" y="554"/>
      <point x="272" y="554" type="curve" smooth="yes"/>
    </contour>
    <contour>
      <point x="431" y="534" type="move" name="top"/>
    </contour>
  </outline>
</glyph>
<glyph name="eth" format="1">
  <advance width="584"/>
  <unicode hex="00F0"/>
  <outline>
    <contour>
      <point x="63" y="639" type="line"/>
      <point x="96" y="634"/>
      <point x="149" y="624"/>
      <point x="205" y="604" type="curve"/>
      <point x="299" y="548"/>
      <point x="332" y="504"/>
      <point x="357" y="434" type="curve"/>
      <point x="360" y="342" type="line"/>
      <point x="360" y="311"/>
      <point x="360" y="281"/>
      <point x="360" y="250" type="curve"/>
      <point x="360" y="161"/>
      <point x="345" y="121"/>
      <point x="290" y="121" type="curve" smooth="yes"/>
      <point x="245" y="121"/>
      <point x="218" y="149"/>
      <point x="218" y="235" type="curve" smooth="yes"/>
      <point x="218" y="310"/>
      <point x="241" y="348"/>
      <point x="289" y="348" type="curve" smooth="yes"/>
      <point x="322" y="348"/>
      <point x="350" y="336"/>
      <point x="372" y="316" type="curve"/>
      <point x="365" y="438" type="line"/>
      <point x="326" y="466"/>
      <point x="286" y="482"/>
      <point x="229" y="482" type="curve" smooth="yes"/>
      <point x="118" y="482"/>
      <point x="17" y="381"/>
      <point x="17" y="233" type="curve" smooth="yes"/>
      <point x="17" y="74"/>
      <point x="133" y="-20"/>
      <point x="286" y="-20" type="curve" smooth="yes"/>
      <point x="469" y="-20"/>
      <point x="562" y="122"/>
      <point x="562" y="284" type="curve" smooth="yes"/>
      <point x="562" y="463"/>
      <point x="500" y="602"/>
      <point x="314" y="707" type="curve"/>
      <point x="212" y="744"/>
      <point x="160" y="755"/>
      <point x="101" y="763" type="curve"/>
    </contour>
    <contour>
      <point x="234" y="721" type="line"/>
      <point x="150" y="635" type="line"/>
      <point x="94" y="576" type="line"/>
      <point x="216" y="521" type="line"/>
      <point x="271" y="577" type="line"/>
      <point x="358" y="666" type="line"/>
      <point x="417" y="726" type="line"/>
      <point x="320" y="811" type="line"/>
    </contour>
  </outline>
</glyph>
<glyph name="oslash" format="1">
  <advance width="584"/>
  <unicode hex="00F8"/>
  <outline>
    <contour>
      <point x="122" y="554"/>
      <point x="17" y="442"/>
      <point x="17" y="268" type="curve" smooth="yes"/>
      <point x="17" y="82"/>
      <point x="124" y="-20"/>
      <point x="292" y="-20" type="curve"/>
      <point x="462" y="-20"/>
      <point x="567" y="92"/>
      <point x="567" y="266" type="curve" smooth="yes"/>
      <point x="567" y="452"/>
      <point x="460" y="554"/>
      <point x="292" y="554" type="curve"/>
    </contour>
    <contour>
      <point x="342" y="412"/>
      <point x="374" y="402"/>
      <point x="374" y="266" type="curve" smooth="yes"/>
      <point x="374" y="165"/>
      <point x="342" y="122"/>
      <point x="292" y="122" type="curve"/>
      <point x="242" y="122"/>
      <point x="210" y="132"/>
      <point x="210" y="268" type="curve" smooth="yes"/>
      <point x="210" y="369"/>
      <point x="242" y="412"/>
      <point x="292" y="412" type="curve"/>
    </contour>
    <contour>
      <point x="314" y="553" type="line"/>
      <point x="296" y="412" type="line"/>
      <point x="216" y="174" type="line"/>
      <point x="134" y="32" type="line"/>
      <point x="93" y="-97" type="line"/>
      <point x="233" y="-138" type="line"/>
      <point x="272" y="-12" type="line"/>
      <point x="286" y="115" type="line"/>
      <point x="366" y="353" type="line"/>
      <point x="452" y="509" type="line"/>
      <point x="493" y="632" type="line"/>
      <point x="353" y="673" type="line"/>
    </contour>
    <contour>
      <point x="293" y="534" type="move" name="top"/>
    </contour>
  </outline>
</glyph>
<glyph name="dcroat" format="1">
  <advance width="601"/>
  <unicode hex="0111"/>
  <outline>
    <contour>
      <point x="237" y="696" type="line"/>
      <point x="237" y="590" type="line"/>
      <point x="559" y="590" type="line"/>
      <point x="611" y="590" type="line"/>
      <point x="611" y="696" type="line"/>
    </contour>
    <component base="d"/>
  </outline>
</glyph>
<glyph name="Hbar" format="1">
  <advance width="671"/>
  <unicode hex="0126"/>
  <outline>
    <contour>
      <point x="622" y="601" type="line"/>
      <point x="0" y="601" type="line"/>
      <point x="0" y="495" type="line"/>
      <point x="49" y="495" type="line"/>
      <point x="671" y="495" type="line"/>
      <point x="671" y="601" type="line"/>
    </contour>
    <component base="H" xOffset="7"/>
  </outline>
</glyph>
<glyph name="hbar" format="1">
  <advance width="572"/>
  <unicode hex="0127"/>
  <outline>
    <contour>
      <point x="-10" y="696" type="line"/>
      <point x="-10" y="590" type="line"/>
      <point x="42" y="590" type="line"/>
      <point x="362" y="590" type="line"/>
      <point x="362" y="696" type="line"/>
    </contour>
    <component base="h"/>
  </outline>
</glyph>
<glyph name="dotlessi" format="1">
  <advance width="282"/>
  <unicode hex="0131"/>
  <outline>
    <contour>
      <point x="42" y="534" type="line"/>
      <point x="42" y="0" type="line"/>
      <point x="240" y="0" type="line"/>
      <point x="240" y="534" type="line"/>
    </contour>
    <contour>
      <point x="210" y="0" type="move" name="ogonek"/>
    </contour>
    <contour>
      <point x="141" y="534" type="move" name="top"/>
    </contour>
  </outline>
</glyph>
<glyph name="kgreenlandic" format="1">
  <advance width="576"/>
  <unicode hex="0138"/>
  <outline>
    <contour>
      <point x="387" y="534" type="line"/>
      <point x="244" y="282" type="line"/>
      <point x="372" y="0" type="line"/>
      <point x="591" y="0" type="line"/>
      <point x="442" y="290" type="line"/>
      <point x="583" y="534" type="line"/>
    </contour>
    <contour>
      <point x="42" y="534" type="line"/>
      <point x="42" y="0" type="line"/>
      <point x="240" y="0" type="line"/>
      <point x="240" y="534" type="line"/>
    </contour>
  </outline>
</glyph>
<glyph name="Lslash" format="1">
  <advance width="576"/>
  <unicode hex="0141"/>
  <outline>
    <contour>
      <point x="97" y="347" type="line"/>
      <point x="0" y="287" type="line"/>
      <point x="63" y="184" type="line"/>
      <point x="475" y="439" type="line"/>
      <point x="411" y="541" type="line"/>
    </contour>
    <component base="L" xOffset="54"/>
  </outline>
</glyph>
<glyph name="lslash" format="1">
  <advance width="371"/>
  <unicode hex="0142"/>
  <outline>
    <contour>
      <point x="-13" y="343" type="line"/>
      <point x="32" y="227" type="line"/>
      <point x="371" y="435" type="line"/>
      <point x="329" y="554" type="line"/>
    </contour>
    <component base="l" xOffset="37"/>
  </outline>
</glyph>
<glyph name="Eng" format="1">
  <advance width="651"/>
  <unicode hex="014A"/>
  <outline>
    <contour>
      <point x="426" y="696" type="line"/>
      <point x="426" y="473" type="line" smooth="yes"/>
      <point x="426" y="347"/>
      <point x="441" y="267"/>
      <point x="458" y="198" type="curve"/>
      <point x="454" y="198" type="line"/>
      <point x="296" y="696" type="line"/>
      <point x="43" y="696" type="line"/>
      <point x="43" y="0" type="line"/>
      <point x="225" y="0" type="line"/>
      <point x="225" y="216" type="line" smooth="yes"/>
      <point x="225" y="345"/>
      <point x="207" y="441"/>
      <point x="193" y="498" type="curve"/>
      <point x="197" y="498" type="line"/>
      <point x="350" y="0" type="line"/>
      <point x="422" y="0" type="line"/>
      <point x="608" y="77" type="line"/>
      <point x="608" y="696" type="line"/>
    </contour>
    <contour>
      <point x="425" y="65" type="line"/>
      <point x="425" y="-32"/>
      <point x="390" y="-60"/>
      <point x="305" y="-95" type="curve"/>
      <point x="366" y="-227" type="line"/>
      <point x="498" y="-184"/>
      <point x="608" y="-111"/>
      <point x="608" y="77" type="curve"/>
    </contour>
    <contour>
      <point x="326" y="696" type="move" name="top"/>
    </contour>
    <contour>
      <point x="326" y="0" type="move" name="bottom"/>
    </contour>
  </outline>
</glyph>
<glyph name="eng" format="1">
  <advance width="572"/>
  <unicode hex="014B"/>
  <outline>
    <contour>
      <point x="321" y="554"/>
      <point x="270" y="527"/>
      <point x="216" y="464" type="curve"/>
      <point x="240" y="357" type="line"/>
      <point x="263" y="393"/>
      <point x="286" y="410"/>
      <point x="307" y="410" type="curve" smooth="yes"/>
      <point x="325" y="410"/>
      <point x="337" y="400"/>
      <point x="337" y="358" type="curve"/>
      <point x="337" y="120" type="line"/>
      <point x="535" y="120" type="line"/>
      <point x="535" y="394" type="line" smooth="yes"/>
      <point x="535" y="496"/>
      <point x="480" y="554"/>
      <point x="391" y="554" type="curve" smooth="yes"/>
    </contour>
    <contour>
      <point x="42" y="534" type="line"/>
      <point x="42" y="0" type="line"/>
      <point x="240" y="0" type="line"/>
      <point x="240" y="435" type="line"/>
      <point x="215" y="534" type="line"/>
    </contour>
    <contour>
      <point x="337" y="134" type="line"/>
      <point x="337" y="65" type="line" smooth="yes"/>
      <point x="337" y="-22"/>
      <point x="292" y="-52"/>
      <point x="225" y="-83" type="curve"/>
      <point x="293" y="-227" type="line"/>
      <point x="425" y="-184"/>
      <point x="535" y="-111"/>
      <point x="535" y="77" type="curve" smooth="yes"/>
      <point x="535" y="134" type="line"/>
    </contour>
  </outline>
</glyph>
<glyph name="oe" format="1">
  <advance width="902"/>
  <unicode hex="0153"/>
  <outline>
    <contour>
      <point x="122" y="554"/>
      <point x="17" y="440"/>
      <point x="17" y="268" type="curve" smooth="yes"/>
      <point x="17" y="82"/>
      <point x="122" y="-20"/>
      <point x="291" y="-20" type="curve" smooth="yes"/>
      <point x="440" y="-20"/>
      <point x="525" y="82"/>
      <point x="565" y="268" type="curve"/>
      <point x="535" y="440"/>
      <point x="440" y="554"/>
      <point x="291" y="554" type="curve" smooth="yes"/>
    </contour>
    <contour>
      <point x="340" y="412"/>
      <point x="362" y="369"/>
      <point x="362" y="268" type="curve" smooth="yes"/>
      <point x="362" y="163"/>
      <point x="340" y="122"/>
      <point x="291" y="122" type="curve" smooth="yes"/>
      <point x="242" y="122"/>
      <point x="220" y="162"/>
      <point x="220" y="268" type="curve" smooth="yes"/>
      <point x="220" y="369"/>
      <point x="242" y="412"/>
      <point x="291" y="412" type="curve" smooth="yes"/>
    </contour>
    <contour>
      <point x="471" y="554"/>
      <point x="392" y="422"/>
      <point x="362" y="266" type="curve"/>
      <point x="402" y="101"/>
      <point x="474" y="-20"/>
      <point x="650" y="-20" type="curve" smooth="yes"/>
      <point x="743" y="-20"/>
      <point x="817" y="16"/>
      <point x="870" y="59" type="curve"/>
      <point x="790" y="167" type="line"/>
      <point x="744" y="135"/>
      <point x="707" y="120"/>
      <point x="669" y="120" type="curve" smooth="yes"/>
      <point x="600" y="120"/>
      <point x="559" y="140"/>
      <point x="559" y="263" type="curve" smooth="yes"/>
      <point x="559" y="393"/>
      <point x="581" y="429"/>
      <point x="632" y="429" type="curve" smooth="yes"/>
      <point x="683" y="429"/>
      <point x="694" y="384"/>
      <point x="695" y="330" type="curve" smooth="yes"/>
      <point x="695" y="328"/>
      <point x="695" y="325"/>
      <point x="695" y="323" type="curve"/>
      <point x="544" y="323" type="line"/>
      <point x="546" y="211" type="line"/>
      <point x="886" y="211" type="line"/>
      <point x="888" y="230"/>
      <point x="890" y="257"/>
      <point x="890" y="274" type="curve" smooth="yes"/>
      <point x="890" y="453"/>
      <point x="786" y="554"/>
      <point x="628" y="554" type="curve" smooth="yes"/>
    </contour>
    <contour>
      <point x="459" y="534" type="move" name="top"/>
    </contour>
  </outline>
</glyph>
<glyph name="tbar" format="1">
  <advance width="406"/>
  <unicode hex="0167"/>
  <outline>
    <contour>
      <point x="62" y="364" type="line"/>
      <point x="5" y="364" type="line"/>
      <point x="5" y="240" type="line"/>
      <point x="350" y="240" type="line"/>
      <point x="370" y="364" type="line"/>
    </contour>
    <component base="t"/>
  </outline>
</glyph>
<glyph name="florin" format="1">
  <advance width="341"/>
  <unicode hex="0192"/>
  <outline>
    <contour>
      <point x="115" y="764"/>
      <point x="42" y="675"/>
      <point x="42" y="565" type="curve" smooth="yes"/>
      <point x="42" y="65" type="line"/>
      <point x="240" y="85" type="line"/>
      <point x="240" y="555" type="line" smooth="yes"/>
      <point x="240" y="605"/>
      <point x="253" y="622"/>
      <point x="305" y="622" type="curve" smooth="yes"/>
      <point x="330" y="622"/>
      <point x="355" y="617"/>
      <point x="389" y="602" type="curve"/>
      <point x="441" y="727" type="line"/>
      <point x="398" y="747"/>
      <point x="336" y="764"/>
      <point x="268" y="764" type="curve" smooth="yes"/>
    </contour>
    <contour>
      <point x="-38" y="534" type="line"/>
      <point x="-38" y="400" type="line"/>
      <point x="342" y="400" type="line"/>
      <point x="364" y="534" type="line"/>
    </contour>
    <contour>
      <point x="42" y="324" type="line"/>
      <point x="42" y="65" type="line" smooth="yes"/>
      <point x="42" y="-22"/>
      <point x="-3" y="-52"/>
      <point x="-70" y="-83" type="curve"/>
      <point x="-2" y="-227" type="line"/>
      <point x="130" y="-184"/>
      <point x="240" y="-111"/>
      <point x="240" y="77" type="curve" smooth="yes"/>
      <point x="240" y="324" type="line"/>
    </contour>
  </outline>
</glyph>
<glyph name="uni025F" format="1">
  <advance width="342"/>
  <unicode hex="025F"/>
  <outline>
    <contour>
      <point x="167" y="-184"/>
      <point x="277" y="-111"/>
      <point x="277" y="77" type="curve" smooth="yes"/>
      <point x="277" y="534" type="line"/>
      <point x="79" y="534" type="line"/>
      <point x="79" y="32" type="line" smooth="yes"/>
      <point x="79" y="-36"/>
      <point x="36" y="-70"/>
      <point x="-30" y="-96" type="curve"/>
      <point x="35" y="-227" type="line"/>
    </contour>
    <contour>
      <point x="342" y="0" type="line"/>
      <point x="342" y="131" type="line"/>
      <point x="2" y="131" type="line"/>
      <point x="2" y="0" type="line"/>
    </contour>
  </outline>
</glyph>
<glyph name="uni0263" format="1">
  <advance width="534"/>
  <unicode hex="0263"/>
  <outline>
    <contour>
      <point x="389" y="-227"/>
      <point x="436" y="-172"/>
      <point x="436" y="-92" type="curve" smooth="yes"/>
      <point x="436" y="-31"/>
      <point x="412" y="19"/>
      <point x="363" y="93" type="curve"/>
      <point x="270" y="218" type="line"/>
      <point x="195" y="534" type="line"/>
      <point x="-15" y="534" type="line"/>
      <point x="177" y="93" type="line"/>
      <point x="270" y="-8" type="line"/>
      <point x="286" y="-39"/>
      <point x="297" y="-61"/>
      <point x="297" y="-83" type="curve" smooth="yes"/>
      <point x="297" y="-101"/>
      <point x="288" y="-112"/>
      <point x="270" y="-112" type="curve" smooth="yes"/>
      <point x="253" y="-112"/>
      <point x="243" y="-102"/>
      <point x="243" y="-84" type="curve" smooth="yes"/>
      <point x="243" y="-64"/>
      <point x="254" y="-38"/>
      <point x="270" y="-8" type="curve"/>
      <point x="363" y="93" type="line"/>
      <point x="549" y="534" type="line"/>
      <point x="345" y="534" type="line"/>
      <point x="270" y="218" type="line"/>
      <point x="177" y="93" type="line"/>
      <point x="123" y="10"/>
      <point x="104" y="-37"/>
      <point x="104" y="-92" type="curve" smooth="yes"/>
      <point x="104" y="-173"/>
      <point x="153" y="-227"/>
      <point x="270" y="-227" type="curve" smooth="yes"/>
    </contour>
  </outline>
</glyph>
<glyph name="uni0267" format="1">
  <advance width="572"/>
  <unicode hex="0267"/>
  <outline>
    <contour>
      <point x="535" y="0" type="line"/>
      <point x="535" y="394" type="line" smooth="yes"/>
      <point x="535" y="496"/>
      <point x="480" y="554"/>
      <point x="391" y="554" type="curve" smooth="yes"/>
      <point x="321" y="554"/>
      <point x="270" y="526"/>
      <point x="216" y="459" type="curve"/>
      <point x="240" y="357" type="line"/>
      <point x="263" y="393"/>
      <point x="286" y="410"/>
      <point x="307" y="410" type="curve" smooth="yes"/>
      <point x="325" y="410"/>
      <point x="337" y="400"/>
      <point x="337" y="358" type="curve" smooth="yes"/>
      <point x="337" y="0" type="line"/>
    </contour>
    <contour>
      <point x="240" y="0" type="line"/>
      <point x="240" y="534" type="line"/>
      <point x="42" y="534" type="line"/>
      <point x="42" y="0" type="line"/>
    </contour>
    <component base="hookaboveHELPER" xOffset="12"/>
    <component base="hookHELPER" xOffset="133"/>
  </outline>
</glyph>
<glyph name="uni0270" format="1">
  <advance width="837"/>
  <unicode hex="0270"/>
  <outline>
    <contour>
      <point x="597" y="-207" type="line"/>
      <point x="795" y="-227" type="line"/>
      <point x="795" y="98" type="line"/>
      <point x="597" y="98" type="line"/>
    </contour>
    <component base="uni026F"/>
  </outline>
</glyph>
<glyph name="uni0289" format="1">
  <advance width="622"/>
  <unicode hex="0289"/>
  <outline>
    <contour>
      <point x="65" y="284" type="line"/>
      <point x="622" y="284" type="line"/>
      <point x="622" y="399" type="line"/>
      <point x="551" y="399" type="line"/>
      <point x="-5" y="399" type="line"/>
      <point x="-5" y="284" type="line"/>
    </contour>
    <component base="u" xOffset="28"/>
  </outline>
</glyph>
<glyph name="uni029F" format="1">
  <advance width="459"/>
  <unicode hex="029F"/>
  <outline>
    <contour>
      <point x="42" y="534" type="line"/>
      <point x="42" y="0" type="line"/>
      <point x="434" y="0" type="line"/>
      <point x="454" y="148" type="line"/>
      <point x="240" y="148" type="line"/>
      <point x="240" y="534" type="line"/>
    </contour>
  </outline>
</glyph>
<glyph name="uni02BC" format="1">
  <advance width="214"/>
  <unicode hex="02BC"/>
  <outline>
    <contour>
      <point x="63" y="763"/>
      <point x="30" y="728"/>
      <point x="30" y="688" type="curve" smooth="yes"/>
      <point x="30" y="659"/>
      <point x="44" y="639"/>
      <point x="62" y="625" type="curve"/>
      <point x="41" y="534" type="line"/>
      <point x="120" y="534" type="line"/>
      <point x="161" y="614" type="line" smooth="yes"/>
      <point x="176" y="643"/>
      <point x="184" y="662"/>
      <point x="184" y="688" type="curve" smooth="yes"/>
      <point x="184" y="731"/>
      <point x="151" y="763"/>
      <point x="107" y="763" type="curve" smooth="yes"/>
    </contour>
    <contour>
      <point x="150" y="534" type="move" name="_topleft"/>
    </contour>
  </outline>
</glyph>
<glyph name="acutecomb" format="1">
  <advance width="374"/>
  <unicode hex="0301"/>
  <outline>
    <contour>
      <point x="39" y="722" type="line"/>
      <point x="89" y="623" type="line"/>
      <point x="343" y="714" type="line"/>
      <point x="270" y="858" type="line"/>
    </contour>
    <contour>
      <point x="191" y="534" type="move" name="_top"/>
    </contour>
  </outline>
</glyph>
<glyph name="uni0306" format="1">
  <advance width="430"/>
  <unicode hex="0306"/>
  <outline>
    <contour>
      <point x="344" y="620"/>
      <point x="401" y="714"/>
      <point x="409" y="806" type="curve"/>
      <point x="306" y="823" type="line"/>
      <point x="295" y="786"/>
      <point x="269" y="754"/>
      <point x="224" y="754" type="curve" smooth="yes"/>
      <point x="179" y="754"/>
      <point x="153" y="786"/>
      <point x="142" y="823" type="curve"/>
      <point x="39" y="806" type="line"/>
      <point x="47" y="714"/>
      <point x="104" y="620"/>
      <point x="224" y="620" type="curve" smooth="yes"/>
    </contour>
    <contour>
      <point x="224" y="534" type="move" name="_top"/>
    </contour>
  </outline>
</glyph>
<glyph name="uni030C" format="1">
  <advance width="468"/>
  <unicode hex="030C"/>
  <outline>
    <contour>
      <point x="243" y="753" type="line"/>
      <point x="106" y="839" type="line"/>
      <point x="39" y="762" type="line"/>
      <point x="184" y="621" type="line"/>
      <point x="302" y="621" type="line"/>
      <point x="447" y="762" type="line"/>
      <point x="380" y="839" type="line"/>
    </contour>
    <contour>
      <point x="243" y="534" type="move" name="_top"/>
    </contour>
  </outline>
</glyph>
<glyph name="uni0326" format="1">
  <advance width="244"/>
  <unicode hex="0326"/>
  <outline>
    <contour>
      <point x="69" y="-62"/>
      <point x="30" y="-104"/>
      <point x="30" y="-153" type="curve" smooth="yes"/>
      <point x="30" y="-187"/>
      <point x="46" y="-211"/>
      <point x="68" y="-228" type="curve"/>
      <point x="43" y="-342" type="line"/>
      <point x="137" y="-342" type="line"/>
      <point x="187" y="-241" type="line" smooth="yes"/>
      <point x="204" y="-206"/>
      <point x="214" y="-184"/>
      <point x="214" y="-153" type="curve" smooth="yes"/>
      <point x="214" y="-101"/>
      <point x="175" y="-62"/>
      <point x="122" y="-62" type="curve" smooth="yes"/>
    </contour>
    <contour>
      <point x="122" y="0" type="move" name="_bottom"/>
    </contour>
  </outline>
</glyph>
<glyph name="dieresistonos" format="1">
  <advance width="535"/>
  <unicode hex="0385"/>
  <outline>
    <contour>
      <point x="213" y="758" type="line"/>
      <point x="315" y="741" type="line"/>
      <point x="394" y="944" type="line"/>
      <point x="242" y="970" type="line"/>
    </contour>
    <contour>
      <point x="72" y="780"/>
      <point x="30" y="740"/>
      <point x="30" y="691" type="curve" smooth="yes"/>
      <point x="30" y="641"/>
      <point x="72" y="601"/>
      <point x="123" y="601" type="curve" smooth="yes"/>
      <point x="175" y="601"/>
      <point x="215" y="641"/>
      <point x="215" y="691" type="curve" smooth="yes"/>
      <point x="215" y="740"/>
      <point x="175" y="780"/>
      <point x="123" y="780" type="curve" smooth="yes"/>
    </contour>
    <contour>
      <point x="362" y="780"/>
      <point x="320" y="740"/>
      <point x="320" y="691" type="curve" smooth="yes"/>
      <point x="320" y="641"/>
      <point x="362" y="601"/>
      <point x="412" y="601" type="curve" smooth="yes"/>
      <point x="465" y="601"/>
      <point x="505" y="641"/>
      <point x="505" y="691" type="curve" smooth="yes"/>
      <point x="505" y="740"/>
      <point x="465" y="780"/>
      <point x="412" y="780" type="curve" smooth="yes"/>
    </contour>
    <contour>
      <point x="268" y="534" type="move" name="_top"/>
    </contour>
  </outline>
</glyph>
<glyph name="Delta" format="1">
  <advance width="609"/>
  <unicode hex="0394"/>
  <outline>
    <contour>
      <point x="385" y="146" type="line"/>
      <point x="220" y="146" type="line"/>
      <point x="303" y="549" type="line"/>
    </contour>
    <contour>
      <point x="182" y="696" type="line"/>
      <point x="-25" y="0" type="line"/>
      <point x="634" y="0" type="line"/>
      <point x="428" y="696" type="line"/>
    </contour>
  </outline>
</glyph>
<glyph name="Theta" format="1">
  <advance width="690"/>
  <unicode hex="0398"/>
  <outline>
    <contour>
      <point x="255" y="405" type="line"/>
      <point x="255" y="299" type="line"/>
      <point x="435" y="299" type="line"/>
      <point x="435" y="405" type="line"/>
    </contour>
    <contour>
      <point x="136" y="716"/>
      <point x="20" y="575"/>
      <point x="20" y="349" type="curve" smooth="yes"/>
      <point x="20" y="118"/>
      <point x="136" y="-20"/>
      <point x="345" y="-20" type="curve" smooth="yes"/>
      <point x="554" y="-20"/>
      <point x="670" y="123"/>
      <point x="670" y="349" type="curve" smooth="yes"/>
      <point x="670" y="580"/>
      <point x="554" y="716"/>
      <point x="345" y="716" type="curve" smooth="yes"/>
    </contour>
    <contour>
      <point x="433" y="570"/>
      <point x="470" y="510"/>
      <point x="470" y="349" type="curve" smooth="yes"/>
      <point x="470" y="188"/>
      <point x="435" y="126"/>
      <point x="345" y="126" type="curve" smooth="yes"/>
      <point x="257" y="126"/>
      <point x="220" y="188"/>
      <point x="220" y="349" type="curve" smooth="yes"/>
      <point x="220" y="510"/>
      <point x="257" y="570"/>
      <point x="345" y="570" type="curve" smooth="yes"/>
    </contour>
  </outline>
</glyph>
<glyph name="alpha" format="1">
  <advance width="604"/>
  <unicode hex="03B1"/>
  <outline>
    <contour>
      <point x="106" y="554"/>
      <point x="19" y="432"/>
      <point x="19" y="263" type="curve" smooth="yes"/>
      <point x="19" y="79"/>
      <point x="104" y="-20"/>
      <point x="228" y="-20" type="curve" smooth="yes"/>
      <point x="305" y="-20"/>
      <point x="356" y="14"/>
      <point x="393" y="98" type="curve"/>
      <point x="399" y="74" type="line" smooth="yes"/>
      <point x="414" y="16"/>
      <point x="457" y="-11"/>
      <point x="529" y="-19" type="curve"/>
      <point x="591" y="124" type="line"/>
      <point x="561" y="127"/>
      <point x="540" y="141"/>
      <point x="529" y="178" type="curve" smooth="yes"/>
      <point x="502" y="266" type="line"/>
      <point x="580" y="534" type="line"/>
      <point x="414" y="534" type="line"/>
      <point x="403" y="430" type="line"/>
      <point x="386" y="502"/>
      <point x="337" y="554"/>
      <point x="249" y="554" type="curve" smooth="yes"/>
    </contour>
    <contour>
      <point x="319" y="413"/>
      <point x="336" y="378"/>
      <point x="356" y="275" type="curve"/>
      <point x="337" y="156"/>
      <point x="315" y="121"/>
      <point x="276" y="121" type="curve" smooth="yes"/>
      <point x="247" y="121"/>
      <point x="216" y="154"/>
      <point x="216" y="263" type="curve" smooth="yes"/>
      <point x="216" y="370"/>
      <point x="245" y="413"/>
      <point x="277" y="413" type="curve" smooth="yes"/>
    </contour>
    <contour>
      <point x="285" y="534" type="move" name="top"/>
    </contour>
  </outline>
</glyph>
<glyph name="beta" format="1">
  <advance width="610"/>
  <unicode hex="03B2"/>
  <outline>
    <contour>
      <point x="151" y="764"/>
      <point x="42" y="687"/>
      <point x="42" y="549" type="curve" smooth="yes"/>
      <point x="42" y="-227" type="line"/>
      <point x="231" y="-200" type="line"/>
      <point x="231" y="551" type="line" smooth="yes"/>
      <point x="231" y="604"/>
      <point x="254" y="629"/>
      <point x="290" y="629" type="curve" smooth="yes"/>
      <point x="326" y="629"/>
      <point x="346" y="605"/>
      <point x="346" y="552" type="curve" smooth="yes"/>
      <point x="346" y="497"/>
      <point x="325" y="462"/>
      <point x="284" y="462" type="curve" smooth="yes"/>
      <point x="275" y="462" type="line"/>
      <point x="265" y="333" type="line"/>
      <point x="297" y="333" type="line" smooth="yes"/>
      <point x="347" y="333"/>
      <point x="397" y="316"/>
      <point x="397" y="230" type="curve" smooth="yes"/>
      <point x="397" y="154"/>
      <point x="351" y="129"/>
      <point x="307" y="129" type="curve" smooth="yes"/>
      <point x="240" y="129"/>
      <point x="215" y="149"/>
      <point x="177" y="178" type="curve"/>
      <point x="140" y="103" type="line"/>
      <point x="199" y="37"/>
      <point x="263" y="-20"/>
      <point x="358" y="-20" type="curve" smooth="yes"/>
      <point x="508" y="-20"/>
      <point x="596" y="75"/>
      <point x="596" y="210" type="curve" smooth="yes"/>
      <point x="596" y="363"/>
      <point x="485" y="398"/>
      <point x="406" y="406" type="curve"/>
      <point x="498" y="430"/>
      <point x="538" y="492"/>
      <point x="538" y="578" type="curve" smooth="yes"/>
      <point x="538" y="681"/>
      <point x="452" y="764"/>
      <point x="294" y="764" type="curve" smooth="yes"/>
    </contour>
  </outline>
</glyph>
<glyph name="gamma" format="1">
  <advance width="523"/>
  <unicode hex="03B3"/>
  <outline>
    <contour>
      <point x="-25" y="494" type="line"/>
      <point x="37" y="413"/>
      <point x="119" y="233"/>
      <point x="170" y="13" type="curve"/>
      <point x="136" y="-84"/>
      <point x="138" y="-144"/>
      <point x="179" y="-227" type="curve"/>
      <point x="337" y="-210" type="line"/>
      <point x="319" y="-105"/>
      <point x="325" y="-53"/>
      <point x="357" y="31" type="curve" smooth="yes"/>
      <point x="538" y="510" type="line"/>
      <point x="343" y="553" type="line"/>
      <point x="260" y="193" type="line"/>
      <point x="240" y="395"/>
      <point x="199" y="501"/>
      <point x="152" y="554" type="curve"/>
    </contour>
  </outline>
</glyph>
<glyph name="delta" format="1">
  <advance width="576"/>
  <unicode hex="03B4"/>
  <outline>
    <contour>
      <point x="70" y="544"/>
      <point x="89" y="495"/>
      <point x="215" y="434" type="curve" smooth="yes"/>
      <point x="342" y="378"/>
      <point x="356" y="358"/>
      <point x="356" y="252" type="curve" smooth="yes"/>
      <point x="356" y="158"/>
      <point x="333" y="122"/>
      <point x="287" y="122" type="curve" smooth="yes"/>
      <point x="239" y="122"/>
      <point x="218" y="159"/>
      <point x="218" y="252" type="curve" smooth="yes"/>
      <point x="218" y="322"/>
      <point x="224" y="373"/>
      <point x="282" y="423" type="curve"/>
      <point x="186" y="464" type="line"/>
      <point x="70" y="416"/>
      <point x="17" y="339"/>
      <point x="17" y="242" type="curve" smooth="yes"/>
      <point x="17" y="78"/>
      <point x="118" y="-20"/>
      <point x="288" y="-20" type="curve" smooth="yes"/>
      <point x="451" y="-20"/>
      <point x="559" y="78"/>
      <point x="559" y="251" type="curve" smooth="yes"/>
      <point x="559" y="397"/>
      <point x="494" y="470"/>
      <point x="344" y="529" type="curve" smooth="yes"/>
      <point x="263" y="561"/>
      <point x="256" y="572"/>
      <point x="256" y="596" type="curve" smooth="yes"/>
      <point x="256" y="617"/>
      <point x="274" y="631"/>
      <point x="319" y="631" type="curve" smooth="yes"/>
      <point x="358" y="631"/>
      <point x="390" y="618"/>
      <point x="420" y="599" type="curve"/>
      <point x="507" y="699" type="line"/>
      <point x="465" y="734"/>
      <point x="395" y="764"/>
      <point x="308" y="764" type="curve" smooth="yes"/>
      <point x="138" y="764"/>
      <point x="70" y="690"/>
      <point x="70" y="602" type="curve" smooth="yes"/>
    </contour>
  </outline>
</glyph>
<glyph name="epsilon" format="1">
  <advance width="488"/>
  <unicode hex="03B5"/>
  <outline>
    <contour>
      <point x="130" y="554"/>
      <point x="37" y="500"/>
      <point x="37" y="409" type="curve" smooth="yes"/>
      <point x="37" y="348"/>
      <point x="76" y="302"/>
      <point x="165" y="284" type="curve"/>
      <point x="65" y="272"/>
      <point x="17" y="225"/>
      <point x="17" y="147" type="curve" smooth="yes"/>
      <point x="17" y="36"/>
      <point x="122" y="-20"/>
      <point x="264" y="-20" type="curve" smooth="yes"/>
      <point x="360" y="-20"/>
      <point x="439" y="4"/>
      <point x="493" y="45" type="curve"/>
      <point x="413" y="153" type="line"/>
      <point x="363" y="126"/>
      <point x="329" y="116"/>
      <point x="293" y="116" type="curve" smooth="yes"/>
      <point x="241" y="116"/>
      <point x="220" y="134"/>
      <point x="220" y="165" type="curve" smooth="yes"/>
      <point x="220" y="192"/>
      <point x="238" y="212"/>
      <point x="285" y="212" type="curve" smooth="yes"/>
      <point x="345" y="212" type="line"/>
      <point x="363" y="332" type="line"/>
      <point x="293" y="332" type="line" smooth="yes"/>
      <point x="253" y="332"/>
      <point x="236" y="352"/>
      <point x="236" y="380" type="curve" smooth="yes"/>
      <point x="236" y="407"/>
      <point x="260" y="422"/>
      <point x="292" y="422" type="curve" smooth="yes"/>
      <point x="332" y="422"/>
      <point x="364" y="410"/>
      <point x="402" y="389" type="curve"/>
      <point x="479" y="487" type="line"/>
      <point x="417" y="537"/>
      <point x="350" y="554"/>
      <point x="269" y="554" type="curve" smooth="yes"/>
    </contour>
    <contour>
      <point x="264" y="534" type="move" name="top"/>
    </contour>
  </outline>
</glyph>
<glyph name="kappa" format="1">
  <advance width="572"/>
  <unicode hex="03BA"/>
  <outline>
    <contour>
      <point x="248" y="281" type="line"/>
      <point x="353" y="84" type="line" smooth="yes"/>
      <point x="392" y="12"/>
      <point x="446" y="-14"/>
      <point x="515" y="-20" type="curve"/>
      <point x="583" y="129" type="line"/>
      <point x="563" y="137"/>
      <point x="553" y="145"/>
      <point x="544" y="158" type="curve" smooth="yes"/>
      <point x="453" y="286" type="line"/>
      <point x="573" y="483" type="line"/>
      <point x="395" y="552" type="line"/>
    </contour>
    <contour>
      <point x="27" y="524" type="line"/>
      <point x="36" y="495"/>
      <point x="46" y="442"/>
      <point x="46" y="397" type="curve" smooth="yes"/>
      <point x="46" y="0" type="line"/>
      <point x="244" y="0" type="line"/>
      <point x="244" y="349" type="line" smooth="yes"/>
      <point x="244" y="459"/>
      <point x="231" y="509"/>
      <point x="210" y="548" type="curve"/>
    </contour>
  </outline>
</glyph>
<glyph name="lambda" format="1">
  <advance width="553"/>
  <unicode hex="03BB"/>
  <outline>
    <contour>
      <point x="58" y="631" type="line"/>
      <point x="159" y="617"/>
      <point x="190" y="600"/>
      <point x="220" y="534" type="curve"/>
      <point x="158" y="534" type="line"/>
      <point x="0" y="24" type="line"/>
      <point x="197" y="-20" type="line"/>
      <point x="269" y="381" type="line"/>
      <point x="296" y="196"/>
      <point x="318" y="85"/>
      <point x="380" y="-20" type="curve"/>
      <point x="573" y="40" type="line"/>
      <point x="502" y="142"/>
      <point x="473" y="252"/>
      <point x="416" y="494" type="curve" smooth="yes"/>
      <point x="369" y="694"/>
      <point x="266" y="738"/>
      <point x="80" y="762" type="curve"/>
    </contour>
  </outline>
</glyph>
<glyph name="mu" format="1">
  <advance width="579"/>
  <unicode hex="03BC"/>
  <outline>
    <contour>
      <point x="342" y="196" type="line"/>
      <point x="322" y="149"/>
      <point x="295" y="130"/>
      <point x="273" y="130" type="curve" smooth="yes"/>
      <point x="255" y="130"/>
      <point x="240" y="139"/>
      <point x="240" y="173" type="curve" smooth="yes"/>
      <point x="240" y="534" type="line"/>
      <point x="42" y="534" type="line"/>
      <point x="42" y="-225" type="line"/>
      <point x="227" y="-207" type="line"/>
      <point x="227" y="-123" type="line" smooth="yes"/>
      <point x="227" y="-49"/>
      <point x="204" y="-13"/>
      <point x="174" y="32" type="curve"/>
      <point x="200" y="1"/>
      <point x="228" y="-6"/>
      <point x="258" y="-6" type="curve" smooth="yes"/>
      <point x="296" y="-6"/>
      <point x="329" y="18"/>
      <point x="360" y="76" type="curve"/>
    </contour>
    <contour>
      <point x="345" y="81" type="line"/>
      <point x="354" y="30"/>
      <point x="357" y="9"/>
      <point x="371" y="-20" type="curve"/>
      <point x="552" y="0" type="line"/>
      <point x="540" y="41"/>
      <point x="529" y="102"/>
      <point x="529" y="184" type="curve" smooth="yes"/>
      <point x="529" y="534" type="line"/>
      <point x="331" y="534" type="line"/>
      <point x="331" y="152" type="line"/>
    </contour>
  </outline>
</glyph>
<glyph name="nu" format="1">
  <advance width="523"/>
  <unicode hex="03BD"/>
  <outline>
    <contour>
      <point x="-25" y="494" type="line"/>
      <point x="48" y="421"/>
      <point x="101" y="226"/>
      <point x="142" y="0" type="curve"/>
      <point x="371" y="0" type="line"/>
      <point x="538" y="510" type="line"/>
      <point x="347" y="553" type="line"/>
      <point x="260" y="156" type="line"/>
      <point x="242" y="365"/>
      <point x="199" y="501"/>
      <point x="152" y="554" type="curve"/>
    </contour>
  </outline>
</glyph>
<glyph name="pi" format="1">
  <advance width="622"/>
  <unicode hex="03C0"/>
  <outline>
    <contour>
      <point x="357" y="407" type="line"/>
      <point x="357" y="176" type="line"/>
      <point x="357" y="52"/>
      <point x="426" y="-4"/>
      <point x="540" y="-20" type="curve"/>
      <point x="596" y="121" type="line"/>
      <point x="565" y="137"/>
      <point x="555" y="157"/>
      <point x="555" y="202" type="curve"/>
      <point x="555" y="407" type="line"/>
    </contour>
    <contour>
      <point x="84" y="412" type="line"/>
      <point x="84" y="0" type="line"/>
      <point x="278" y="0" type="line"/>
      <point x="278" y="412" type="line"/>
    </contour>
    <contour>
      <point x="53" y="388"/>
      <point x="67" y="390"/>
      <point x="116" y="390" type="curve" smooth="yes"/>
      <point x="605" y="390" type="line"/>
      <point x="605" y="534" type="line"/>
      <point x="162" y="534" type="line"/>
      <point x="68" y="534"/>
      <point x="28" y="524"/>
      <point x="-10" y="506" type="curve"/>
      <point x="25" y="379" type="line"/>
    </contour>
  </outline>
</glyph>
<glyph name="rho" format="1">
  <advance width="594"/>
  <unicode hex="03C1"/>
  <outline>
    <contour>
      <point x="121" y="554"/>
      <point x="37" y="452"/>
      <point x="37" y="277" type="curve"/>
      <point x="37" y="-227" type="line"/>
      <point x="235" y="-207" type="line"/>
      <point x="235" y="60" type="line"/>
      <point x="235" y="152" type="line" smooth="yes"/>
      <point x="235" y="243" type="line" smooth="yes"/>
      <point x="235" y="373"/>
      <point x="253" y="413"/>
      <point x="300" y="413" type="curve" smooth="yes"/>
      <point x="339" y="413"/>
      <point x="369" y="391"/>
      <point x="369" y="266" type="curve" smooth="yes"/>
      <point x="369" y="158"/>
      <point x="338" y="121"/>
      <point x="294" y="121" type="curve"/>
      <point x="265" y="121"/>
      <point x="246" y="136"/>
      <point x="223" y="188" type="curve"/>
      <point x="214" y="71" type="line"/>
      <point x="255" y="2"/>
      <point x="303" y="-20"/>
      <point x="359" y="-20" type="curve"/>
      <point x="487" y="-20"/>
      <point x="572" y="103"/>
      <point x="572" y="269" type="curve" smooth="yes"/>
      <point x="572" y="460"/>
      <point x="474" y="554"/>
      <point x="301" y="554" type="curve" smooth="yes"/>
    </contour>
  </outline>
</glyph>
<glyph name="sigmafinal" format="1">
  <advance width="484"/>
  <unicode hex="03C2"/>
  <outline>
    <contour>
      <point x="131" y="554"/>
      <point x="17" y="435"/>
      <point x="17" y="278" type="curve" smooth="yes"/>
      <point x="17" y="126"/>
      <point x="87" y="71"/>
      <point x="192" y="23" type="curve" smooth="yes"/>
      <point x="250" y="-4"/>
      <point x="259" y="-16"/>
      <point x="259" y="-40" type="curve" smooth="yes"/>
      <point x="259" y="-70"/>
      <point x="233" y="-88"/>
      <point x="193" y="-114" type="curve"/>
      <point x="264" y="-227" type="line"/>
      <point x="396" y="-172"/>
      <point x="460" y="-110"/>
      <point x="460" y="-21" type="curve" smooth="yes"/>
      <point x="460" y="64"/>
      <point x="415" y="100"/>
      <point x="336" y="135" type="curve" smooth="yes"/>
      <point x="246" y="175"/>
      <point x="223" y="207"/>
      <point x="223" y="278" type="curve" smooth="yes"/>
      <point x="223" y="374"/>
      <point x="260" y="405"/>
      <point x="313" y="405" type="curve" smooth="yes"/>
      <point x="345" y="405"/>
      <point x="375" y="394"/>
      <point x="407" y="368" type="curve"/>
      <point x="489" y="483" type="line"/>
      <point x="438" y="528"/>
      <point x="377" y="554"/>
      <point x="295" y="554" type="curve" smooth="yes"/>
    </contour>
  </outline>
</glyph>
<glyph name="sigma" format="1">
  <advance width="613"/>
  <unicode hex="03C3"/>
  <outline>
    <contour>
      <point x="507" y="539"/>
      <point x="417" y="544"/>
      <point x="313" y="544" type="curve" smooth="yes"/>
      <point x="111" y="544"/>
      <point x="17" y="437"/>
      <point x="17" y="268" type="curve"/>
      <point x="17" y="82"/>
      <point x="124" y="-20"/>
      <point x="292" y="-20" type="curve"/>
      <point x="462" y="-20"/>
      <point x="567" y="92"/>
      <point x="567" y="256" type="curve"/>
      <point x="567" y="350"/>
      <point x="535" y="395"/>
      <point x="470" y="436" type="curve"/>
      <point x="320" y="428" type="line"/>
      <point x="348" y="408"/>
      <point x="364" y="378"/>
      <point x="364" y="256" type="curve"/>
      <point x="364" y="165"/>
      <point x="342" y="122"/>
      <point x="292" y="122" type="curve"/>
      <point x="242" y="122"/>
      <point x="220" y="162"/>
      <point x="220" y="268" type="curve"/>
      <point x="220" y="397"/>
      <point x="251" y="405"/>
      <point x="345" y="405" type="curve"/>
      <point x="459" y="403" type="line"/>
      <point x="613" y="393" type="line"/>
      <point x="613" y="534" type="line"/>
    </contour>
  </outline>
</glyph>
<glyph name="tau" format="1">
  <advance width="495"/>
  <unicode hex="03C4"/>
  <outline>
    <contour>
      <point x="152" y="407" type="line"/>
      <point x="152" y="176" type="line"/>
      <point x="152" y="52"/>
      <point x="221" y="-4"/>
      <point x="335" y="-20" type="curve"/>
      <point x="391" y="121" type="line"/>
      <point x="360" y="137"/>
      <point x="350" y="157"/>
      <point x="350" y="202" type="curve"/>
      <point x="350" y="407" type="line"/>
    </contour>
    <contour>
      <point x="53" y="388"/>
      <point x="67" y="390"/>
      <point x="116" y="390" type="curve" smooth="yes"/>
      <point x="495" y="390" type="line"/>
      <point x="495" y="534" type="line"/>
      <point x="162" y="534" type="line"/>
      <point x="68" y="534"/>
      <point x="28" y="524"/>
      <point x="-10" y="506" type="curve"/>
      <point x="25" y="379" type="line"/>
    </contour>
  </outline>
</glyph>
<glyph name="phi" format="1">
  <advance width="767"/>
  <unicode hex="03C6"/>
  <outline>
    <contour>
      <point x="365" y="554"/>
      <point x="292" y="462"/>
      <point x="292" y="317" type="curve"/>
      <point x="292" y="-227" type="line"/>
      <point x="475" y="-207" type="line"/>
      <point x="475" y="326" type="line"/>
      <point x="475" y="410"/>
      <point x="485" y="426"/>
      <point x="512" y="426" type="curve" smooth="yes"/>
      <point x="541" y="426"/>
      <point x="556" y="404"/>
      <point x="556" y="269" type="curve" smooth="yes"/>
      <point x="556" y="155"/>
      <point x="538" y="118"/>
      <point x="458" y="111" type="curve"/>
      <point x="455" y="-20" type="line"/>
      <point x="653" y="-4"/>
      <point x="745" y="85"/>
      <point x="745" y="271" type="curve" smooth="yes"/>
      <point x="745" y="452"/>
      <point x="671" y="554"/>
      <point x="511" y="554" type="curve" smooth="yes"/>
    </contour>
    <contour>
      <point x="81" y="534" type="line"/>
      <point x="50" y="456"/>
      <point x="20" y="356"/>
      <point x="20" y="241" type="curve" smooth="yes"/>
      <point x="20" y="93"/>
      <point x="113" y="-5"/>
      <point x="314" y="-20" type="curve"/>
      <point x="310" y="110" type="line"/>
      <point x="231" y="119"/>
      <point x="210" y="165"/>
      <point x="210" y="263" type="curve" smooth="yes"/>
      <point x="210" y="352"/>
      <point x="237" y="438"/>
      <point x="267" y="534" type="curve"/>
    </contour>
  </outline>
</glyph>
<glyph name="psi" format="1">
  <advance width="795"/>
  <unicode hex="03C8"/>
  <outline>
    <contour>
      <point x="550" y="534" type="line"/>
      <point x="565" y="444"/>
      <point x="577" y="336"/>
      <point x="577" y="247" type="curve" smooth="yes"/>
      <point x="577" y="167"/>
      <point x="546" y="125"/>
      <point x="477" y="116" type="curve"/>
      <point x="475" y="-19" type="line"/>
      <point x="651" y="-7"/>
      <point x="770" y="80"/>
      <point x="770" y="242" type="curve" smooth="yes"/>
      <point x="770" y="359"/>
      <point x="756" y="456"/>
      <point x="739" y="534" type="curve"/>
    </contour>
    <contour>
      <point x="35" y="534" type="line"/>
      <point x="35" y="205" type="line" smooth="yes"/>
      <point x="35" y="83"/>
      <point x="132" y="-8"/>
      <point x="329" y="-20" type="curve"/>
      <point x="328" y="114" type="line"/>
      <point x="252" y="121"/>
      <point x="228" y="157"/>
      <point x="228" y="215" type="curve" smooth="yes"/>
      <point x="228" y="534" type="line"/>
    </contour>
    <contour>
      <point x="306" y="534" type="line"/>
      <point x="306" y="-227" type="line"/>
      <point x="494" y="-207" type="line"/>
      <point x="494" y="534" type="line"/>
    </contour>
  </outline>
</glyph>
<glyph name="uni0404" format="1">
  <advance width="579"/>
  <unicode hex="0404"/>
  <outline>
    <contour>
      <point x="156" y="716"/>
      <point x="20" y="582"/>
      <point x="20" y="350" type="curve" smooth="yes"/>
      <point x="20" y="109"/>
      <point x="149" y="-20"/>
      <point x="343" y="-20" type="curve" smooth="yes"/>
      <point x="450" y="-20"/>
      <point x="532" y="26"/>
      <point x="584" y="78" type="curve"/>
      <point x="498" y="189" type="line"/>
      <point x="458" y="156"/>
      <point x="416" y="129"/>
      <point x="359" y="129" type="curve" smooth="yes"/>
      <point x="285" y="129"/>
      <point x="227" y="193"/>
      <point x="227" y="308" type="curve"/>
      <point x="226" y="402" type="line"/>
      <point x="231" y="511"/>
      <point x="284" y="571"/>
      <point x="357" y="571" type="curve" smooth="yes"/>
      <point x="403" y="571"/>
      <point x="441" y="554"/>
      <point x="480" y="521" type="curve"/>
      <point x="576" y="633" type="line"/>
      <point x="516" y="685"/>
      <point x="443" y="716"/>
      <point x="348" y="716" type="curve" smooth="yes"/>
    </contour>
    <contour>
      <point x="212" y="424" type="line"/>
      <point x="212" y="286" type="line"/>
      <point x="451" y="286" type="line"/>
      <point x="451" y="424" type="line"/>
    </contour>
  </outline>
</glyph>
<glyph name="uni0409" format="1">
  <advance width="952"/>
  <unicode hex="0409"/>
  <outline>
    <contour>
      <point x="399" y="656" type="line"/>
      <point x="399" y="0" type="line"/>
      <point x="667" y="0" type="line" smooth="yes"/>
      <point x="826" y="0"/>
      <point x="942" y="80"/>
      <point x="942" y="242" type="curve" smooth="yes"/>
      <point x="942" y="395"/>
      <point x="839" y="469"/>
      <point x="659" y="469" type="curve" smooth="yes"/>
      <point x="589" y="469" type="line"/>
      <point x="589" y="331" type="line"/>
      <point x="636" y="331" type="line" smooth="yes"/>
      <point x="704" y="331"/>
      <point x="728" y="295"/>
      <point x="728" y="240" type="curve" smooth="yes"/>
      <point x="728" y="181"/>
      <point x="701" y="145"/>
      <point x="640" y="145" type="curve" smooth="yes"/>
      <point x="605" y="145" type="line"/>
      <point x="605" y="696" type="line"/>
    </contour>
    <contour>
      <point x="93" y="364" type="line" smooth="yes"/>
      <point x="74" y="208"/>
      <point x="66" y="150"/>
      <point x="-5" y="120" type="curve"/>
      <point x="43" y="-20" type="line"/>
      <point x="214" y="11"/>
      <point x="257" y="135"/>
      <point x="282" y="348" type="curve" smooth="yes"/>
      <point x="306" y="555" type="line"/>
      <point x="133" y="696" type="line"/>
    </contour>
    <contour>
      <point x="133" y="696" type="line"/>
      <point x="256" y="544" type="line"/>
      <point x="399" y="544" type="line"/>
      <point x="605" y="696" type="line"/>
    </contour>
  </outline>
</glyph>
<glyph name="uni040B" format="1">
  <advance width="770"/>
  <unicode hex="040B"/>
  <outline>
    <contour>
      <point x="5" y="696" type="line"/>
      <point x="5" y="546" type="line"/>
      <point x="538" y="546" type="line"/>
      <point x="559" y="696" type="line"/>
    </contour>
    <component base="uni04BA" xOffset="131"/>
  </outline>
</glyph>
<glyph name="uni040D" format="1">
  <advance width="651"/>
  <unicode hex="040D"/>
  <outline>
    <component base="uni0418"/>
    <component base="grave.case" xOffset="139"/>
    <contour>
      <point x="326" y="696" type="move" name="top"/>
    </contour>
  </outline>
</glyph>
<glyph name="uni0411" format="1">
  <advance width="606"/>
  <unicode hex="0411"/>
  <outline>
    <contour>
      <point x="43" y="696" type="line"/>
      <point x="43" y="0" type="line"/>
      <point x="321" y="0" type="line" smooth="yes"/>
      <point x="480" y="0"/>
      <point x="596" y="80"/>
      <point x="596" y="235" type="curve" smooth="yes"/>
      <point x="596" y="382"/>
      <point x="493" y="456"/>
      <point x="313" y="456" type="curve" smooth="yes"/>
      <point x="233" y="456" type="line"/>
      <point x="233" y="318" type="line"/>
      <point x="290" y="318" type="line" smooth="yes"/>
      <point x="358" y="318"/>
      <point x="382" y="282"/>
      <point x="382" y="233" type="curve" smooth="yes"/>
      <point x="382" y="181"/>
      <point x="355" y="145"/>
      <point x="294" y="145" type="curve" smooth="yes"/>
      <point x="249" y="145" type="line"/>
      <point x="249" y="686" type="line"/>
    </contour>
    <contour>
      <point x="43" y="696" type="line"/>
      <point x="233" y="543" type="line"/>
      <point x="491" y="543" type="line"/>
      <point x="511" y="696" type="line"/>
    </contour>
  </outline>
</glyph>
<glyph name="uni0413" format="1">
  <advance width="511"/>
  <unicode hex="0413"/>
  <outline>
    <contour>
      <point x="43" y="0" type="line"/>
      <point x="249" y="0" type="line"/>
      <point x="249" y="584" type="line"/>
      <point x="43" y="696" type="line"/>
    </contour>
    <contour>
      <point x="43" y="696" type="line"/>
      <point x="233" y="538" type="line"/>
      <point x="496" y="538" type="line"/>
      <point x="516" y="696" type="line"/>
    </contour>
    <contour>
      <point x="286" y="696" type="move" name="top"/>
    </contour>
    <contour>
      <point x="259" y="0" type="move" name="bottomright"/>
    </contour>
  </outline>
</glyph>
<glyph name="uni0416" format="1">
  <advance width="956"/>
  <unicode hex="0416"/>
  <outline>
    <contour>
      <point x="757" y="696" type="line"/>
      <point x="616" y="430" type="line"/>
      <point x="571" y="430" type="line"/>
      <point x="571" y="696" type="line"/>
      <point x="385" y="696" type="line"/>
      <point x="385" y="430" type="line"/>
      <point x="340" y="430" type="line"/>
      <point x="201" y="696" type="line"/>
      <point x="3" y="696" type="line"/>
      <point x="170" y="387" type="line"/>
      <point x="-15" y="0" type="line"/>
      <point x="202" y="0" type="line"/>
      <point x="334" y="291" type="line"/>
      <point x="385" y="291" type="line"/>
      <point x="385" y="0" type="line"/>
      <point x="571" y="0" type="line"/>
      <point x="571" y="291" type="line"/>
      <point x="620" y="291" type="line"/>
      <point x="750" y="0" type="line"/>
      <point x="971" y="0" type="line"/>
      <point x="786" y="387" type="line"/>
      <point x="953" y="696" type="line"/>
    </contour>
    <contour>
      <point x="478" y="696" type="move" name="top"/>
    </contour>
    <contour>
      <point x="901" y="0" type="move" name="bottomright"/>
    </contour>
  </outline>
</glyph>
<glyph name="uni0417" format="1">
  <advance width="553"/>
  <unicode hex="0417"/>
  <outline>
    <contour>
      <point x="163" y="716"/>
      <point x="79" y="683"/>
      <point x="13" y="620" type="curve"/>
      <point x="108" y="520" type="line"/>
      <point x="153" y="556"/>
      <point x="193" y="572"/>
      <point x="233" y="572" type="curve" smooth="yes"/>
      <point x="288" y="572"/>
      <point x="308" y="543"/>
      <point x="308" y="506" type="curve" smooth="yes"/>
      <point x="308" y="462"/>
      <point x="279" y="436"/>
      <point x="221" y="436" type="curve" smooth="yes"/>
      <point x="163" y="436" type="line"/>
      <point x="140" y="295" type="line"/>
      <point x="217" y="295" type="line" smooth="yes"/>
      <point x="290" y="295"/>
      <point x="324" y="262"/>
      <point x="324" y="209" type="curve" smooth="yes"/>
      <point x="324" y="153"/>
      <point x="286" y="126"/>
      <point x="227" y="126" type="curve" smooth="yes"/>
      <point x="178" y="126"/>
      <point x="141" y="145"/>
      <point x="97" y="184" type="curve"/>
      <point x="-10" y="80" type="line"/>
      <point x="49" y="17"/>
      <point x="125" y="-20"/>
      <point x="243" y="-20" type="curve" smooth="yes"/>
      <point x="419" y="-20"/>
      <point x="538" y="62"/>
      <point x="538" y="196" type="curve" smooth="yes"/>
      <point x="538" y="296"/>
      <point x="473" y="354"/>
      <point x="352" y="367" type="curve"/>
      <point x="470" y="391"/>
      <point x="518" y="455"/>
      <point x="518" y="530" type="curve" smooth="yes"/>
      <point x="518" y="639"/>
      <point x="418" y="716"/>
      <point x="264" y="716" type="curve" smooth="yes"/>
    </contour>
    <contour>
      <point x="267" y="696" type="move" name="top"/>
    </contour>
    <contour>
      <point x="270" y="0" type="move" name="bottom"/>
    </contour>
  </outline>
</glyph>
<glyph name="uni0418" format="1">
  <advance width="651"/>
  <unicode hex="0418"/>
  <outline>
    <contour>
      <point x="369" y="696" type="line"/>
      <point x="214" y="200" type="line"/>
      <point x="228" y="272"/>
      <point x="244" y="348"/>
      <point x="244" y="475" type="curve" smooth="yes"/>
      <point x="244" y="696" type="line"/>
      <point x="43" y="696" type="line"/>
      <point x="43" y="0" type="line"/>
      <point x="287" y="0" type="line"/>
      <point x="437" y="501" type="line"/>
      <point x="422" y="432"/>
      <point x="407" y="342"/>
      <point x="407" y="213" type="curve" smooth="yes"/>
      <point x="407" y="0" type="line"/>
      <point x="608" y="0" type="line"/>
      <point x="608" y="696" type="line"/>
    </contour>
    <contour>
      <point x="326" y="696" type="move" name="top"/>
    </contour>
  </outline>
</glyph>
<glyph name="uni041A" format="1">
  <advance width="644"/>
  <unicode hex="041A"/>
  <outline>
    <contour>
      <point x="443" y="696" type="line"/>
      <point x="314" y="433" type="line"/>
      <point x="249" y="433" type="line"/>
      <point x="249" y="696" type="line"/>
      <point x="43" y="696" type="line"/>
      <point x="43" y="0" type="line"/>
      <point x="249" y="0" type="line"/>
      <point x="249" y="288" type="line"/>
      <point x="309" y="288" type="line"/>
      <point x="438" y="0" type="line"/>
      <point x="659" y="0" type="line"/>
      <point x="482" y="387" type="line"/>
      <point x="641" y="696" type="line"/>
    </contour>
    <contour>
      <point x="322" y="696" type="move" name="top"/>
    </contour>
    <contour>
      <point x="589" y="0" type="move" name="bottomright"/>
    </contour>
  </outline>
</glyph>
<glyph name="uni041B" format="1">
  <advance width="653"/>
  <unicode hex="041B"/>
  <outline>
    <contour>
      <point x="133" y="696" type="line"/>
      <point x="290" y="544" type="line"/>
      <point x="404" y="544" type="line"/>
      <point x="404" y="0" type="line"/>
      <point x="610" y="0" type="line"/>
      <point x="610" y="696" type="line"/>
    </contour>
    <contour>
      <point x="93" y="364" type="line" smooth="yes"/>
      <point x="74" y="208"/>
      <point x="66" y="150"/>
      <point x="-5" y="120" type="curve"/>
      <point x="43" y="-20" type="line"/>
      <point x="214" y="11"/>
      <point x="257" y="135"/>
      <point x="282" y="348" type="curve" smooth="yes"/>
      <point x="306" y="555" type="line"/>
      <point x="133" y="696" type="line"/>
    </contour>
  </outline>
</glyph>
<glyph name="uni0427" format="1">
  <advance width="619"/>
  <unicode hex="0427"/>
  <outline>
    <contour>
      <point x="10" y="696" type="line"/>
      <point x="10" y="451" type="line" smooth="yes"/>
      <point x="10" y="293"/>
      <point x="89" y="195"/>
      <point x="232" y="195" type="curve" smooth="yes"/>
      <point x="296" y="195"/>
      <point x="344" y="215"/>
      <point x="386" y="254" type="curve"/>
      <point x="385" y="379" type="line"/>
      <point x="363" y="355"/>
      <point x="338" y="341"/>
      <point x="293" y="341" type="curve" smooth="yes"/>
      <point x="234" y="341"/>
      <point x="212" y="374"/>
      <point x="212" y="451" type="curve" smooth="yes"/>
      <point x="212" y="696" type="line"/>
    </contour>
    <contour>
      <point x="374" y="696" type="line"/>
      <point x="374" y="0" type="line"/>
      <point x="576" y="0" type="line"/>
      <point x="576" y="696" type="line"/>
    </contour>
    <contour>
      <point x="293" y="696" type="move" name="top"/>
    </contour>
    <contour>
      <point x="586" y="0" type="move" name="bottomright"/>
    </contour>
    <contour>
      <point x="354" y="0" type="move" name="bottomleft"/>
    </contour>
  </outline>
</glyph>
<glyph name="uni0428" format="1">
  <advance width="900"/>
  <unicode hex="0428"/>
  <outline>
    <contour>
      <point x="655" y="696" type="line"/>
      <point x="655" y="158" type="line"/>
      <point x="546" y="158" type="line"/>
      <point x="546" y="696" type="line"/>
      <point x="354" y="696" type="line"/>
      <point x="354" y="158" type="line"/>
      <point x="245" y="158" type="line"/>
      <point x="245" y="696" type="line"/>
      <point x="43" y="696" type="line"/>
      <point x="43" y="0" type="line"/>
      <point x="857" y="0" type="line"/>
      <point x="857" y="696" type="line"/>
    </contour>
    <contour>
      <point x="867" y="0" type="move" name="bottomright"/>
    </contour>
  </outline>
</glyph>
<glyph name="uni042A" format="1">
  <advance width="732"/>
  <unicode hex="042A"/>
  <outline>
    <contour>
      <point x="375" y="696" type="line"/>
      <point x="0" y="696" type="line"/>
      <point x="0" y="546" type="line"/>
      <point x="169" y="546" type="line"/>
    </contour>
    <component base="uni042C" xOffset="126"/>
  </outline>
</glyph>
<glyph name="uni042D" format="1">
  <advance width="541"/>
  <unicode hex="042D"/>
  <outline>
    <contour>
      <point x="117" y="716"/>
      <point x="55" y="685"/>
      <point x="-5" y="633" type="curve"/>
      <point x="91" y="521" type="line"/>
      <point x="128" y="554"/>
      <point x="158" y="571"/>
      <point x="204" y="571" type="curve" smooth="yes"/>
      <point x="277" y="571"/>
      <point x="310" y="521"/>
      <point x="315" y="402" type="curve"/>
      <point x="314" y="308" type="line"/>
      <point x="314" y="188"/>
      <point x="276" y="129"/>
      <point x="201" y="129" type="curve" smooth="yes"/>
      <point x="155" y="129"/>
      <point x="123" y="144"/>
      <point x="86" y="174" type="curve"/>
      <point x="-3" y="64" type="line"/>
      <point x="52" y="11"/>
      <point x="119" y="-20"/>
      <point x="218" y="-20" type="curve" smooth="yes"/>
      <point x="404" y="-20"/>
      <point x="521" y="109"/>
      <point x="521" y="350" type="curve" smooth="yes"/>
      <point x="521" y="582"/>
      <point x="415" y="716"/>
      <point x="223" y="716" type="curve" smooth="yes"/>
    </contour>
    <contour>
      <point x="100" y="424" type="line"/>
      <point x="100" y="286" type="line"/>
      <point x="329" y="286" type="line"/>
      <point x="329" y="424" type="line"/>
    </contour>
    <contour>
      <point x="241" y="696" type="move" name="top"/>
    </contour>
  </outline>
</glyph>
<glyph name="uni042E" format="1">
  <advance width="951"/>
  <unicode hex="042E"/>
  <outline>
    <contour>
      <point x="426" y="716"/>
      <point x="332" y="595"/>
      <point x="311" y="389" type="curve"/>
      <point x="311" y="339" type="line"/>
      <point x="315" y="118"/>
      <point x="411" y="-20"/>
      <point x="616" y="-20" type="curve" smooth="yes"/>
      <point x="820" y="-20"/>
      <point x="931" y="123"/>
      <point x="931" y="349" type="curve" smooth="yes"/>
      <point x="931" y="580"/>
      <point x="820" y="716"/>
      <point x="616" y="716" type="curve" smooth="yes"/>
    </contour>
    <contour>
      <point x="43" y="696" type="line"/>
      <point x="43" y="0" type="line"/>
      <point x="249" y="0" type="line"/>
      <point x="249" y="281" type="line"/>
      <point x="378" y="281" type="line"/>
      <point x="378" y="439" type="line"/>
      <point x="249" y="439" type="line"/>
      <point x="249" y="696" type="line"/>
    </contour>
    <contour>
      <point x="687" y="570"/>
      <point x="717" y="510"/>
      <point x="717" y="349" type="curve" smooth="yes"/>
      <point x="717" y="188"/>
      <point x="689" y="126"/>
      <point x="616" y="126" type="curve" smooth="yes"/>
      <point x="545" y="126"/>
      <point x="515" y="188"/>
      <point x="515" y="349" type="curve" smooth="yes"/>
      <point x="515" y="510"/>
      <point x="545" y="570"/>
      <point x="616" y="570" type="curve" smooth="yes"/>
    </contour>
  </outline>
</glyph>
<glyph name="uni042F" format="1">
  <advance width="609"/>
  <unicode hex="042F"/>
  <outline>
    <contour>
      <point x="141" y="287" type="line"/>
      <point x="-15" y="0" type="line"/>
      <point x="209" y="0" type="line"/>
      <point x="320" y="252" type="line"/>
    </contour>
    <contour>
      <point x="298" y="237" type="line"/>
      <point x="376" y="237" type="line"/>
      <point x="376" y="375" type="line"/>
      <point x="316" y="375" type="line" smooth="yes"/>
      <point x="267" y="375"/>
      <point x="231" y="404"/>
      <point x="231" y="461" type="curve" smooth="yes"/>
      <point x="231" y="521"/>
      <point x="265" y="555"/>
      <point x="324" y="555" type="curve" smooth="yes"/>
      <point x="360" y="555" type="line"/>
      <point x="360" y="0" type="line"/>
      <point x="566" y="0" type="line"/>
      <point x="566" y="696" type="line"/>
      <point x="314" y="696" type="line" smooth="yes"/>
      <point x="117" y="696"/>
      <point x="17" y="624"/>
      <point x="17" y="467" type="curve" smooth="yes"/>
      <point x="17" y="358"/>
      <point x="64" y="300"/>
      <point x="148" y="267" type="curve"/>
    </contour>
  </outline>
</glyph>
<glyph name="uni0431" format="1">
  <advance width="570"/>
  <unicode hex="0431"/>
  <outline>
    <contour>
      <point x="367" y="730"/>
      <point x="335" y="714"/>
      <point x="248" y="688" type="curve" smooth="yes"/>
      <point x="69" y="634"/>
      <point x="17" y="528"/>
      <point x="17" y="302" type="curve" smooth="yes"/>
      <point x="17" y="76"/>
      <point x="124" y="-20"/>
      <point x="287" y="-20" type="curve" smooth="yes"/>
      <point x="449" y="-20"/>
      <point x="553" y="86"/>
      <point x="553" y="246" type="curve" smooth="yes"/>
      <point x="553" y="409"/>
      <point x="459" y="495"/>
      <point x="353" y="495" type="curve" smooth="yes"/>
      <point x="271" y="495"/>
      <point x="225" y="461"/>
      <point x="184" y="396" type="curve"/>
      <point x="213" y="293" type="line"/>
      <point x="229" y="334"/>
      <point x="260" y="353"/>
      <point x="291" y="353" type="curve" smooth="yes"/>
      <point x="329" y="353"/>
      <point x="350" y="334"/>
      <point x="350" y="240" type="curve" smooth="yes"/>
      <point x="350" y="149"/>
      <point x="326" y="122"/>
      <point x="285" y="122" type="curve" smooth="yes"/>
      <point x="246" y="122"/>
      <point x="220" y="150"/>
      <point x="220" y="236" type="curve" smooth="yes"/>
      <point x="220" y="415" type="line"/>
      <point x="201" y="419" type="line"/>
      <point x="212" y="512"/>
      <point x="243" y="545"/>
      <point x="321" y="569" type="curve" smooth="yes"/>
      <point x="399" y="593"/>
      <point x="445" y="609"/>
      <point x="498" y="644" type="curve"/>
      <point x="430" y="764" type="line"/>
    </contour>
  </outline>
</glyph>
<glyph name="uni0432" format="1">
  <advance width="552"/>
  <unicode hex="0432"/>
  <outline>
    <contour>
      <point x="201" y="554"/>
      <point x="131" y="545"/>
      <point x="42" y="529" type="curve"/>
      <point x="42" y="0" type="line"/>
      <point x="288" y="0" type="line" smooth="yes"/>
      <point x="434" y="0"/>
      <point x="535" y="50"/>
      <point x="535" y="161" type="curve" smooth="yes"/>
      <point x="535" y="235"/>
      <point x="494" y="283"/>
      <point x="398" y="295" type="curve"/>
      <point x="475" y="309"/>
      <point x="513" y="350"/>
      <point x="513" y="409" type="curve" smooth="yes"/>
      <point x="513" y="507"/>
      <point x="422" y="554"/>
      <point x="274" y="554" type="curve" smooth="yes"/>
    </contour>
    <contour>
      <point x="303" y="435"/>
      <point x="320" y="415"/>
      <point x="320" y="382" type="curve" smooth="yes"/>
      <point x="320" y="348"/>
      <point x="301" y="329"/>
      <point x="270" y="329" type="curve" smooth="yes"/>
      <point x="224" y="329" type="line"/>
      <point x="224" y="237" type="line"/>
      <point x="280" y="237" type="line" smooth="yes"/>
      <point x="316" y="237"/>
      <point x="333" y="216"/>
      <point x="333" y="181" type="curve" smooth="yes"/>
      <point x="333" y="144"/>
      <point x="317" y="123"/>
      <point x="280" y="123" type="curve" smooth="yes"/>
      <point x="240" y="123" type="line"/>
      <point x="240" y="433" type="line"/>
      <point x="251" y="434"/>
      <point x="262" y="435"/>
      <point x="271" y="435" type="curve"/>
    </contour>
  </outline>
</glyph>
<glyph name="uni0437" format="1">
  <advance width="496"/>
  <unicode hex="0437"/>
  <outline>
    <contour>
      <point x="144" y="554"/>
      <point x="72" y="533"/>
      <point x="10" y="491" type="curve"/>
      <point x="100" y="390" type="line"/>
      <point x="134" y="411"/>
      <point x="165" y="422"/>
      <point x="205" y="422" type="curve" smooth="yes"/>
      <point x="237" y="422"/>
      <point x="255" y="407"/>
      <point x="255" y="380" type="curve" smooth="yes"/>
      <point x="255" y="350"/>
      <point x="240" y="332"/>
      <point x="200" y="332" type="curve" smooth="yes"/>
      <point x="133" y="332" type="line"/>
      <point x="122" y="212" type="line"/>
      <point x="213" y="212" type="line" smooth="yes"/>
      <point x="259" y="212"/>
      <point x="276" y="194"/>
      <point x="276" y="165" type="curve" smooth="yes"/>
      <point x="276" y="135"/>
      <point x="259" y="116"/>
      <point x="213" y="116" type="curve" smooth="yes"/>
      <point x="169" y="116"/>
      <point x="137" y="124"/>
      <point x="88" y="152" type="curve"/>
      <point x="-5" y="43" type="line"/>
      <point x="54" y="1"/>
      <point x="128" y="-20"/>
      <point x="220" y="-20" type="curve" smooth="yes"/>
      <point x="375" y="-20"/>
      <point x="479" y="37"/>
      <point x="479" y="152" type="curve" smooth="yes"/>
      <point x="479" y="231"/>
      <point x="428" y="271"/>
      <point x="331" y="284" type="curve"/>
      <point x="411" y="303"/>
      <point x="454" y="343"/>
      <point x="454" y="404" type="curve" smooth="yes"/>
      <point x="454" y="497"/>
      <point x="360" y="554"/>
      <point x="235" y="554" type="curve" smooth="yes"/>
    </contour>
    <contour>
      <point x="238" y="534" type="move" name="top"/>
    </contour>
    <contour>
      <point x="230" y="0" type="move" name="bottom"/>
    </contour>
  </outline>
</glyph>
<glyph name="uni0438" format="1">
  <advance width="585"/>
  <unicode hex="0438"/>
  <outline>
    <contour>
      <point x="350" y="534" type="line"/>
      <point x="201" y="178" type="line"/>
      <point x="217" y="233"/>
      <point x="229" y="297"/>
      <point x="229" y="370" type="curve" smooth="yes"/>
      <point x="229" y="534" type="line"/>
      <point x="42" y="534" type="line"/>
      <point x="42" y="0" type="line"/>
      <point x="234" y="0" type="line"/>
      <point x="385" y="352" type="line"/>
      <point x="370" y="297"/>
      <point x="357" y="234"/>
      <point x="357" y="160" type="curve" smooth="yes"/>
      <point x="357" y="0" type="line"/>
      <point x="543" y="0" type="line"/>
      <point x="543" y="534" type="line"/>
    </contour>
    <contour>
      <point x="293" y="534" type="move" name="top"/>
    </contour>
  </outline>
</glyph>
<glyph name="uni043A" format="1">
  <advance width="566"/>
  <unicode hex="043A"/>
  <outline>
    <contour>
      <point x="385" y="534" type="line"/>
      <point x="282" y="329" type="line"/>
      <point x="240" y="329" type="line"/>
      <point x="240" y="534" type="line"/>
      <point x="42" y="534" type="line"/>
      <point x="42" y="0" type="line"/>
      <point x="240" y="0" type="line"/>
      <point x="240" y="219" type="line"/>
      <point x="277" y="219" type="line"/>
      <point x="374" y="0" type="line"/>
      <point x="576" y="0" type="line"/>
      <point x="439" y="286" type="line"/>
      <point x="568" y="534" type="line"/>
    </contour>
    <contour>
      <point x="283" y="534" type="move" name="top"/>
    </contour>
    <contour>
      <point x="506" y="0" type="move" name="bottomright"/>
    </contour>
  </outline>
</glyph>
<glyph name="uni043B" format="1">
  <advance width="567"/>
  <unicode hex="043B"/>
  <outline>
    <contour>
      <point x="245" y="393" type="line"/>
      <point x="327" y="393" type="line"/>
      <point x="327" y="0" type="line"/>
      <point x="525" y="0" type="line"/>
      <point x="525" y="534" type="line"/>
      <point x="90" y="534" type="line"/>
    </contour>
    <contour>
      <point x="90" y="534" type="line"/>
      <point x="77" y="324" type="line" smooth="yes"/>
      <point x="67" y="167"/>
      <point x="59" y="157"/>
      <point x="0" y="127" type="curve"/>
      <point x="48" y="-13" type="line"/>
      <point x="219" y="20"/>
      <point x="236" y="102"/>
      <point x="256" y="317" type="curve" smooth="yes"/>
      <point x="263" y="393" type="line"/>
    </contour>
  </outline>
</glyph>
<glyph name="uni043C" format="1">
  <advance width="672"/>
  <unicode hex="043C"/>
  <outline>
    <contour>
      <point x="388" y="534" type="line"/>
      <point x="336" y="212" type="line"/>
      <point x="281" y="534" type="line"/>
      <point x="54" y="534" type="line"/>
      <point x="10" y="0" type="line"/>
      <point x="195" y="0" type="line"/>
      <point x="199" y="154" type="line" smooth="yes"/>
      <point x="201" y="230"/>
      <point x="201" y="291"/>
      <point x="191" y="365" type="curve"/>
      <point x="257" y="51" type="line"/>
      <point x="415" y="51" type="line"/>
      <point x="480" y="365" type="line"/>
      <point x="471" y="289"/>
      <point x="469" y="228"/>
      <point x="472" y="154" type="curve" smooth="yes"/>
      <point x="476" y="0" type="line"/>
      <point x="662" y="0" type="line"/>
      <point x="617" y="534" type="line"/>
    </contour>
  </outline>
</glyph>
<glyph name="uni043F" format="1">
  <advance width="578"/>
  <unicode hex="043F"/>
  <outline>
    <contour>
      <point x="536" y="0" type="line"/>
      <point x="536" y="534" type="line"/>
      <point x="42" y="534" type="line"/>
      <point x="42" y="0" type="line"/>
      <point x="240" y="0" type="line"/>
      <point x="240" y="391" type="line"/>
      <point x="338" y="391" type="line"/>
      <point x="338" y="0" type="line"/>
    </contour>
    <contour>
      <point x="546" y="0" type="move" name="bottomright"/>
    </contour>
  </outline>
</glyph>
<glyph name="uni0447" format="1">
  <advance width="550"/>
  <unicode hex="0447"/>
  <outline>
    <contour>
      <point x="321" y="314" type="line"/>
      <point x="305" y="298"/>
      <point x="278" y="284"/>
      <point x="249" y="284" type="curve" smooth="yes"/>
      <point x="228" y="284"/>
      <point x="213" y="294"/>
      <point x="213" y="336" type="curve" smooth="yes"/>
      <point x="213" y="534" type="line"/>
      <point x="15" y="534" type="line"/>
      <point x="15" y="310" type="line" smooth="yes"/>
      <point x="15" y="208"/>
      <point x="61" y="140"/>
      <point x="167" y="140" type="curve" smooth="yes"/>
      <point x="229" y="140"/>
      <point x="283" y="162"/>
      <point x="321" y="194" type="curve"/>
    </contour>
    <contour>
      <point x="310" y="0" type="line"/>
      <point x="508" y="0" type="line"/>
      <point x="508" y="534" type="line"/>
      <point x="310" y="534" type="line"/>
    </contour>
    <contour>
      <point x="262" y="534" type="move" name="top"/>
    </contour>
    <contour>
      <point x="518" y="0" type="move" name="bottomright"/>
    </contour>
    <contour>
      <point x="300" y="0" type="move" name="bottomleft"/>
    </contour>
  </outline>
</glyph>
<glyph name="uni044F" format="1">
  <advance width="560"/>
  <unicode hex="044F"/>
  <outline>
    <contour>
      <point x="121" y="534"/>
      <point x="30" y="473"/>
      <point x="30" y="353" type="curve" smooth="yes"/>
      <point x="30" y="279"/>
      <point x="74" y="230"/>
      <point x="135" y="208" type="curve"/>
      <point x="270" y="175" type="line"/>
      <point x="336" y="175" type="line"/>
      <point x="336" y="283" type="line"/>
      <point x="294" y="283" type="line" smooth="yes"/>
      <point x="250" y="283"/>
      <point x="230" y="314"/>
      <point x="230" y="351" type="curve" smooth="yes"/>
      <point x="230" y="386"/>
      <point x="251" y="414"/>
      <point x="298" y="414" type="curve" smooth="yes"/>
      <point x="320" y="414" type="line"/>
      <point x="320" y="0" type="line"/>
      <point x="518" y="0" type="line"/>
      <point x="518" y="534" type="line"/>
      <point x="298" y="534" type="line"/>
    </contour>
    <contour>
      <point x="-15" y="0" type="line"/>
      <point x="194" y="0" type="line"/>
      <point x="288" y="189" type="line"/>
      <point x="115" y="239" type="line"/>
    </contour>
  </outline>
</glyph>
<glyph name="uni0459" format="1">
  <advance width="795"/>
  <unicode hex="0459"/>
  <outline>
    <contour>
      <point x="321" y="524" type="line"/>
      <point x="321" y="0" type="line"/>
      <point x="554" y="0" type="line" smooth="yes"/>
      <point x="697" y="0"/>
      <point x="790" y="64"/>
      <point x="790" y="184" type="curve" smooth="yes"/>
      <point x="790" y="309"/>
      <point x="709" y="371"/>
      <point x="527" y="371" type="curve" smooth="yes"/>
      <point x="503" y="371" type="line"/>
      <point x="503" y="251" type="line"/>
      <point x="524" y="251" type="line" smooth="yes"/>
      <point x="573" y="251"/>
      <point x="591" y="229"/>
      <point x="591" y="188" type="curve" smooth="yes"/>
      <point x="591" y="149"/>
      <point x="573" y="123"/>
      <point x="532" y="123" type="curve" smooth="yes"/>
      <point x="519" y="123" type="line"/>
      <point x="519" y="534" type="line"/>
    </contour>
    <contour>
      <point x="90" y="534" type="line"/>
      <point x="224" y="393" type="line"/>
      <point x="321" y="393" type="line"/>
      <point x="519" y="534" type="line"/>
    </contour>
    <contour>
      <point x="90" y="534" type="line"/>
      <point x="77" y="324" type="line" smooth="yes"/>
      <point x="67" y="167"/>
      <point x="59" y="157"/>
      <point x="0" y="127" type="curve"/>
      <point x="48" y="-13" type="line"/>
      <point x="219" y="20"/>
      <point x="236" y="102"/>
      <point x="256" y="317" type="curve" smooth="yes"/>
      <point x="263" y="393" type="line"/>
    </contour>
  </outline>
</glyph>
<glyph name="uni0462" format="1">
  <advance width="737"/>
  <unicode hex="0462"/>
  <outline>
    <contour>
      <point x="174" y="0" type="line"/>
      <point x="452" y="0" type="line" smooth="yes"/>
      <point x="611" y="0"/>
      <point x="727" y="80"/>
      <point x="727" y="235" type="curve" smooth="yes"/>
      <point x="727" y="382"/>
      <point x="624" y="456"/>
      <point x="444" y="456" type="curve" smooth="yes"/>
      <point x="364" y="456" type="line"/>
      <point x="364" y="318" type="line"/>
      <point x="421" y="318" type="line" smooth="yes"/>
      <point x="489" y="318"/>
      <point x="513" y="282"/>
      <point x="513" y="233" type="curve" smooth="yes"/>
      <point x="513" y="181"/>
      <point x="486" y="145"/>
      <point x="425" y="145" type="curve" smooth="yes"/>
      <point x="380" y="145" type="line"/>
      <point x="380" y="686" type="line"/>
      <point x="174" y="685" type="line"/>
    </contour>
    <contour>
      <point x="5" y="696" type="line"/>
      <point x="5" y="545" type="line"/>
      <point x="538" y="545" type="line"/>
      <point x="559" y="696" type="line"/>
    </contour>
  </outline>
</glyph>
<glyph name="uni0474" format="1">
  <advance width="574"/>
  <unicode hex="0474"/>
  <outline>
    <contour>
      <point x="397" y="672"/>
      <point x="383" y="641"/>
      <point x="369" y="566" type="curve"/>
      <point x="297" y="140" type="line"/>
      <point x="191" y="696" type="line"/>
      <point x="-25" y="696" type="line"/>
      <point x="161" y="0" type="line"/>
      <point x="427" y="0" type="line"/>
      <point x="559" y="525" type="line" smooth="yes"/>
      <point x="579" y="604"/>
      <point x="595" y="635"/>
      <point x="614" y="668" type="curve"/>
      <point x="415" y="705" type="line"/>
    </contour>
  </outline>
</glyph>
<glyph name="uni0475" format="1">
  <advance width="526"/>
  <unicode hex="0475"/>
  <outline>
    <contour>
      <point x="348" y="521"/>
      <point x="332" y="486"/>
      <point x="320" y="422" type="curve" smooth="yes"/>
      <point x="267" y="143" type="line"/>
      <point x="200" y="534" type="line"/>
      <point x="-15" y="534" type="line"/>
      <point x="148" y="0" type="line"/>
      <point x="382" y="0" type="line"/>
      <point x="494" y="376" type="line" smooth="yes"/>
      <point x="519" y="459"/>
      <point x="535" y="492"/>
      <point x="554" y="520" type="curve"/>
      <point x="365" y="544" type="line"/>
    </contour>
  </outline>
</glyph>
<glyph name="uni0490" format="1">
  <advance width="511"/>
  <unicode hex="0490"/>
  <outline>
    <contour>
      <point x="516" y="696" type="line"/>
      <point x="516" y="854" type="line"/>
      <point x="328" y="854" type="line"/>
      <point x="328" y="686" type="line"/>
    </contour>
    <component base="uni0413"/>
  </outline>
</glyph>
<glyph name="uni0492" format="1">
  <advance width="521"/>
  <unicode hex="0492"/>
  <outline>
    <contour>
      <point x="-13" y="433" type="line"/>
      <point x="-13" y="317" type="line"/>
      <point x="53" y="317" type="line"/>
      <point x="392" y="317" type="line"/>
      <point x="392" y="433" type="line"/>
    </contour>
    <component base="uni0413" xOffset="10"/>
  </outline>
</glyph>
<glyph name="uni0493" format="1">
  <advance width="446"/>
  <unicode hex="0493"/>
  <outline>
    <contour>
      <point x="52" y="309" type="line"/>
      <point x="0" y="309" type="line"/>
      <point x="0" y="209" type="line"/>
      <point x="355" y="209" type="line"/>
      <point x="355" y="309" type="line"/>
    </contour>
    <component base="uni0433" xOffset="10"/>
  </outline>
</glyph>
<glyph name="uni049C" format="1">
  <advance width="657"/>
  <unicode hex="049C"/>
  <outline>
    <contour>
      <point x="451" y="696" type="line"/>
      <point x="349" y="425" type="line"/>
      <point x="239" y="425" type="line"/>
      <point x="239" y="696" type="line"/>
      <point x="43" y="696" type="line"/>
      <point x="43" y="0" type="line"/>
      <point x="239" y="0" type="line"/>
      <point x="239" y="296" type="line"/>
      <point x="353" y="296" type="line"/>
      <point x="446" y="0" type="line"/>
      <point x="667" y="0" type="line"/>
      <point x="511" y="387" type="line"/>
      <point x="649" y="696" type="line"/>
    </contour>
    <contour>
      <point x="270" y="575" type="line"/>
      <point x="270" y="145" type="line"/>
      <point x="336" y="145" type="line"/>
      <point x="336" y="575" type="line"/>
    </contour>
    <contour>
      <point x="322" y="696" type="move" name="top"/>
    </contour>
    <contour>
      <point x="589" y="0" type="move" name="bottomright"/>
    </contour>
  </outline>
</glyph>
<glyph name="uni04A0" format="1">
  <advance width="770"/>
  <unicode hex="04A0"/>
  <outline>
    <contour>
      <point x="0" y="696" type="line"/>
      <point x="0" y="546" type="line"/>
      <point x="189" y="546" type="line"/>
      <point x="355" y="696" type="line"/>
    </contour>
    <component base="uni041A" xOffset="126"/>
  </outline>
</glyph>
<glyph name="uni04A1" format="1">
  <advance width="663"/>
  <unicode hex="04A1"/>
  <outline>
    <contour>
      <point x="337" y="534" type="line"/>
      <point x="-5" y="534" type="line"/>
      <point x="-5" y="395" type="line"/>
      <point x="139" y="395" type="line"/>
    </contour>
    <component base="uni043A" xOffset="97"/>
  </outline>
</glyph>
<glyph name="uni04AF" format="1">
  <advance width="526"/>
  <unicode hex="04AF"/>
  <outline>
    <contour>
      <point x="339" y="534" type="line"/>
      <point x="267" y="160" type="line"/>
      <point x="202" y="534" type="line"/>
      <point x="-15" y="534" type="line"/>
      <point x="167" y="0" type="line"/>
      <point x="167" y="-227" type="line"/>
      <point x="359" y="-207" type="line"/>
      <point x="359" y="0" type="line"/>
      <point x="541" y="534" type="line"/>
    </contour>
  </outline>
</glyph>
<glyph name="uni04B0" format="1">
  <advance width="620"/>
  <unicode hex="04B0"/>
  <outline>
    <contour>
      <point x="208" y="320" type="line"/>
      <point x="99" y="320" type="line"/>
      <point x="99" y="214" type="line"/>
      <point x="413" y="214" type="line"/>
      <point x="522" y="214" type="line"/>
      <point x="522" y="320" type="line"/>
    </contour>
    <component base="Y"/>
  </outline>
</glyph>
<glyph name="uni04B1" format="1">
  <advance width="526"/>
  <unicode hex="04B1"/>
  <outline>
    <contour>
      <point x="359" y="-10" type="line"/>
      <point x="451" y="-10" type="line"/>
      <point x="451" y="90" type="line"/>
      <point x="75" y="90" type="line"/>
      <point x="75" y="-10" type="line"/>
      <point x="167" y="-10" type="line"/>
    </contour>
    <component base="uni04AF"/>
  </outline>
</glyph>
<glyph name="uni04B8" format="1">
  <advance width="631"/>
  <unicode hex="04B8"/>
  <outline>
    <contour>
      <point x="268" y="555" type="line"/>
      <point x="268" y="125" type="line"/>
      <point x="334" y="125" type="line"/>
      <point x="334" y="555" type="line"/>
    </contour>
    <component base="uni0427"/>
  </outline>
</glyph>
<glyph name="uni04BB" format="1">
  <advance width="567"/>
  <unicode hex="04BB"/>
  <outline>
    <contour>
      <point x="240" y="764" type="line"/>
      <point x="42" y="744" type="line"/>
      <point x="42" y="0" type="line"/>
      <point x="240" y="0" type="line"/>
    </contour>
    <contour>
      <point x="321" y="494"/>
      <point x="270" y="467"/>
      <point x="216" y="404" type="curve"/>
      <point x="240" y="297" type="line"/>
      <point x="263" y="333"/>
      <point x="286" y="350"/>
      <point x="307" y="350" type="curve" smooth="yes"/>
      <point x="325" y="350"/>
      <point x="337" y="340"/>
      <point x="337" y="298" type="curve"/>
      <point x="337" y="0" type="line"/>
      <point x="535" y="0" type="line"/>
      <point x="535" y="334" type="line" smooth="yes"/>
      <point x="535" y="436"/>
      <point x="480" y="494"/>
      <point x="391" y="494" type="curve" smooth="yes"/>
    </contour>
    <contour>
      <point x="545" y="0" type="move" name="bottomright"/>
    </contour>
  </outline>
</glyph>
<glyph name="uni04D9" format="1">
  <advance width="557"/>
  <unicode hex="04D9"/>
  <outline>
    <contour>
      <point x="170" y="554"/>
      <point x="102" y="526"/>
      <point x="47" y="483" type="curve"/>
      <point x="127" y="378" type="line"/>
      <point x="174" y="407"/>
      <point x="213" y="419"/>
      <point x="261" y="419" type="curve" smooth="yes"/>
      <point x="324" y="419"/>
      <point x="355" y="382"/>
      <point x="355" y="301" type="curve"/>
      <point x="355" y="237" type="line"/>
      <point x="353" y="147"/>
      <point x="326" y="115"/>
      <point x="274" y="115" type="curve" smooth="yes"/>
      <point x="223" y="115"/>
      <point x="199" y="151"/>
      <point x="197" y="204" type="curve" smooth="yes"/>
      <point x="197" y="207"/>
      <point x="197" y="209"/>
      <point x="197" y="211" type="curve"/>
      <point x="368" y="211" type="line"/>
      <point x="368" y="323" type="line"/>
      <point x="16" y="323" type="line"/>
      <point x="14" y="304"/>
      <point x="12" y="277"/>
      <point x="12" y="260" type="curve" smooth="yes"/>
      <point x="12" y="81"/>
      <point x="116" y="-20"/>
      <point x="274" y="-20" type="curve" smooth="yes"/>
      <point x="451" y="-20"/>
      <point x="540" y="112"/>
      <point x="540" y="268" type="curve" smooth="yes"/>
      <point x="540" y="434"/>
      <point x="456" y="554"/>
      <point x="269" y="554" type="curve" smooth="yes"/>
    </contour>
    <contour>
      <point x="276" y="534" type="move" name="top"/>
    </contour>
  </outline>
</glyph>
<glyph name="daggerdbl" format="1">
  <advance width="540"/>
  <unicode hex="2021"/>
  <outline>
    <contour>
      <point x="15" y="295" type="line"/>
      <point x="15" y="136" type="line"/>
      <point x="525" y="136" type="line"/>
      <point x="525" y="295" type="line"/>
    </contour>
    <component base="dagger"/>
  </outline>
</glyph>
<glyph name="perthousand" format="1">
  <advance width="1279"/>
  <unicode hex="2030"/>
  <outline>
    <contour>
      <point x="151" y="28" type="line"/>
      <point x="268" y="-45" type="line"/>
      <point x="732" y="652" type="line"/>
      <point x="614" y="725" type="line"/>
    </contour>
    <contour>
      <point x="251" y="582"/>
      <point x="261" y="546"/>
      <point x="261" y="510" type="curve" smooth="yes"/>
      <point x="261" y="474"/>
      <point x="251" y="438"/>
      <point x="207" y="438" type="curve" smooth="yes"/>
      <point x="163" y="438"/>
      <point x="152" y="474"/>
      <point x="152" y="510" type="curve" smooth="yes"/>
      <point x="152" y="546"/>
      <point x="163" y="582"/>
      <point x="207" y="582" type="curve" smooth="yes"/>
    </contour>
    <contour>
      <point x="104" y="696"/>
      <point x="20" y="624"/>
      <point x="20" y="510" type="curve" smooth="yes"/>
      <point x="20" y="396"/>
      <point x="104" y="324"/>
      <point x="207" y="324" type="curve" smooth="yes"/>
      <point x="311" y="324"/>
      <point x="394" y="396"/>
      <point x="394" y="510" type="curve" smooth="yes"/>
      <point x="394" y="624"/>
      <point x="311" y="696"/>
      <point x="207" y="696" type="curve" smooth="yes"/>
    </contour>
    <contour>
      <point x="716" y="238"/>
      <point x="726" y="202"/>
      <point x="726" y="166" type="curve" smooth="yes"/>
      <point x="726" y="130"/>
      <point x="716" y="94"/>
      <point x="672" y="94" type="curve" smooth="yes"/>
      <point x="628" y="94"/>
      <point x="617" y="130"/>
      <point x="617" y="166" type="curve" smooth="yes"/>
      <point x="617" y="202"/>
      <point x="628" y="238"/>
      <point x="672" y="238" type="curve" smooth="yes"/>
    </contour>
    <contour>
      <point x="569" y="352"/>
      <point x="484" y="280"/>
      <point x="484" y="166" type="curve" smooth="yes"/>
      <point x="484" y="52"/>
      <point x="569" y="-20"/>
      <point x="672" y="-20" type="curve" smooth="yes"/>
      <point x="776" y="-20"/>
      <point x="859" y="52"/>
      <point x="859" y="166" type="curve" smooth="yes"/>
      <point x="859" y="280"/>
      <point x="776" y="352"/>
      <point x="672" y="352" type="curve" smooth="yes"/>
    </contour>
    <contour>
      <point x="1116" y="238"/>
      <point x="1126" y="202"/>
      <point x="1126" y="166" type="curve" smooth="yes"/>
      <point x="1126" y="130"/>
      <point x="1116" y="94"/>
      <point x="1072" y="94" type="curve" smooth="yes"/>
      <point x="1028" y="94"/>
      <point x="1017" y="130"/>
      <point x="1017" y="166" type="curve" smooth="yes"/>
      <point x="1017" y="202"/>
      <point x="1028" y="238"/>
      <point x="1072" y="238" type="curve" smooth="yes"/>
    </contour>
    <contour>
      <point x="969" y="352"/>
      <point x="884" y="280"/>
      <point x="884" y="166" type="curve" smooth="yes"/>
      <point x="884" y="52"/>
      <point x="969" y="-20"/>
      <point x="1072" y="-20" type="curve" smooth="yes"/>
      <point x="1176" y="-20"/>
      <point x="1259" y="52"/>
      <point x="1259" y="166" type="curve" smooth="yes"/>
      <point x="1259" y="280"/>
      <point x="1176" y="352"/>
      <point x="1072" y="352" type="curve" smooth="yes"/>
    </contour>
  </outline>
</glyph>
<glyph name="guilsinglright" format="1">
  <advance width="371"/>
  <unicode hex="203A"/>
  <outline>
    <contour>
      <point x="25" y="488" type="line"/>
      <point x="150" y="283" type="line"/>
      <point x="25" y="78" type="line"/>
      <point x="148" y="-3" type="line"/>
      <point x="346" y="222" type="line"/>
      <point x="346" y="344" type="line"/>
      <point x="148" y="569" type="line"/>
    </contour>
  </outline>
</glyph>
<glyph name="Euro" format="1">
  <advance width="600"/>
  <unicode hex="20AC"/>
  <outline>
    <contour>
      <point x="244" y="696"/>
      <point x="116" y="594"/>
      <point x="80" y="438" type="curve"/>
      <point x="80" y="235" type="line"/>
      <point x="110" y="78"/>
      <point x="225" y="-20"/>
      <point x="399" y="-20" type="curve" smooth="yes"/>
      <point x="458" y="-20"/>
      <point x="506" y="-9"/>
      <point x="564" y="17" type="curve"/>
      <point x="564" y="162" type="line"/>
      <point x="519" y="135"/>
      <point x="466" y="118"/>
      <point x="415" y="118" type="curve" smooth="yes"/>
      <point x="343" y="118"/>
      <point x="293" y="155"/>
      <point x="276" y="239" type="curve"/>
      <point x="276" y="432" type="line"/>
      <point x="294" y="517"/>
      <point x="347" y="559"/>
      <point x="412" y="559" type="curve" smooth="yes"/>
      <point x="457" y="559"/>
      <point x="496" y="547"/>
      <point x="532" y="522" type="curve"/>
      <point x="600" y="638" type="line"/>
      <point x="555" y="668"/>
      <point x="495" y="696"/>
      <point x="405" y="696" type="curve" smooth="yes"/>
    </contour>
    <contour>
      <point x="25" y="308" type="line"/>
      <point x="0" y="213" type="line"/>
      <point x="455" y="213" type="line"/>
      <point x="480" y="308" type="line"/>
    </contour>
    <contour>
      <point x="25" y="463" type="line"/>
      <point x="0" y="368" type="line"/>
      <point x="493" y="368" type="line"/>
      <point x="518" y="463" type="line"/>
    </contour>
  </outline>
</glyph>
<glyph name="uni2116" format="1">
  <advance width="1154"/>
  <unicode hex="2116"/>
  <outline>
    <contour>
      <point x="740" y="716"/>
      <point x="655" y="614"/>
      <point x="655" y="486" type="curve" smooth="yes"/>
      <point x="655" y="348"/>
      <point x="740" y="255"/>
      <point x="889" y="255" type="curve" smooth="yes"/>
      <point x="1037" y="255"/>
      <point x="1123" y="348"/>
      <point x="1123" y="486" type="curve" smooth="yes"/>
      <point x="1123" y="614"/>
      <point x="1037" y="716"/>
      <point x="889" y="716" type="curve" smooth="yes"/>
    </contour>
    <contour>
      <point x="931" y="599"/>
      <point x="955" y="570"/>
      <point x="955" y="486" type="curve" smooth="yes"/>
      <point x="955" y="400"/>
      <point x="931" y="372"/>
      <point x="889" y="372" type="curve" smooth="yes"/>
      <point x="846" y="372"/>
      <point x="823" y="400"/>
      <point x="823" y="486" type="curve" smooth="yes"/>
      <point x="823" y="570"/>
      <point x="846" y="599"/>
      <point x="889" y="599" type="curve" smooth="yes"/>
    </contour>
    <component base="N"/>
    <component base="minus" xOffset="624" yOffset="-257"/>
  </outline>
</glyph>
<glyph name="arrowupdown" format="1">
  <advance width="900"/>
  <unicode hex="2195"/>
  <outline>
    <contour>
      <point x="94" y="580" type="line"/>
      <point x="202" y="469" type="line"/>
      <point x="278" y="539" type="line" smooth="yes"/>
      <point x="323" y="580"/>
      <point x="341" y="603"/>
      <point x="361" y="649" type="curve"/>
      <point x="361" y="13" type="line"/>
      <point x="341" y="59"/>
      <point x="323" y="82"/>
      <point x="278" y="123" type="curve" smooth="yes"/>
      <point x="202" y="193" type="line"/>
      <point x="94" y="82" type="line"/>
      <point x="450" y="-241" type="line"/>
      <point x="806" y="82" type="line"/>
      <point x="698" y="193" type="line"/>
      <point x="622" y="123" type="line" smooth="yes"/>
      <point x="577" y="82"/>
      <point x="559" y="59"/>
      <point x="539" y="13" type="curve"/>
      <point x="539" y="649" type="line"/>
      <point x="559" y="603"/>
      <point x="577" y="580"/>
      <point x="622" y="539" type="curve" smooth="yes"/>
      <point x="698" y="469" type="line"/>
      <point x="806" y="580" type="line"/>
      <point x="450" y="903" type="line"/>
    </contour>
  </outline>
</glyph>
<glyph name="summation" format="1">
  <advance width="531"/>
  <unicode hex="2211"/>
  <outline>
    <contour>
      <point x="20" y="680" type="line"/>
      <point x="20" y="544" type="line"/>
      <point x="208" y="339" type="line"/>
      <point x="20" y="136" type="line"/>
      <point x="20" y="0" type="line"/>
      <point x="511" y="0" type="line"/>
      <point x="511" y="144" type="line"/>
      <point x="233" y="144" type="line"/>
      <point x="388" y="306" type="line"/>
      <point x="388" y="376" type="line"/>
      <point x="233" y="536" type="line"/>
      <point x="511" y="536" type="line"/>
      <point x="511" y="680" type="line"/>
    </contour>
  </outline>
</glyph>
<glyph name="notequal" format="1">
  <advance width="530"/>
  <unicode hex="2260"/>
  <outline>
    <contour>
      <point x="45" y="72" type="line"/>
      <point x="143" y="17" type="line"/>
      <point x="485" y="588" type="line"/>
      <point x="387" y="643" type="line"/>
    </contour>
    <component base="equal"/>
  </outline>
</glyph>
<glyph name="uniA78B" format="1">
  <advance width="265"/>
  <unicode hex="A78B"/>
  <outline>
    <contour>
      <point x="203" y="326" type="line"/>
      <point x="225" y="696" type="line"/>
      <point x="40" y="696" type="line"/>
      <point x="62" y="326" type="line"/>
    </contour>
  </outline>
</glyph>
<glyph name="fi" format="1">
  <advance width="605"/>
  <unicode hex="FB01"/>
  <outline>
    <contour>
      <point x="139" y="764"/>
      <point x="70" y="675"/>
      <point x="70" y="565" type="curve" smooth="yes"/>
      <point x="70" y="534" type="line"/>
      <point x="-10" y="534" type="line"/>
      <point x="-10" y="400" type="line"/>
      <point x="70" y="400" type="line"/>
      <point x="70" y="0" type="line"/>
      <point x="268" y="0" type="line"/>
      <point x="268" y="400" type="line"/>
      <point x="365" y="400" type="line"/>
      <point x="365" y="0" type="line"/>
      <point x="563" y="0" type="line"/>
      <point x="563" y="534" type="line"/>
      <point x="268" y="534" type="line"/>
      <point x="268" y="555" type="line" smooth="yes"/>
      <point x="268" y="607"/>
      <point x="286" y="622"/>
      <point x="346" y="622" type="curve" smooth="yes"/>
      <point x="385" y="622"/>
      <point x="426" y="610"/>
      <point x="457" y="598" type="curve"/>
      <point x="509" y="722" type="line"/>
      <point x="466" y="742"/>
      <point x="397" y="764"/>
      <point x="314" y="764" type="curve" smooth="yes"/>
    </contour>
  </outline>
</glyph>
<glyph name="fl" format="1">
  <advance width="647"/>
  <unicode hex="FB02"/>
  <outline>
    <contour>
      <point x="143" y="764"/>
      <point x="70" y="675"/>
      <point x="70" y="565" type="curve" smooth="yes"/>
      <point x="70" y="0" type="line"/>
      <point x="268" y="0" type="line"/>
      <point x="268" y="559" type="line" smooth="yes"/>
      <point x="268" y="609"/>
      <point x="281" y="626"/>
      <point x="333" y="626" type="curve" smooth="yes"/>
      <point x="353" y="626"/>
      <point x="372" y="622"/>
      <point x="402" y="614" type="curve"/>
      <point x="454" y="732" type="line"/>
      <point x="413" y="747"/>
      <point x="356" y="764"/>
      <point x="296" y="764" type="curve" smooth="yes"/>
    </contour>
    <contour>
      <point x="-10" y="534" type="line"/>
      <point x="-10" y="400" type="line"/>
      <point x="330" y="400" type="line"/>
      <point x="352" y="534" type="line"/>
    </contour>
    <contour>
      <point x="384" y="744" type="line"/>
      <point x="384" y="151" type="line" smooth="yes"/>
      <point x="384" y="40"/>
      <point x="444" y="-20"/>
      <point x="546" y="-20" type="curve" smooth="yes"/>
      <point x="589" y="-20"/>
      <point x="634" y="-12"/>
      <point x="662" y="-2" type="curve"/>
      <point x="627" y="139" type="line"/>
      <point x="621" y="137"/>
      <point x="611" y="135"/>
      <point x="605" y="135" type="curve" smooth="yes"/>
      <point x="592" y="135"/>
      <point x="582" y="144"/>
      <point x="582" y="175" type="curve" smooth="yes"/>
      <point x="582" y="764" type="line"/>
    </contour>
  </outline>
</glyph>
<glyph name="TseHelper-cy" format="1">
  <advance width="652"/>
  <outline>
    <contour>
      <point x="609" y="696" type="line"/>
      <point x="403" y="696" type="line"/>
      <point x="403" y="158" type="line"/>
      <point x="249" y="158" type="line"/>
      <point x="249" y="696" type="line"/>
      <point x="43" y="696" type="line"/>
      <point x="43" y="0" type="line"/>
      <point x="609" y="0" type="line"/>
    </contour>
    <contour>
      <point x="327" y="0" type="move" name="bottom"/>
    </contour>
    <contour>
      <point x="619" y="0" type="move" name="bottomright"/>
    </contour>
  </outline>
</glyph>
<glyph name="a.sc" format="1">
  <advance width="528"/>
  <outline>
    <contour>
      <point x="148" y="571" type="line"/>
      <point x="-25" y="0" type="line"/>
      <point x="181" y="0" type="line"/>
      <point x="262" y="440" type="line"/>
      <point x="345" y="0" type="line"/>
      <point x="553" y="0" type="line"/>
      <point x="381" y="571" type="line"/>
    </contour>
    <contour>
      <point x="181" y="236" type="line"/>
      <point x="155" y="101" type="line"/>
      <point x="370" y="101" type="line"/>
      <point x="343" y="236" type="line"/>
    </contour>
    <contour>
      <point x="464" y="0" type="move" name="ogonek"/>
    </contour>
    <contour>
      <point x="264" y="571" type="move" name="top"/>
    </contour>
    <contour>
      <point x="143" y="571" type="move" name="topleft"/>
    </contour>
  </outline>
</glyph>
<glyph name="acute.case" format="1">
  <advance width="374"/>
  <outline>
    <contour>
      <point x="30" y="848" type="line"/>
      <point x="80" y="749" type="line"/>
      <point x="334" y="840" type="line"/>
      <point x="261" y="984" type="line"/>
    </contour>
    <contour>
      <point x="187" y="696" type="move" name="_top"/>
    </contour>
  </outline>
</glyph>
<glyph name="acute.sc" format="1">
  <advance width="364"/>
  <outline>
    <component base="acute" yOffset="30"/>
    <contour>
      <point x="192" y="571" type="move" name="_top"/>
    </contour>
  </outline>
</glyph>
<glyph name="acute.sc.loclPLK" format="1">
  <advance width="374"/>
  <outline>
    <contour>
      <point x="100" y="679" type="line"/>
      <point x="187" y="631" type="line"/>
      <point x="335" y="798" type="line"/>
      <point x="191" y="876" type="line"/>
    </contour>
    <contour>
      <point x="184" y="571" type="move" name="_top"/>
    </contour>
  </outline>
</glyph>
<glyph name="ae.sc" format="1">
  <advance width="762"/>
  <outline>
    <contour>
      <point x="204" y="571" type="line"/>
      <point x="-30" y="0" type="line"/>
      <point x="185" y="0" type="line"/>
      <point x="320" y="433" type="line"/>
      <point x="373" y="0" type="line"/>
      <point x="742" y="0" type="line"/>
      <point x="742" y="135" type="line"/>
      <point x="540" y="135" type="line"/>
      <point x="490" y="437" type="line"/>
      <point x="693" y="437" type="line"/>
      <point x="713" y="571" type="line"/>
    </contour>
    <contour>
      <point x="244" y="236" type="line"/>
      <point x="202" y="101" type="line"/>
      <point x="375" y="101" type="line"/>
      <point x="356" y="236" type="line"/>
    </contour>
    <contour>
      <point x="489" y="354" type="line"/>
      <point x="511" y="224" type="line"/>
      <point x="705" y="224" type="line"/>
      <point x="705" y="354" type="line"/>
    </contour>
    <contour>
      <point x="424" y="571" type="move" name="top"/>
    </contour>
  </outline>
</glyph>
<glyph name="b.sc" format="1">
  <advance width="563"/>
  <outline>
    <contour>
      <point x="43" y="571" type="line"/>
      <point x="43" y="0" type="line"/>
      <point x="264" y="0" type="line" smooth="yes"/>
      <point x="425" y="0"/>
      <point x="548" y="31"/>
      <point x="548" y="171" type="curve" smooth="yes"/>
      <point x="548" y="259"/>
      <point x="479" y="290"/>
      <point x="414" y="303" type="curve"/>
      <point x="467" y="317"/>
      <point x="523" y="348"/>
      <point x="523" y="422" type="curve" smooth="yes"/>
      <point x="523" y="538"/>
      <point x="413" y="571"/>
      <point x="240" y="571" type="curve" smooth="yes"/>
    </contour>
    <contour>
      <point x="308" y="439"/>
      <point x="324" y="424"/>
      <point x="324" y="402" type="curve"/>
      <point x="324" y="368"/>
      <point x="310" y="358"/>
      <point x="258" y="358" type="curve" smooth="yes"/>
      <point x="226" y="358" type="line"/>
      <point x="226" y="237" type="line"/>
      <point x="270" y="237" type="line" smooth="yes"/>
      <point x="323" y="237"/>
      <point x="345" y="220"/>
      <point x="345" y="186" type="curve" smooth="yes"/>
      <point x="345" y="145"/>
      <point x="314" y="136"/>
      <point x="266" y="136" type="curve" smooth="yes"/>
      <point x="240" y="136" type="line"/>
      <point x="240" y="439" type="line"/>
      <point x="258" y="439" type="line" smooth="yes"/>
    </contour>
  </outline>
</glyph>
<glyph name="breve.case" format="1">
  <advance width="430"/>
  <outline>
    <contour>
      <point x="335" y="746"/>
      <point x="392" y="840"/>
      <point x="400" y="932" type="curve"/>
      <point x="297" y="949" type="line"/>
      <point x="286" y="912"/>
      <point x="260" y="880"/>
      <point x="215" y="880" type="curve" smooth="yes"/>
      <point x="170" y="880"/>
      <point x="144" y="912"/>
      <point x="133" y="949" type="curve"/>
      <point x="30" y="932" type="line"/>
      <point x="38" y="840"/>
      <point x="95" y="746"/>
      <point x="215" y="746" type="curve" smooth="yes"/>
    </contour>
    <contour>
      <point x="215" y="696" type="move" name="_top"/>
    </contour>
  </outline>
</glyph>
<glyph name="breveacute" format="1">
  <advance width="447"/>
  <outline>
    <component base="breve.case" xOffset="1" yOffset="-143"/>
    <component base="acutedbl" xOffset="114" yOffset="185"/>
    <contour>
      <point x="215" y="534" type="move" name="_top"/>
    </contour>
  </outline>
</glyph>
<glyph name="c.sc" format="1">
  <advance width="522"/>
  <outline>
    <contour>
      <point x="139" y="587"/>
      <point x="20" y="474"/>
      <point x="20" y="288" type="curve" smooth="yes"/>
      <point x="20" y="88"/>
      <point x="135" y="-18"/>
      <point x="314" y="-18" type="curve" smooth="yes"/>
      <point x="403" y="-18"/>
      <point x="474" y="20"/>
      <point x="522" y="66" type="curve"/>
      <point x="436" y="175" type="line"/>
      <point x="400" y="148"/>
      <point x="368" y="128"/>
      <point x="328" y="128" type="curve" smooth="yes"/>
      <point x="261" y="128"/>
      <point x="224" y="181"/>
      <point x="224" y="288" type="curve" smooth="yes"/>
      <point x="224" y="389"/>
      <point x="259" y="448"/>
      <point x="322" y="448" type="curve" smooth="yes"/>
      <point x="364" y="448"/>
      <point x="395" y="432"/>
      <point x="422" y="408" type="curve"/>
      <point x="514" y="516" type="line"/>
      <point x="463" y="560"/>
      <point x="396" y="587"/>
      <point x="311" y="587" type="curve" smooth="yes"/>
    </contour>
    <contour>
      <point x="320" y="571" type="move" name="top"/>
    </contour>
    <contour>
      <point x="301" y="0" type="move" name="bottom"/>
    </contour>
  </outline>
</glyph>
<glyph name="caron.alt" format="1">
  <advance width="259"/>
  <outline>
    <contour>
      <point x="84" y="469" type="line"/>
      <point x="182" y="461" type="line"/>
      <point x="230" y="695" type="line"/>
      <point x="89" y="712" type="line"/>
    </contour>
    <contour>
      <point x="30" y="696" type="move" name="_topright"/>
    </contour>
  </outline>
</glyph>
<glyph name="caron.case" format="1">
  <advance width="468"/>
  <outline>
    <contour>
      <point x="234" y="879" type="line"/>
      <point x="97" y="965" type="line"/>
      <point x="30" y="888" type="line"/>
      <point x="175" y="747" type="line"/>
      <point x="293" y="747" type="line"/>
      <point x="438" y="888" type="line"/>
      <point x="371" y="965" type="line"/>
    </contour>
    <contour>
      <point x="234" y="696" type="move" name="_top"/>
    </contour>
  </outline>
</glyph>
<glyph name="caroncombcomb" format="1">
  <advance width="468"/>
  <outline>
    <component base="uni030C"/>
    <contour>
      <point x="234" y="965" type="move" name="top"/>
    </contour>
    <contour>
      <point x="234" y="696" type="move" name="_top"/>
    </contour>
  </outline>
</glyph>
<glyph name="cedilla.sc" format="1">
  <advance width="349"/>
  <outline>
    <component base="cedilla"/>
    <contour>
      <point x="175" y="0" type="move" name="_bottom"/>
    </contour>
  </outline>
</glyph>
<glyph name="cedillaTcedilla" format="1">
  <advance width="349"/>
  <outline>
    <contour>
      <point x="105" y="16" type="line"/>
      <point x="88" y="-120" type="line"/>
      <point x="153" y="-120"/>
      <point x="182" y="-127"/>
      <point x="182" y="-148" type="curve" smooth="yes"/>
      <point x="182" y="-167"/>
      <point x="165" y="-173"/>
      <point x="135" y="-173" type="curve" smooth="yes"/>
      <point x="113" y="-173"/>
      <point x="93" y="-166"/>
      <point x="73" y="-155" type="curve"/>
      <point x="30" y="-241" type="line"/>
      <point x="57" y="-258"/>
      <point x="103" y="-275"/>
      <point x="155" y="-275" type="curve" smooth="yes"/>
      <point x="260" y="-275"/>
      <point x="319" y="-220"/>
      <point x="319" y="-151" type="curve" smooth="yes"/>
      <point x="319" y="-89"/>
      <point x="282" y="-52"/>
      <point x="209" y="-43" type="curve"/>
      <point x="209" y="16" type="line"/>
    </contour>
    <contour>
      <point x="219" y="0" type="move" name="_bottomright"/>
    </contour>
  </outline>
</glyph>
<glyph name="circumflexcombcomb" format="1">
  <advance width="468"/>
  <outline>
    <component base="uni0302"/>
    <contour>
      <point x="234" y="970" type="move" name="top"/>
    </contour>
    <contour>
      <point x="234" y="696" type="move" name="_top"/>
    </contour>
  </outline>
</glyph>
<glyph name="delta.sc" format="1">
  <advance width="535"/>
  <outline>
    <contour>
      <point x="323" y="137" type="line"/>
      <point x="208" y="137" type="line"/>
      <point x="266" y="435" type="line"/>
    </contour>
    <contour>
      <point x="151" y="572" type="line"/>
      <point x="-25" y="0" type="line"/>
      <point x="560" y="0" type="line"/>
      <point x="385" y="572" type="line"/>
    </contour>
  </outline>
</glyph>
<glyph name="descStraight-cy.case" format="1">
  <advance width="242"/>
  <outline>
    <contour>
      <point x="30" y="154" type="line"/>
      <point x="32" y="0" type="line"/>
      <point x="85" y="0" type="line"/>
      <point x="105" y="-175" type="line"/>
      <point x="242" y="-175" type="line"/>
      <point x="242" y="154" type="line"/>
    </contour>
    <contour>
      <point x="164" y="0" type="move" name="_bottom"/>
    </contour>
    <contour>
      <point x="177" y="0" type="move" name="_bottomleft"/>
    </contour>
    <contour>
      <point x="172" y="0" type="move" name="_bottomright"/>
    </contour>
  </outline>
</glyph>
<glyph name="descStraight-cy" format="1">
  <advance width="242"/>
  <outline>
    <contour>
      <point x="30" y="142" type="line"/>
      <point x="52" y="0" type="line"/>
      <point x="92" y="0" type="line"/>
      <point x="112" y="-175" type="line"/>
      <point x="242" y="-175" type="line"/>
      <point x="242" y="142" type="line"/>
    </contour>
    <contour>
      <point x="164" y="0" type="move" name="_bottom"/>
    </contour>
    <contour>
      <point x="177" y="0" type="move" name="_bottomleft"/>
    </contour>
    <contour>
      <point x="172" y="0" type="move" name="_bottomright"/>
    </contour>
  </outline>
</glyph>
<glyph name="dieresisacutecomb" format="1">
  <advance width="276"/>
  <outline>
    <contour>
      <point x="-51" y="772"/>
      <point x="-92" y="731"/>
      <point x="-92" y="680" type="curve" smooth="yes"/>
      <point x="-92" y="628"/>
      <point x="-51" y="587"/>
      <point x="3" y="587" type="curve" smooth="yes"/>
      <point x="55" y="587"/>
      <point x="98" y="628"/>
      <point x="98" y="680" type="curve" smooth="yes"/>
      <point x="98" y="731"/>
      <point x="55" y="772"/>
      <point x="3" y="772" type="curve" smooth="yes"/>
    </contour>
    <contour>
      <point x="214" y="772"/>
      <point x="173" y="731"/>
      <point x="173" y="680" type="curve" smooth="yes"/>
      <point x="173" y="628"/>
      <point x="214" y="587"/>
      <point x="268" y="587" type="curve" smooth="yes"/>
      <point x="320" y="587"/>
      <point x="363" y="628"/>
      <point x="363" y="680" type="curve" smooth="yes"/>
      <point x="363" y="731"/>
      <point x="320" y="772"/>
      <point x="268" y="772" type="curve" smooth="yes"/>
    </contour>
    <contour>
      <point x="-8" y="889" type="line"/>
      <point x="40" y="790" type="line"/>
      <point x="299" y="869" type="line"/>
      <point x="230" y="1013" type="line"/>
    </contour>
    <contour>
      <point x="136" y="534" type="move" name="_top"/>
    </contour>
  </outline>
</glyph>
<glyph name="dieresisgravecomb" format="1">
  <advance width="276"/>
  <outline>
    <contour>
      <point x="216" y="772"/>
      <point x="173" y="731"/>
      <point x="173" y="680" type="curve" smooth="yes"/>
      <point x="173" y="628"/>
      <point x="216" y="587"/>
      <point x="268" y="587" type="curve" smooth="yes"/>
      <point x="322" y="587"/>
      <point x="363" y="628"/>
      <point x="363" y="680" type="curve" smooth="yes"/>
      <point x="363" y="731"/>
      <point x="322" y="772"/>
      <point x="268" y="772" type="curve" smooth="yes"/>
    </contour>
    <contour>
      <point x="-49" y="772"/>
      <point x="-92" y="731"/>
      <point x="-92" y="680" type="curve" smooth="yes"/>
      <point x="-92" y="628"/>
      <point x="-49" y="587"/>
      <point x="3" y="587" type="curve" smooth="yes"/>
      <point x="57" y="587"/>
      <point x="98" y="628"/>
      <point x="98" y="680" type="curve" smooth="yes"/>
      <point x="98" y="731"/>
      <point x="57" y="772"/>
      <point x="3" y="772" type="curve" smooth="yes"/>
    </contour>
    <contour>
      <point x="-28" y="869" type="line"/>
      <point x="231" y="790" type="line"/>
      <point x="279" y="889" type="line"/>
      <point x="41" y="1013" type="line"/>
    </contour>
    <contour>
      <point x="136" y="534" type="move" name="_top"/>
    </contour>
  </outline>
</glyph>
<glyph name="dieresismacroncomb.case" format="1">
  <advance width="495"/>
  <outline>
    <component base="dieresis" xOffset="-2" yOffset="112"/>
    <component base="macron" xOffset="51" yOffset="320"/>
    <contour>
      <point x="246" y="696" type="move" name="_top"/>
    </contour>
  </outline>
</glyph>
<glyph name="dieresistilde" format="1">
  <advance width="515"/>
  <outline>
    <component base="dieresis" xOffset="-2" yOffset="-45"/>
    <component base="tilde" xOffset="13" yOffset="163"/>
    <contour>
      <point x="249" y="534" type="move" name="_top"/>
    </contour>
  </outline>
</glyph>
<glyph name="dollar.tosf" format="1">
  <advance width="560"/>
  <outline>
    <contour>
      <point x="213" y="-1" type="line"/>
      <point x="213" y="-165" type="line"/>
      <point x="348" y="-165" type="line"/>
      <point x="348" y="5" type="line"/>
    </contour>
    <contour>
      <point x="213" y="834" type="line"/>
      <point x="213" y="673" type="line"/>
      <point x="348" y="678" type="line"/>
      <point x="348" y="834" type="line"/>
    </contour>
    <contour>
      <point x="157" y="690"/>
      <point x="34" y="621"/>
      <point x="34" y="488" type="curve" smooth="yes"/>
      <point x="34" y="392"/>
      <point x="76" y="330"/>
      <point x="231" y="275" type="curve" smooth="yes"/>
      <point x="307" y="248"/>
      <point x="328" y="230"/>
      <point x="328" y="191" type="curve" smooth="yes"/>
      <point x="328" y="158"/>
      <point x="302" y="132"/>
      <point x="250" y="132" type="curve" smooth="yes"/>
      <point x="199" y="132"/>
      <point x="140" y="155"/>
      <point x="90" y="198" type="curve"/>
      <point x="-5" y="93" type="line"/>
      <point x="49" y="38"/>
      <point x="142" y="-9"/>
      <point x="258" y="-9" type="curve" smooth="yes"/>
      <point x="422" y="-9"/>
      <point x="526" y="80"/>
      <point x="526" y="209" type="curve" smooth="yes"/>
      <point x="526" y="326"/>
      <point x="466" y="379"/>
      <point x="340" y="425" type="curve" smooth="yes"/>
      <point x="253" y="457"/>
      <point x="233" y="470"/>
      <point x="233" y="504" type="curve" smooth="yes"/>
      <point x="233" y="533"/>
      <point x="258" y="551"/>
      <point x="305" y="551" type="curve" smooth="yes"/>
      <point x="343" y="551"/>
      <point x="390" y="533"/>
      <point x="443" y="498" type="curve"/>
      <point x="520" y="600" type="line"/>
      <point x="460" y="658"/>
      <point x="380" y="690"/>
      <point x="287" y="690" type="curve" smooth="yes"/>
    </contour>
    <contour>
      <point x="287" y="671" type="move" name="top"/>
    </contour>
    <contour>
      <point x="280" y="10" type="move" name="bottom"/>
    </contour>
  </outline>
</glyph>
<glyph name="dotaccent.sc" format="1">
  <advance width="282"/>
  <outline>
    <component base="dotaccent" yOffset="30"/>
    <contour>
      <point x="143" y="750" type="move" name="_center"/>
    </contour>
    <contour>
      <point x="141" y="571" type="move" name="_top"/>
    </contour>
  </outline>
</glyph>
<glyph name="dotaccentcombcomb" format="1">
  <advance width="282"/>
  <outline>
    <component base="uni0307"/>
    <contour>
      <point x="141" y="955" type="move" name="top"/>
    </contour>
    <contour>
      <point x="141" y="696" type="move" name="_top"/>
    </contour>
  </outline>
</glyph>
<glyph name="e.sc" format="1">
  <advance width="473"/>
  <outline>
    <contour>
      <point x="43" y="571" type="line"/>
      <point x="43" y="0" type="line"/>
      <point x="446" y="0" type="line"/>
      <point x="446" y="135" type="line"/>
      <point x="240" y="135" type="line"/>
      <point x="240" y="226" type="line"/>
      <point x="410" y="226" type="line"/>
      <point x="410" y="356" type="line"/>
      <point x="240" y="356" type="line"/>
      <point x="240" y="437" type="line"/>
      <point x="433" y="437" type="line"/>
      <point x="453" y="571" type="line"/>
    </contour>
    <contour>
      <point x="426" y="0" type="move" name="ogonek"/>
    </contour>
    <contour>
      <point x="248" y="571" type="move" name="top"/>
    </contour>
    <contour>
      <point x="33" y="571" type="move" name="topleft"/>
    </contour>
    <contour>
      <point x="244" y="0" type="move" name="bottom"/>
    </contour>
  </outline>
</glyph>
<glyph name="eth.sc" format="1">
  <advance width="601"/>
  <outline>
    <contour>
      <point x="318" y="242" type="line"/>
      <point x="318" y="344" type="line"/>
      <point x="51" y="344" type="line"/>
      <point x="0" y="344" type="line"/>
      <point x="0" y="242" type="line"/>
    </contour>
    <component base="d.sc" xOffset="8"/>
  </outline>
</glyph>
<glyph name="f.sc" format="1">
  <advance width="439"/>
  <outline>
    <contour>
      <point x="43" y="571" type="line" smooth="yes"/>
      <point x="43" y="0" type="line" smooth="yes"/>
      <point x="240" y="0" type="line" smooth="yes"/>
      <point x="240" y="200" type="line" smooth="yes"/>
      <point x="397" y="200" type="line" smooth="yes"/>
      <point x="397" y="335" type="line" smooth="yes"/>
      <point x="240" y="335" type="line" smooth="yes"/>
      <point x="240" y="437" type="line" smooth="yes"/>
      <point x="419" y="437" type="line" smooth="yes"/>
      <point x="439" y="571" type="line" smooth="yes"/>
    </contour>
  </outline>
</glyph>
<glyph name="grave.sc" format="1">
  <advance width="364"/>
  <outline>
    <component base="grave" yOffset="30"/>
    <contour>
      <point x="172" y="571" type="move" name="_top"/>
    </contour>
  </outline>
</glyph>
<glyph name="gravecombcomb" format="1">
  <advance width="374"/>
  <outline>
    <component base="gravecomb"/>
    <contour>
      <point x="187" y="984" type="move" name="top"/>
    </contour>
    <contour>
      <point x="187" y="696" type="move" name="_top"/>
    </contour>
  </outline>
</glyph>
<glyph name="hbar.sc" format="1">
  <advance width="587"/>
  <outline>
    <contour>
      <point x="543" y="506" type="line"/>
      <point x="0" y="506" type="line"/>
      <point x="0" y="415" type="line"/>
      <point x="44" y="415" type="line"/>
      <point x="587" y="415" type="line"/>
      <point x="587" y="506" type="line"/>
    </contour>
    <component base="h.sc" xOffset="1"/>
  </outline>
</glyph>
<glyph name="hungarumlautcombcomb" format="1">
  <advance width="479"/>
  <outline>
    <component base="uni030B"/>
    <contour>
      <point x="175" y="1003" type="move" name="top"/>
    </contour>
    <contour>
      <point x="175" y="696" type="move" name="_top"/>
    </contour>
  </outline>
</glyph>
<glyph name="i.sc" format="1">
  <advance width="283"/>
  <outline>
    <contour>
      <point x="43" y="571" type="line"/>
      <point x="43" y="0" type="line"/>
      <point x="240" y="0" type="line"/>
      <point x="240" y="571" type="line"/>
    </contour>
    <contour>
      <point x="210" y="0" type="move" name="ogonek"/>
    </contour>
    <contour>
      <point x="142" y="571" type="move" name="top"/>
    </contour>
    <contour>
      <point x="33" y="571" type="move" name="topleft"/>
    </contour>
  </outline>
</glyph>
<glyph name="j.sc" format="1">
  <advance width="301"/>
  <outline>
    <contour>
      <point x="63" y="571" type="line"/>
      <point x="63" y="101" type="line" smooth="yes"/>
      <point x="63" y="42"/>
      <point x="56" y="-3"/>
      <point x="-20" y="-30" type="curve"/>
      <point x="33" y="-168" type="line"/>
      <point x="139" y="-134"/>
      <point x="260" y="-77"/>
      <point x="260" y="95" type="curve" smooth="yes"/>
      <point x="260" y="571" type="line"/>
    </contour>
    <contour>
      <point x="158" y="571" type="move" name="top"/>
    </contour>
  </outline>
</glyph>
<glyph name="k.sc" format="1">
  <advance width="598"/>
  <outline>
    <contour>
      <point x="402" y="571" type="line"/>
      <point x="245" y="305" type="line"/>
      <point x="396" y="0" type="line"/>
      <point x="618" y="0" type="line"/>
      <point x="443" y="321" type="line"/>
      <point x="603" y="571" type="line"/>
    </contour>
    <contour>
      <point x="43" y="571" type="line"/>
      <point x="43" y="0" type="line"/>
      <point x="240" y="0" type="line"/>
      <point x="240" y="571" type="line"/>
    </contour>
    <contour>
      <point x="301" y="571" type="move" name="top"/>
    </contour>
    <contour>
      <point x="304" y="0" type="move" name="bottom"/>
    </contour>
  </outline>
</glyph>
<glyph name="l.sc" format="1">
  <advance width="475"/>
  <outline>
    <contour>
      <point x="43" y="571" type="line"/>
      <point x="43" y="0" type="line"/>
      <point x="445" y="0" type="line"/>
      <point x="465" y="148" type="line"/>
      <point x="240" y="148" type="line"/>
      <point x="240" y="571" type="line"/>
    </contour>
    <contour>
      <point x="141" y="571" type="move" name="top"/>
    </contour>
    <contour>
      <point x="244" y="0" type="move" name="bottom"/>
    </contour>
    <contour>
      <point x="257" y="571" type="move" name="topright"/>
    </contour>
  </outline>
</glyph>
<glyph name="lambda.sc" format="1">
  <advance width="543"/>
  <outline>
    <contour>
      <point x="163" y="571" type="line"/>
      <point x="-10" y="0" type="line"/>
      <point x="196" y="0" type="line"/>
      <point x="278" y="436" type="line"/>
      <point x="360" y="0" type="line"/>
      <point x="568" y="0" type="line"/>
      <point x="396" y="571" type="line"/>
    </contour>
  </outline>
</glyph>
<glyph name="lslash.sc" format="1">
  <advance width="520"/>
  <outline>
    <contour>
      <point x="88" y="297" type="line"/>
      <point x="0" y="243" type="line"/>
      <point x="57" y="149" type="line"/>
      <point x="431" y="381" type="line"/>
      <point x="373" y="474" type="line"/>
    </contour>
    <component base="l.sc" xOffset="45"/>
  </outline>
</glyph>
<glyph name="m.sc" format="1">
  <advance width="706"/>
  <outline>
    <contour>
      <point x="407" y="572" type="line"/>
      <point x="355" y="207" type="line"/>
      <point x="298" y="572" type="line"/>
      <point x="57" y="572" type="line"/>
      <point x="15" y="0" type="line"/>
      <point x="210" y="0" type="line"/>
      <point x="211" y="189" type="line" smooth="yes"/>
      <point x="212" y="265"/>
      <point x="206" y="307"/>
      <point x="196" y="436" type="curve"/>
      <point x="258" y="55" type="line"/>
      <point x="446" y="55" type="line"/>
      <point x="507" y="440" type="line"/>
      <point x="497" y="325"/>
      <point x="496" y="256"/>
      <point x="496" y="186" type="curve" smooth="yes"/>
      <point x="497" y="0" type="line"/>
      <point x="691" y="0" type="line"/>
      <point x="650" y="572" type="line"/>
    </contour>
  </outline>
</glyph>
<glyph name="macrongravesingle.case" format="1">
  <advance width="385"/>
  <outline>
    <component base="macron" yOffset="114"/>
    <component base="grave.case" xOffset="6" yOffset="168"/>
    <contour>
      <point x="193" y="696" type="move" name="_top"/>
    </contour>
  </outline>
</glyph>
<glyph name="nine.osf" format="1">
  <advance width="582"/>
  <outline>
    <contour>
      <point x="132" y="587"/>
      <point x="15" y="489"/>
      <point x="15" y="349" type="curve" smooth="yes"/>
      <point x="15" y="209"/>
      <point x="107" y="124"/>
      <point x="213" y="124" type="curve" smooth="yes"/>
      <point x="277" y="124"/>
      <point x="315" y="145"/>
      <point x="355" y="185" type="curve"/>
      <point x="369" y="319" type="line"/>
      <point x="345" y="276"/>
      <point x="310" y="258"/>
      <point x="279" y="258" type="curve" smooth="yes"/>
      <point x="242" y="258"/>
      <point x="210" y="277"/>
      <point x="210" y="359" type="curve" smooth="yes"/>
      <point x="210" y="421"/>
      <point x="241" y="451"/>
      <point x="286" y="451" type="curve" smooth="yes"/>
      <point x="350" y="451"/>
      <point x="362" y="405"/>
      <point x="360" y="272" type="curve"/>
      <point x="354" y="186" type="line"/>
      <point x="314" y="85"/>
      <point x="238" y="42"/>
      <point x="63" y="5" type="curve"/>
      <point x="102" y="-131" type="line"/>
      <point x="417" y="-79"/>
      <point x="562" y="59"/>
      <point x="562" y="324" type="curve" smooth="yes"/>
      <point x="562" y="476"/>
      <point x="469" y="587"/>
      <point x="288" y="587" type="curve" smooth="yes"/>
    </contour>
  </outline>
</glyph>
<glyph name="nine.tosf" format="1">
  <advance width="560"/>
  <outline>
    <contour>
      <point x="128" y="587"/>
      <point x="13" y="489"/>
      <point x="13" y="349" type="curve" smooth="yes"/>
      <point x="13" y="209"/>
      <point x="106" y="124"/>
      <point x="209" y="124" type="curve" smooth="yes"/>
      <point x="264" y="124"/>
      <point x="301" y="145"/>
      <point x="342" y="183" type="curve"/>
      <point x="350" y="319" type="line"/>
      <point x="326" y="274"/>
      <point x="299" y="258"/>
      <point x="269" y="258" type="curve" smooth="yes"/>
      <point x="240" y="258"/>
      <point x="208" y="277"/>
      <point x="208" y="359" type="curve" smooth="yes"/>
      <point x="208" y="421"/>
      <point x="237" y="451"/>
      <point x="276" y="451" type="curve" smooth="yes"/>
      <point x="331" y="451"/>
      <point x="343" y="405"/>
      <point x="343" y="272" type="curve"/>
      <point x="341" y="180" type="line"/>
      <point x="300" y="86"/>
      <point x="236" y="42"/>
      <point x="61" y="5" type="curve"/>
      <point x="100" y="-131" type="line"/>
      <point x="396" y="-79"/>
      <point x="543" y="59"/>
      <point x="543" y="324" type="curve" smooth="yes"/>
      <point x="543" y="476"/>
      <point x="450" y="587"/>
      <point x="278" y="587" type="curve" smooth="yes"/>
    </contour>
  </outline>
</glyph>
<glyph name="oe.sc" format="1">
  <advance width="808"/>
  <outline>
    <contour>
      <point x="120" y="591"/>
      <point x="20" y="473"/>
      <point x="20" y="288" type="curve" smooth="yes"/>
      <point x="20" y="98"/>
      <point x="120" y="-18"/>
      <point x="299" y="-18" type="curve" smooth="yes"/>
      <point x="372" y="-18"/>
      <point x="432" y="9"/>
      <point x="471" y="65" type="curve"/>
      <point x="542" y="111"/>
      <point x="577" y="203"/>
      <point x="577" y="287" type="curve" smooth="yes"/>
      <point x="577" y="377"/>
      <point x="539" y="468"/>
      <point x="460" y="524" type="curve"/>
      <point x="428" y="566"/>
      <point x="370" y="591"/>
      <point x="299" y="591" type="curve" smooth="yes"/>
    </contour>
    <contour>
      <point x="517" y="135" type="line"/>
      <point x="382" y="0" type="line"/>
      <point x="781" y="0" type="line"/>
      <point x="781" y="135" type="line"/>
    </contour>
    <contour>
      <point x="570" y="356" type="line"/>
      <point x="570" y="226" type="line"/>
      <point x="745" y="226" type="line"/>
      <point x="745" y="356" type="line"/>
    </contour>
    <contour>
      <point x="382" y="572" type="line"/>
      <point x="525" y="438" type="line"/>
      <point x="768" y="438" type="line"/>
      <point x="788" y="572" type="line"/>
    </contour>
    <contour>
      <point x="350" y="454"/>
      <point x="373" y="410"/>
      <point x="373" y="287" type="curve" smooth="yes"/>
      <point x="373" y="165"/>
      <point x="353" y="118"/>
      <point x="298" y="118" type="curve" smooth="yes"/>
      <point x="245" y="118"/>
      <point x="224" y="165"/>
      <point x="224" y="288" type="curve" smooth="yes"/>
      <point x="224" y="410"/>
      <point x="246" y="454"/>
      <point x="298" y="454" type="curve" smooth="yes"/>
    </contour>
  </outline>
</glyph>
<glyph name="omega.sc" format="1">
  <advance width="614"/>
  <outline>
    <contour>
      <point x="120" y="587"/>
      <point x="20" y="459"/>
      <point x="20" y="325" type="curve" smooth="yes"/>
      <point x="20" y="246"/>
      <point x="66" y="172"/>
      <point x="137" y="136" type="curve"/>
      <point x="137" y="132" type="line"/>
      <point x="39" y="132" type="line"/>
      <point x="39" y="0" type="line"/>
      <point x="288" y="0" type="line"/>
      <point x="288" y="121" type="line"/>
      <point x="218" y="159"/>
      <point x="224" y="218"/>
      <point x="224" y="325" type="curve" smooth="yes"/>
      <point x="224" y="401"/>
      <point x="246" y="450"/>
      <point x="307" y="450" type="curve" smooth="yes"/>
      <point x="367" y="450"/>
      <point x="390" y="401"/>
      <point x="390" y="325" type="curve" smooth="yes"/>
      <point x="390" y="214"/>
      <point x="394" y="156"/>
      <point x="327" y="121" type="curve"/>
      <point x="327" y="0" type="line"/>
      <point x="576" y="0" type="line"/>
      <point x="576" y="132" type="line"/>
      <point x="478" y="132" type="line"/>
      <point x="478" y="136" type="line"/>
      <point x="548" y="170"/>
      <point x="594" y="245"/>
      <point x="594" y="331" type="curve" smooth="yes"/>
      <point x="594" y="458"/>
      <point x="493" y="587"/>
      <point x="307" y="587" type="curve" smooth="yes"/>
    </contour>
    <contour>
      <point x="307" y="571" type="move" name="top"/>
    </contour>
  </outline>
</glyph>
<glyph name="oslash.sc" format="1">
  <advance width="614"/>
  <outline>
    <contour>
      <point x="120" y="587"/>
      <point x="20" y="473"/>
      <point x="20" y="288" type="curve" smooth="yes"/>
      <point x="20" y="98"/>
      <point x="120" y="-18"/>
      <point x="307" y="-18" type="curve" smooth="yes"/>
      <point x="494" y="-18"/>
      <point x="594" y="103"/>
      <point x="594" y="287" type="curve" smooth="yes"/>
      <point x="594" y="477"/>
      <point x="494" y="587"/>
      <point x="307" y="587" type="curve" smooth="yes"/>
    </contour>
    <contour>
      <point x="373" y="450"/>
      <point x="396" y="436"/>
      <point x="396" y="287" type="curve" smooth="yes"/>
      <point x="396" y="165"/>
      <point x="376" y="118"/>
      <point x="307" y="118" type="curve" smooth="yes"/>
      <point x="239" y="118"/>
      <point x="218" y="136"/>
      <point x="218" y="288" type="curve" smooth="yes"/>
      <point x="218" y="410"/>
      <point x="240" y="450"/>
      <point x="307" y="450" type="curve" smooth="yes"/>
    </contour>
    <contour>
      <point x="335" y="586" type="line"/>
      <point x="317" y="453" type="line"/>
      <point x="224" y="161" type="line"/>
      <point x="139" y="27" type="line"/>
      <point x="104" y="-79" type="line"/>
      <point x="245" y="-117" type="line"/>
      <point x="279" y="-13" type="line"/>
      <point x="298" y="117" type="line"/>
      <point x="391" y="409" type="line"/>
      <point x="475" y="546" type="line"/>
      <point x="510" y="649" type="line"/>
      <point x="368" y="687" type="line"/>
    </contour>
    <contour>
      <point x="308" y="571" type="move" name="top"/>
    </contour>
  </outline>
</glyph>
<glyph name="phi.sc" format="1">
  <advance width="767"/>
  <outline>
    <contour>
      <point x="452" y="400" type="line"/>
      <point x="534" y="396"/>
      <point x="563" y="349"/>
      <point x="563" y="289" type="curve" smooth="yes"/>
      <point x="563" y="235"/>
      <point x="539" y="175"/>
      <point x="451" y="173" type="curve"/>
      <point x="463" y="68" type="line"/>
      <point x="636" y="74"/>
      <point x="762" y="145"/>
      <point x="762" y="289" type="curve" smooth="yes"/>
      <point x="762" y="437"/>
      <point x="630" y="499"/>
      <point x="463" y="504" type="curve"/>
    </contour>
    <contour>
      <point x="130" y="498"/>
      <point x="5" y="427"/>
      <point x="5" y="283" type="curve" smooth="yes"/>
      <point x="5" y="135"/>
      <point x="137" y="73"/>
      <point x="304" y="68" type="curve"/>
      <point x="315" y="172" type="line"/>
      <point x="233" y="176"/>
      <point x="203" y="223"/>
      <point x="203" y="283" type="curve" smooth="yes"/>
      <point x="203" y="342"/>
      <point x="228" y="397"/>
      <point x="315" y="398" type="curve"/>
      <point x="304" y="504" type="line"/>
    </contour>
    <contour>
      <point x="287" y="571" type="line"/>
      <point x="287" y="491" type="line"/>
      <point x="297" y="408" type="line"/>
      <point x="297" y="167" type="line"/>
      <point x="287" y="82" type="line"/>
      <point x="287" y="0" type="line"/>
      <point x="479" y="0" type="line"/>
      <point x="479" y="82" type="line"/>
      <point x="468" y="167" type="line"/>
      <point x="468" y="408" type="line"/>
      <point x="479" y="491" type="line"/>
      <point x="479" y="571" type="line"/>
    </contour>
  </outline>
</glyph>
<glyph name="plus.dnom" format="1">
  <advance width="400"/>
  <outline>
    <contour>
      <point x="140" y="341" type="line"/>
      <point x="140" y="255" type="line"/>
      <point x="48" y="255" type="line"/>
      <point x="48" y="154" type="line"/>
      <point x="140" y="154" type="line"/>
      <point x="140" y="68" type="line"/>
      <point x="260" y="68" type="line"/>
      <point x="260" y="154" type="line"/>
      <point x="352" y="154" type="line"/>
      <point x="352" y="255" type="line"/>
      <point x="260" y="255" type="line"/>
      <point x="260" y="341" type="line"/>
    </contour>
  </outline>
</glyph>
<glyph name="psi.sc" format="1">
  <advance width="668"/>
  <outline>
    <contour>
      <point x="261" y="262" type="line"/>
      <point x="210" y="276"/>
      <point x="197" y="304"/>
      <point x="197" y="343" type="curve" smooth="yes"/>
      <point x="197" y="571" type="line"/>
      <point x="10" y="571" type="line"/>
      <point x="10" y="355" type="line" smooth="yes"/>
      <point x="10" y="237"/>
      <point x="89" y="158"/>
      <point x="253" y="137" type="curve"/>
    </contour>
    <contour>
      <point x="415" y="138" type="line"/>
      <point x="580" y="159"/>
      <point x="658" y="247"/>
      <point x="658" y="354" type="curve" smooth="yes"/>
      <point x="658" y="571" type="line"/>
      <point x="470" y="571" type="line"/>
      <point x="470" y="343" type="line" smooth="yes"/>
      <point x="470" y="307"/>
      <point x="456" y="277"/>
      <point x="406" y="263" type="curve"/>
    </contour>
    <contour>
      <point x="422" y="255" type="line"/>
      <point x="422" y="571" type="line"/>
      <point x="246" y="571" type="line"/>
      <point x="246" y="254" type="line"/>
      <point x="236" y="153" type="line"/>
      <point x="236" y="0" type="line"/>
      <point x="433" y="0" type="line"/>
      <point x="433" y="154" type="line"/>
    </contour>
  </outline>
</glyph>
<glyph name="q.sc" format="1">
  <advance width="611"/>
  <outline>
    <contour>
      <point x="120" y="587"/>
      <point x="20" y="469"/>
      <point x="20" y="288" type="curve" smooth="yes"/>
      <point x="20" y="98"/>
      <point x="120" y="-15"/>
      <point x="292" y="-15" type="curve" smooth="yes"/>
      <point x="315" y="-15"/>
      <point x="338" y="-13"/>
      <point x="358" y="-9" type="curve"/>
      <point x="449" y="42" type="line"/>
      <point x="513" y="78"/>
      <point x="594" y="151"/>
      <point x="594" y="287" type="curve" smooth="yes"/>
      <point x="594" y="473"/>
      <point x="494" y="587"/>
      <point x="307" y="587" type="curve" smooth="yes"/>
    </contour>
    <contour>
      <point x="292" y="-15" type="line"/>
      <point x="407" y="-15"/>
      <point x="482" y="-99"/>
      <point x="526" y="-159" type="curve"/>
      <point x="641" y="-10" type="line"/>
      <point x="588" y="28"/>
      <point x="536" y="42"/>
      <point x="449" y="42" type="curve"/>
    </contour>
    <contour>
      <point x="367" y="450"/>
      <point x="390" y="406"/>
      <point x="390" y="287" type="curve" smooth="yes"/>
      <point x="390" y="165"/>
      <point x="370" y="118"/>
      <point x="307" y="118" type="curve" smooth="yes"/>
      <point x="245" y="118"/>
      <point x="224" y="165"/>
      <point x="224" y="288" type="curve" smooth="yes"/>
      <point x="224" y="406"/>
      <point x="246" y="450"/>
      <point x="307" y="450" type="curve" smooth="yes"/>
    </contour>
  </outline>
</glyph>
<glyph name="radical.tf" format="1">
  <advance width="560"/>
  <outline>
    <contour>
      <point x="449" y="898" type="line"/>
      <point x="270" y="170" type="line"/>
      <point x="180" y="518" type="line"/>
      <point x="-5" y="464" type="line"/>
      <point x="164" y="0" type="line"/>
      <point x="390" y="0" type="line"/>
      <point x="597" y="752" type="line"/>
      <point x="790" y="752" type="line"/>
      <point x="790" y="898" type="line"/>
    </contour>
  </outline>
</glyph>
<glyph name="ringcombcomb" format="1">
  <advance width="368"/>
  <outline>
    <component base="uni030A"/>
    <contour>
      <point x="184" y="1012" type="move" name="top"/>
    </contour>
    <contour>
      <point x="184" y="696" type="move" name="_top"/>
    </contour>
  </outline>
</glyph>
<glyph name="s.sc" format="1">
  <advance width="535"/>
  <outline>
    <contour>
      <point x="157" y="587"/>
      <point x="38" y="527"/>
      <point x="38" y="404" type="curve" smooth="yes"/>
      <point x="38" y="324"/>
      <point x="71" y="261"/>
      <point x="228" y="214" type="curve" smooth="yes"/>
      <point x="297" y="194"/>
      <point x="315" y="182"/>
      <point x="315" y="157" type="curve" smooth="yes"/>
      <point x="315" y="140"/>
      <point x="298" y="121"/>
      <point x="250" y="121" type="curve" smooth="yes"/>
      <point x="196" y="121"/>
      <point x="140" y="141"/>
      <point x="95" y="177" type="curve"/>
      <point x="0" y="74" type="line"/>
      <point x="49" y="27"/>
      <point x="138" y="-18"/>
      <point x="259" y="-18" type="curve" smooth="yes"/>
      <point x="421" y="-18"/>
      <point x="520" y="61"/>
      <point x="520" y="176" type="curve" smooth="yes"/>
      <point x="520" y="273"/>
      <point x="469" y="329"/>
      <point x="340" y="370" type="curve" smooth="yes"/>
      <point x="260" y="396"/>
      <point x="243" y="398"/>
      <point x="243" y="421" type="curve" smooth="yes"/>
      <point x="243" y="438"/>
      <point x="262" y="450"/>
      <point x="306" y="450" type="curve" smooth="yes"/>
      <point x="349" y="450"/>
      <point x="392" y="434"/>
      <point x="431" y="406" type="curve"/>
      <point x="516" y="505" type="line"/>
      <point x="461" y="558"/>
      <point x="384" y="587"/>
      <point x="288" y="587" type="curve" smooth="yes"/>
    </contour>
    <contour>
      <point x="288" y="571" type="move" name="top"/>
    </contour>
    <contour>
      <point x="281" y="0" type="move" name="bottom"/>
    </contour>
  </outline>
</glyph>
<glyph name="seven.dnom" format="1">
  <advance width="400"/>
  <outline>
    <contour>
      <point x="42" y="424" type="line"/>
      <point x="42" y="322" type="line"/>
      <point x="213" y="322" type="line"/>
      <point x="71" y="34" type="line"/>
      <point x="197" y="-14" type="line"/>
      <point x="357" y="331" type="line"/>
      <point x="357" y="424" type="line"/>
    </contour>
  </outline>
</glyph>
<glyph name="sigma.sc" format="1">
  <advance width="438"/>
  <outline>
    <contour>
      <point x="5" y="571" type="line"/>
      <point x="5" y="437" type="line"/>
      <point x="148" y="279" type="line"/>
      <point x="5" y="135" type="line"/>
      <point x="5" y="0" type="line"/>
      <point x="433" y="0" type="line"/>
      <point x="433" y="139" type="line"/>
      <point x="217" y="139" type="line"/>
      <point x="340" y="252" type="line"/>
      <point x="340" y="309" type="line"/>
      <point x="220" y="436" type="line"/>
      <point x="433" y="436" type="line"/>
      <point x="433" y="571" type="line"/>
    </contour>
  </outline>
</glyph>
